<svg width="128" height="76" viewBox="0 0 128 76" fill="none" xmlns="http://www.w3.org/2000/svg">
<path fill-rule="evenodd" clip-rule="evenodd" d="M44.3796 17.752H58.2482V23.2994H55.4762C57.2173 25.6173 58.2489 28.4985 58.2489 31.6206C58.2489 39.28 52.0398 45.4892 44.3803 45.4892C36.7209 45.4892 30.5117 39.28 30.5117 31.6206C30.5117 23.9614 36.7205 17.7524 44.3796 17.752ZM44.3796 23.2994C39.7839 23.2994 36.0584 27.0249 36.0584 31.6206C36.0584 36.2162 39.7839 39.9417 44.3796 39.9417C48.9752 39.9417 52.7007 36.2162 52.7007 31.6206C52.7007 27.0249 48.9752 23.2994 44.3796 23.2994Z" fill="white"/>
<path fill-rule="evenodd" clip-rule="evenodd" d="M44.3803 48.2627C36.7209 48.2627 30.5117 54.4719 30.5117 62.1313C30.5117 69.7907 36.7209 75.9999 44.3803 75.9999C52.0398 75.9999 58.2489 69.7907 58.2489 62.1313C58.2489 54.4719 52.0398 48.2627 44.3803 48.2627ZM44.3796 53.8102C39.7839 53.8102 36.0584 57.5357 36.0584 62.1313C36.0584 66.727 39.7839 70.4525 44.3796 70.4525C48.9752 70.4525 52.7007 66.727 52.7007 62.1313C52.7007 57.5357 48.9752 53.8102 44.3796 53.8102Z" fill="white"/>
<rect x="108.73" width="9.43066" height="9.43066" rx="4.71533" fill="#E86DBD"/>
<rect x="91.5312" y="17.752" width="5.54745" height="27.7372" fill="white"/>
<path fill-rule="evenodd" clip-rule="evenodd" d="M61.0195 31.6206C61.0195 23.9611 67.2287 17.752 74.8881 17.752C78.011 17.752 80.8927 18.7841 83.2109 20.5258V17.752H88.7583V45.4892H83.2109V42.7153C80.8927 44.4571 78.011 45.4892 74.8881 45.4892C67.2287 45.4892 61.0195 39.28 61.0195 31.6206ZM66.567 31.6206C66.567 27.0249 70.2925 23.2994 74.8881 23.2994C79.4838 23.2994 83.2093 27.0249 83.2093 31.6206C83.2093 36.2162 79.4838 39.9417 74.8881 39.9417C70.2925 39.9417 66.567 36.2162 66.567 31.6206Z" fill="white"/>
<path fill-rule="evenodd" clip-rule="evenodd" d="M27.7372 17.752H22.1898V20.5247C19.8719 18.7836 16.9907 17.752 13.8686 17.752C6.20919 17.752 0 23.9611 0 31.6206C0 39.28 6.20919 45.4892 13.8686 45.4892C16.9907 45.4892 19.8719 44.4575 22.1898 42.7165V45.4892H27.7372V31.6206V17.752ZM22.1898 31.6206C22.1898 27.0249 18.4643 23.2994 13.8686 23.2994C9.27296 23.2994 5.54745 27.0249 5.54745 31.6206C5.54745 36.2162 9.27296 39.9417 13.8686 39.9417C18.4643 39.9417 22.1898 36.2162 22.1898 31.6206Z" fill="white"/>
<path fill-rule="evenodd" clip-rule="evenodd" d="M99.8516 31.6206C99.8516 23.9611 106.061 17.752 113.72 17.752C121.38 17.752 127.589 23.9611 127.589 31.6206L127.59 31.6206V45.4892L122.044 45.4892V31.6206L122.041 31.6206C122.041 27.0249 118.316 23.2994 113.72 23.2994C109.125 23.2994 105.399 27.0249 105.399 31.6206L105.4 31.6206V31.7777C105.401 31.7994 105.401 31.8211 105.402 31.8427V42.7187C105.401 42.7183 105.401 42.7179 105.4 42.7176V45.4892H99.853V31.8235C99.852 31.756 99.8516 31.6883 99.8516 31.6206Z" fill="white"/>
</svg>
