<svg width="274" height="164" viewBox="0 0 274 164" fill="none" xmlns="http://www.w3.org/2000/svg">
<path fill-rule="evenodd" clip-rule="evenodd" d="M65.451 67.8311C65.451 51.4004 78.7708 38.0806 95.2015 38.0806C95.2015 38.0806 95.2016 38.0806 95.2016 38.0806H124.952V49.9808H119.004C122.739 54.9531 124.952 61.1336 124.952 67.8311C124.952 84.2618 111.632 97.5816 95.2015 97.5816C78.7708 97.5816 65.451 84.2618 65.451 67.8311ZM95.2075 49.9808C95.2055 49.9808 95.2036 49.9808 95.2016 49.9808C85.3432 49.9808 77.3513 57.9727 77.3513 67.8311C77.3513 77.6895 85.3432 85.6814 95.2016 85.6814C105.06 85.6814 113.052 77.6895 113.052 67.8311C113.052 57.9746 105.063 49.984 95.2075 49.9808Z" fill="#26406B"/>
<path fill-rule="evenodd" clip-rule="evenodd" d="M95.2015 103.532C78.7708 103.532 65.451 116.851 65.451 133.282C65.451 149.713 78.7708 163.033 95.2015 163.033C111.632 163.033 124.952 149.713 124.952 133.282C124.952 116.851 111.632 103.532 95.2015 103.532ZM95.2016 115.432C85.3432 115.432 77.3513 123.424 77.3513 133.282C77.3513 143.141 85.3432 151.132 95.2016 151.132C105.06 151.132 113.052 143.141 113.052 133.282C113.052 123.424 105.06 115.432 95.2016 115.432Z" fill="#26406B"/>
<rect x="234.434" width="20.2303" height="20.2303" rx="10.1152" fill="#E86DBD"/>
<rect x="196.353" y="38.0806" width="11.9002" height="59.501" fill="#26406B"/>
<path fill-rule="evenodd" clip-rule="evenodd" d="M130.902 67.8311C130.902 51.4004 144.222 38.0806 160.653 38.0806C167.35 38.0806 173.531 40.2937 178.503 44.0285V38.0806H190.403V67.7721C190.403 67.7918 190.403 67.8114 190.403 67.8311C190.403 67.8508 190.403 67.8704 190.403 67.8901V97.5816H178.503V91.6337C173.531 95.3685 167.35 97.5816 160.653 97.5816C144.222 97.5816 130.902 84.2618 130.902 67.8311ZM178.503 67.8311C178.503 57.9727 170.511 49.9808 160.653 49.9808C150.794 49.9808 142.802 57.9727 142.802 67.8311C142.802 77.6895 150.794 85.6814 160.653 85.6814C170.511 85.6814 178.503 77.6895 178.503 67.8311Z" fill="#26406B"/>
<path fill-rule="evenodd" clip-rule="evenodd" d="M214.203 67.8311C214.203 51.4004 227.523 38.0806 243.954 38.0806C260.385 38.0806 273.704 51.4004 273.704 67.8311L273.704 97.5816H261.804V91.6337V67.8311C261.804 57.9727 253.812 49.9808 243.954 49.9808C234.096 49.9808 226.104 57.9727 226.104 67.8311L226.104 67.837V91.6337V97.5816H214.204V67.8631L214.203 67.8311Z" fill="#26406B"/>
<path fill-rule="evenodd" clip-rule="evenodd" d="M0 67.8311C0 51.4004 13.3197 38.0806 29.7505 38.0806C36.448 38.0806 42.6286 40.2937 47.6008 44.0286V38.0806H59.501V97.5816H47.6008V91.6336C42.6286 95.3685 36.448 97.5816 29.7505 97.5816C13.3197 97.5816 0 84.2618 0 67.8311ZM47.6008 67.8311C47.6008 57.9727 39.609 49.9808 29.7505 49.9808C19.8921 49.9808 11.9002 57.9727 11.9002 67.8311C11.9002 77.6895 19.8921 85.6814 29.7505 85.6814C39.609 85.6814 47.6008 77.6895 47.6008 67.8311Z" fill="#26406B"/>
</svg>
