<svg width="38" height="39" viewBox="0 0 38 39" fill="none" xmlns="http://www.w3.org/2000/svg">
<g clip-path="url(#clip0)">
<path d="M29.675 7.64063H8.325C7.593 7.64063 7 8.23363 7 8.96563V30.3166C7 31.0476 7.593 31.6406 8.325 31.6406H19.82V22.3466H16.692V18.7246H19.82V16.0536C19.82 12.9536 21.713 11.2656 24.479 11.2656C25.804 11.2656 26.942 11.3646 27.274 11.4086V14.6486L25.356 14.6496C23.852 14.6496 23.561 15.3646 23.561 16.4126V18.7256H27.148L26.681 22.3476H23.561V31.6406H29.677C30.407 31.6406 31 31.0476 31 30.3156V8.96563C31 8.23363 30.407 7.64062 29.675 7.64062V7.64063Z" fill="white"/>
</g>
<defs>
<clipPath id="clip0">
<rect width="24" height="24" fill="white" transform="translate(7 7.64062)"/>
</clipPath>
</defs>
</svg>
