<svg width="38" height="39" viewBox="0 0 38 39" fill="none" xmlns="http://www.w3.org/2000/svg">
<g clip-path="url(#clip0)">
<path d="M26 7.64062H12C9.239 7.64062 7 9.87963 7 12.6406V26.6406C7 29.4016 9.239 31.6406 12 31.6406H26C28.762 31.6406 31 29.4016 31 26.6406V12.6406C31 9.87963 28.762 7.64062 26 7.64062ZM15 26.6406H12V15.6406H15V26.6406ZM13.5 14.3726C12.534 14.3726 11.75 13.5826 11.75 12.6086C11.75 11.6346 12.534 10.8446 13.5 10.8446C14.466 10.8446 15.25 11.6346 15.25 12.6086C15.25 13.5826 14.467 14.3726 13.5 14.3726ZM27 26.6406H24V21.0366C24 17.6686 20 17.9236 20 21.0366V26.6406H17V15.6406H20V17.4056C21.396 14.8196 27 14.6286 27 19.8816V26.6406Z" fill="white"/>
</g>
<defs>
<clipPath id="clip0">
<rect width="24" height="24" fill="white" transform="translate(7 7.64062)"/>
</clipPath>
</defs>
</svg>
