<svg width="318" height="190" viewBox="0 0 318 190" fill="none" xmlns="http://www.w3.org/2000/svg">
<rect width="318" height="189" fill="white"/>
<path fill-rule="evenodd" clip-rule="evenodd" d="M110.623 44.2432H145.189V58.0695H138.271C142.611 63.8467 145.183 71.0279 145.183 78.8097C145.183 97.8999 129.707 113.376 110.617 113.376C91.5265 113.376 76.0508 97.8999 76.0508 78.8097C76.0508 59.7195 91.5265 44.2438 110.617 44.2438C110.619 44.2438 110.621 44.2438 110.623 44.2438V44.2432ZM89.8696 78.8099C89.8696 67.3558 99.155 58.0704 110.609 58.0704C122.063 58.0704 131.349 67.3558 131.349 78.8099C131.349 90.264 122.063 99.5494 110.609 99.5494C99.155 99.5494 89.8696 90.264 89.8696 78.8099Z" fill="#EFF7FE"/>
<path fill-rule="evenodd" clip-rule="evenodd" d="M110.617 120.288C91.5265 120.288 76.0508 135.764 76.0508 154.854C76.0508 173.944 91.5265 189.42 110.617 189.42C129.707 189.42 145.183 173.944 145.183 154.854C145.183 135.764 129.707 120.288 110.617 120.288ZM110.609 134.116C99.155 134.116 89.8696 143.402 89.8696 154.856C89.8696 166.31 99.155 175.595 110.609 175.595C122.063 175.595 131.349 166.31 131.349 154.856C131.349 143.402 122.063 134.116 110.609 134.116Z" fill="#EFF7FE"/>
<rect x="271" width="23.5048" height="23.5048" rx="11.7524" fill="#EFF7FE"/>
<rect x="228.137" y="44.2441" width="13.8264" height="69.1318" fill="#EFF7FE"/>
<path fill-rule="evenodd" clip-rule="evenodd" d="M221.223 44.2451H207.397V51.1632C201.618 46.8197 194.434 44.2456 186.648 44.2456C167.558 44.2456 152.082 59.7213 152.082 78.8115C152.082 97.9017 167.558 113.377 186.648 113.377C194.434 113.377 201.618 110.803 207.397 106.46V113.377H221.223V44.2451ZM165.908 78.8132C165.908 67.359 175.194 58.0736 186.648 58.0736C198.102 58.0736 207.387 67.359 207.387 78.8132C207.387 90.2673 198.102 99.5527 186.648 99.5527C175.194 99.5527 165.908 90.2673 165.908 78.8132Z" fill="#EFF7FE"/>
<path fill-rule="evenodd" clip-rule="evenodd" d="M69.1345 44.2461H55.3082V51.1592C49.5306 46.8186 42.3487 44.2465 34.5659 44.2465C15.4757 44.2465 0 59.7222 0 78.8124C0 97.9026 15.4757 113.378 34.5659 113.378C42.3487 113.378 49.5306 110.806 55.3082 106.466V113.378H69.1345V44.2461ZM13.8261 78.8135C13.8261 67.3594 23.1115 58.074 34.5656 58.074C46.0198 58.074 55.3052 67.3594 55.3052 78.8135C55.3052 90.2677 46.0198 99.5531 34.5656 99.5531C23.1115 99.5531 13.8261 90.2677 13.8261 78.8135Z" fill="#EFF7FE"/>
<path fill-rule="evenodd" clip-rule="evenodd" d="M248.859 78.813C248.859 59.7228 264.335 44.2471 283.425 44.2471C302.515 44.2471 317.991 59.7221 317.991 78.8118H317.995V113.378H304.169V113.377H304.179V78.8114H304.165C304.163 67.3587 294.878 58.0751 283.425 58.0751C271.972 58.0751 262.687 67.359 262.685 78.8118H262.687V79.0875C262.689 79.2576 262.694 79.4273 262.7 79.5964V106.479C262.696 106.476 262.691 106.473 262.687 106.469V113.378H248.861V79.1362C248.86 79.0286 248.859 78.9208 248.859 78.813ZM283.087 113.377C283.199 113.378 283.312 113.379 283.425 113.379C283.538 113.379 283.651 113.378 283.764 113.377H283.087Z" fill="#EFF7FE"/>
</svg>
