<svg width="370" height="448" viewBox="0 0 370 448" fill="none" xmlns="http://www.w3.org/2000/svg">
<rect width="370" height="448" fill="#EFF7FE"/>
<path d="M72.3811 58.2128C71.1957 58.2128 70.223 57.8784 69.4631 57.2097C68.7032 56.541 68.3232 55.6443 68.3232 54.5196V47.3614H70.4054V54.3525C70.4054 54.9097 70.5624 55.3505 70.8765 55.6747C71.2007 55.9989 71.7023 56.161 72.3811 56.161C73.06 56.161 73.5564 55.9989 73.8705 55.6747C74.1948 55.3505 74.3569 54.9097 74.3569 54.3525V47.3614H76.4542V54.5196C76.4542 55.6443 76.0742 56.541 75.3143 57.2097C74.5544 57.8784 73.5767 58.2128 72.3811 58.2128ZM82.4775 50.1882C83.3083 50.1882 83.9922 50.4668 84.5292 51.0241C85.0764 51.5814 85.3499 52.3514 85.3499 53.3342V58H83.3894V53.5774C83.3894 53.0708 83.2526 52.6857 82.979 52.4223C82.7055 52.1488 82.3407 52.012 81.8848 52.012C81.3782 52.012 80.9729 52.169 80.6689 52.4831C80.365 52.7972 80.213 53.2683 80.213 53.8965V58H78.2524V50.401H80.213V51.2521C80.6892 50.5428 81.444 50.1882 82.4775 50.1882ZM87.024 58V46.9054H88.9845V58H87.024ZM92.4355 55.006C92.699 55.9584 93.4133 56.4346 94.5785 56.4346C95.3282 56.4346 95.8956 56.1813 96.2806 55.6747L97.8612 56.5866C97.1115 57.6707 96.0071 58.2128 94.5481 58.2128C93.2917 58.2128 92.2836 57.8328 91.5237 57.0729C90.7638 56.313 90.3838 55.3555 90.3838 54.2005C90.3838 53.0556 90.7587 52.1032 91.5085 51.3433C92.2582 50.5732 93.2208 50.1882 94.3961 50.1882C95.5106 50.1882 96.4276 50.5732 97.1469 51.3433C97.8764 52.1133 98.2412 53.0657 98.2412 54.2005C98.2412 54.4538 98.2159 54.7223 98.1652 55.006H92.4355ZM92.4051 53.4862H96.2806C96.1692 52.9694 95.9362 52.5844 95.5815 52.3311C95.237 52.0778 94.8419 51.9512 94.3961 51.9512C93.8692 51.9512 93.4335 52.088 93.0891 52.3615C92.7446 52.625 92.5166 52.9998 92.4051 53.4862ZM105.326 50.401H107.286V58H105.326V57.1033C104.738 57.843 103.912 58.2128 102.848 58.2128C101.835 58.2128 100.964 57.8278 100.234 57.0577C99.515 56.2776 99.1553 55.3251 99.1553 54.2005C99.1553 53.0758 99.515 52.1285 100.234 51.3585C100.964 50.5783 101.835 50.1882 102.848 50.1882C103.912 50.1882 104.738 50.558 105.326 51.2977V50.401ZM101.709 55.7507C102.104 56.1458 102.605 56.3434 103.213 56.3434C103.821 56.3434 104.323 56.1458 104.718 55.7507C105.123 55.3454 105.326 54.8287 105.326 54.2005C105.326 53.5723 105.123 53.0606 104.718 52.6655C104.323 52.2602 103.821 52.0576 103.213 52.0576C102.605 52.0576 102.104 52.2602 101.709 52.6655C101.313 53.0606 101.116 53.5723 101.116 54.2005C101.116 54.8287 101.313 55.3454 101.709 55.7507ZM110.813 52.5591C110.813 52.7617 110.945 52.9289 111.208 53.0606C111.482 53.1822 111.811 53.2937 112.196 53.395C112.581 53.4862 112.966 53.6078 113.351 53.7597C113.736 53.9016 114.061 54.1448 114.324 54.4893C114.598 54.8337 114.734 55.2644 114.734 55.7811C114.734 56.5613 114.441 57.1641 113.853 57.5897C113.275 58.0051 112.551 58.2128 111.68 58.2128C110.119 58.2128 109.055 57.6099 108.488 56.4042L110.19 55.4467C110.413 56.1053 110.91 56.4346 111.68 56.4346C112.379 56.4346 112.728 56.2168 112.728 55.7811C112.728 55.5784 112.591 55.4163 112.318 55.2947C112.054 55.163 111.73 55.0465 111.345 54.9452C110.96 54.8439 110.575 54.7172 110.19 54.5652C109.805 54.4133 109.476 54.1752 109.202 53.8509C108.939 53.5166 108.807 53.1012 108.807 52.6047C108.807 51.8549 109.081 51.2673 109.628 50.8417C110.185 50.406 110.874 50.1882 111.695 50.1882C112.313 50.1882 112.875 50.3301 113.382 50.6137C113.888 50.8873 114.289 51.2825 114.582 51.7992L112.911 52.7111C112.667 52.1943 112.262 51.936 111.695 51.936C111.441 51.936 111.229 51.9917 111.056 52.1032C110.894 52.2146 110.813 52.3666 110.813 52.5591ZM120.22 50.1882C121.051 50.1882 121.735 50.4668 122.272 51.0241C122.819 51.5814 123.093 52.3514 123.093 53.3342V58H121.132V53.5774C121.132 53.0708 120.995 52.6857 120.722 52.4223C120.448 52.1488 120.084 52.012 119.628 52.012C119.121 52.012 118.716 52.169 118.412 52.4831C118.108 52.7972 117.956 53.2683 117.956 53.8965V58H115.995V47.3614H117.956V51.2521C118.432 50.5428 119.187 50.1882 120.22 50.1882ZM134.387 50.401H136.302V57.6352C136.302 58.8106 135.912 59.7072 135.132 60.3253C134.362 60.9434 133.43 61.2524 132.335 61.2524C131.515 61.2524 130.79 61.0953 130.162 60.7812C129.544 60.4672 129.068 60.0061 128.733 59.3982L130.405 58.4407C130.79 59.15 131.454 59.5046 132.396 59.5046C133.014 59.5046 133.501 59.3425 133.855 59.0183C134.21 58.694 134.387 58.233 134.387 57.6352V56.8146C133.81 57.5846 132.999 57.9696 131.955 57.9696C130.881 57.9696 129.98 57.5947 129.25 56.8449C128.531 56.085 128.171 55.163 128.171 54.0789C128.171 53.0049 128.536 52.088 129.265 51.3281C129.995 50.5682 130.892 50.1882 131.955 50.1882C132.999 50.1882 133.81 50.5732 134.387 51.3433V50.401ZM130.724 55.5835C131.13 55.9685 131.641 56.161 132.259 56.161C132.877 56.161 133.384 55.9685 133.779 55.5835C134.185 55.1884 134.387 54.6868 134.387 54.0789C134.387 53.4811 134.185 52.9897 133.779 52.6047C133.384 52.2095 132.877 52.012 132.259 52.012C131.641 52.012 131.13 52.2095 130.724 52.6047C130.329 52.9897 130.132 53.4811 130.132 54.0789C130.132 54.6868 130.329 55.1884 130.724 55.5835ZM140.04 51.708C140.223 51.2217 140.522 50.8569 140.937 50.6137C141.363 50.3706 141.834 50.249 142.351 50.249V52.4375C141.753 52.3666 141.216 52.4882 140.74 52.8023C140.273 53.1164 140.04 53.6382 140.04 54.3677V58H138.08V50.401H140.04V51.708ZM149.69 57.0577C148.909 57.8278 147.957 58.2128 146.832 58.2128C145.708 58.2128 144.755 57.8278 143.975 57.0577C143.205 56.2776 142.82 55.3251 142.82 54.2005C142.82 53.0758 143.205 52.1285 143.975 51.3585C144.755 50.5783 145.708 50.1882 146.832 50.1882C147.957 50.1882 148.909 50.5783 149.69 51.3585C150.47 52.1285 150.86 53.0758 150.86 54.2005C150.86 55.3251 150.47 56.2776 149.69 57.0577ZM145.358 55.7051C145.753 56.1002 146.245 56.2978 146.832 56.2978C147.42 56.2978 147.911 56.1002 148.307 55.7051C148.702 55.3099 148.899 54.8084 148.899 54.2005C148.899 53.5926 148.702 53.091 148.307 52.6959C147.911 52.3007 147.42 52.1032 146.832 52.1032C146.245 52.1032 145.753 52.3007 145.358 52.6959C144.973 53.091 144.781 53.5926 144.781 54.2005C144.781 54.8084 144.973 55.3099 145.358 55.7051ZM160.499 50.401H162.581L160.164 58H158.295L156.897 53.395L155.499 58H153.629L151.213 50.401H153.295L154.587 55.0668L155.97 50.401H157.824L159.207 55.082L160.499 50.401ZM167.984 52.2855H166.267V55.4467C166.267 55.7102 166.333 55.9027 166.464 56.0243C166.596 56.1458 166.789 56.2168 167.042 56.237C167.295 56.2472 167.609 56.2421 167.984 56.2218V58C166.637 58.152 165.684 58.0253 165.127 57.62C164.58 57.2148 164.306 56.4903 164.306 55.4467V52.2855H162.984V50.401H164.306V48.866L166.267 48.2732V50.401H167.984V52.2855ZM173.592 50.1882C174.422 50.1882 175.106 50.4668 175.643 51.0241C176.19 51.5814 176.464 52.3514 176.464 53.3342V58H174.503V53.5774C174.503 53.0708 174.367 52.6857 174.093 52.4223C173.82 52.1488 173.455 52.012 172.999 52.012C172.492 52.012 172.087 52.169 171.783 52.4831C171.479 52.7972 171.327 53.2683 171.327 53.8965V58H169.367V47.3614H171.327V51.2521C171.803 50.5428 172.558 50.1882 173.592 50.1882ZM187.713 50.401H189.673V58H187.713V57.1033C187.125 57.843 186.299 58.2128 185.236 58.2128C184.222 58.2128 183.351 57.8278 182.621 57.0577C181.902 56.2776 181.542 55.3251 181.542 54.2005C181.542 53.0758 181.902 52.1285 182.621 51.3585C183.351 50.5783 184.222 50.1882 185.236 50.1882C186.299 50.1882 187.125 50.558 187.713 51.2977V50.401ZM184.096 55.7507C184.491 56.1458 184.992 56.3434 185.6 56.3434C186.208 56.3434 186.71 56.1458 187.105 55.7507C187.51 55.3454 187.713 54.8287 187.713 54.2005C187.713 53.5723 187.51 53.0606 187.105 52.6655C186.71 52.2602 186.208 52.0576 185.6 52.0576C184.992 52.0576 184.491 52.2602 184.096 52.6655C183.701 53.0606 183.503 53.5723 183.503 54.2005C183.503 54.8287 183.701 55.3454 184.096 55.7507ZM197.272 50.401H199.187V57.6352C199.187 58.8106 198.797 59.7072 198.017 60.3253C197.247 60.9434 196.315 61.2524 195.22 61.2524C194.4 61.2524 193.675 61.0953 193.047 60.7812C192.429 60.4672 191.953 60.0061 191.618 59.3982L193.29 58.4407C193.675 59.15 194.339 59.5046 195.281 59.5046C195.899 59.5046 196.385 59.3425 196.74 59.0183C197.095 58.694 197.272 58.233 197.272 57.6352V56.8146C196.695 57.5846 195.884 57.9696 194.84 57.9696C193.766 57.9696 192.865 57.5947 192.135 56.8449C191.416 56.085 191.056 55.163 191.056 54.0789C191.056 53.0049 191.421 52.088 192.15 51.3281C192.88 50.5682 193.776 50.1882 194.84 50.1882C195.884 50.1882 196.695 50.5732 197.272 51.3433V50.401ZM193.609 55.5835C194.015 55.9685 194.526 56.161 195.144 56.161C195.762 56.161 196.269 55.9685 196.664 55.5835C197.069 55.1884 197.272 54.6868 197.272 54.0789C197.272 53.4811 197.069 52.9897 196.664 52.6047C196.269 52.2095 195.762 52.012 195.144 52.012C194.526 52.012 194.015 52.2095 193.609 52.6047C193.214 52.9897 193.017 53.4811 193.017 54.0789C193.017 54.6868 193.214 55.1884 193.609 55.5835ZM206.74 50.401H208.701V58H206.74V57.1033C206.152 57.843 205.327 58.2128 204.263 58.2128C203.25 58.2128 202.378 57.8278 201.649 57.0577C200.929 56.2776 200.57 55.3251 200.57 54.2005C200.57 53.0758 200.929 52.1285 201.649 51.3585C202.378 50.5783 203.25 50.1882 204.263 50.1882C205.327 50.1882 206.152 50.558 206.74 51.2977V50.401ZM203.123 55.7507C203.518 56.1458 204.02 56.3434 204.628 56.3434C205.235 56.3434 205.737 56.1458 206.132 55.7507C206.537 55.3454 206.74 54.8287 206.74 54.2005C206.74 53.5723 206.537 53.0606 206.132 52.6655C205.737 52.2602 205.235 52.0576 204.628 52.0576C204.02 52.0576 203.518 52.2602 203.123 52.6655C202.728 53.0606 202.53 53.5723 202.53 54.2005C202.53 54.8287 202.728 55.3454 203.123 55.7507ZM211.451 49.4891C211.127 49.4891 210.843 49.3726 210.6 49.1395C210.367 48.8964 210.25 48.6127 210.25 48.2884C210.25 47.9642 210.367 47.6805 210.6 47.4374C210.843 47.1942 211.127 47.0726 211.451 47.0726C211.785 47.0726 212.069 47.1942 212.302 47.4374C212.545 47.6805 212.667 47.9642 212.667 48.2884C212.667 48.6127 212.545 48.8964 212.302 49.1395C212.069 49.3726 211.785 49.4891 211.451 49.4891ZM210.478 58V50.401H212.439V58H210.478ZM218.458 50.1882C219.289 50.1882 219.973 50.4668 220.51 51.0241C221.057 51.5814 221.331 52.3514 221.331 53.3342V58H219.37V53.5774C219.37 53.0708 219.234 52.6857 218.96 52.4223C218.686 52.1488 218.322 52.012 217.866 52.012C217.359 52.012 216.954 52.169 216.65 52.4831C216.346 52.7972 216.194 53.2683 216.194 53.8965V58H214.233V50.401H216.194V51.2521C216.67 50.5428 217.425 50.1882 218.458 50.1882ZM232.58 50.401H234.54V58H232.58V57.1033C231.992 57.843 231.166 58.2128 230.102 58.2128C229.089 58.2128 228.218 57.8278 227.488 57.0577C226.769 56.2776 226.409 55.3251 226.409 54.2005C226.409 53.0758 226.769 52.1285 227.488 51.3585C228.218 50.5783 229.089 50.1882 230.102 50.1882C231.166 50.1882 231.992 50.558 232.58 51.2977V50.401ZM228.963 55.7507C229.358 56.1458 229.859 56.3434 230.467 56.3434C231.075 56.3434 231.577 56.1458 231.972 55.7507C232.377 55.3454 232.58 54.8287 232.58 54.2005C232.58 53.5723 232.377 53.0606 231.972 52.6655C231.577 52.2602 231.075 52.0576 230.467 52.0576C229.859 52.0576 229.358 52.2602 228.963 52.6655C228.567 53.0606 228.37 53.5723 228.37 54.2005C228.37 54.8287 228.567 55.3454 228.963 55.7507ZM240.543 50.1882C241.374 50.1882 242.058 50.4668 242.595 51.0241C243.142 51.5814 243.416 52.3514 243.416 53.3342V58H241.455V53.5774C241.455 53.0708 241.318 52.6857 241.045 52.4223C240.771 52.1488 240.406 52.012 239.95 52.012C239.444 52.012 239.039 52.169 238.735 52.4831C238.431 52.7972 238.279 53.2683 238.279 53.8965V58H236.318V50.401H238.279V51.2521C238.755 50.5428 239.51 50.1882 240.543 50.1882ZM250.85 47.3614H252.81V58H250.85V57.1033C250.272 57.843 249.451 58.2128 248.388 58.2128C247.364 58.2128 246.488 57.8278 245.758 57.0577C245.039 56.2776 244.679 55.3251 244.679 54.2005C244.679 53.0758 245.039 52.1285 245.758 51.3585C246.488 50.5783 247.364 50.1882 248.388 50.1882C249.451 50.1882 250.272 50.558 250.85 51.2977V47.3614ZM247.233 55.7507C247.638 56.1458 248.144 56.3434 248.752 56.3434C249.36 56.3434 249.862 56.1458 250.257 55.7507C250.652 55.3454 250.85 54.8287 250.85 54.2005C250.85 53.5723 250.652 53.0606 250.257 52.6655C249.862 52.2602 249.36 52.0576 248.752 52.0576C248.144 52.0576 247.638 52.2602 247.233 52.6655C246.837 53.0606 246.64 53.5723 246.64 54.2005C246.64 54.8287 246.837 55.3454 247.233 55.7507ZM264.178 50.401H266.139V58H264.178V57.1033C263.59 57.843 262.765 58.2128 261.701 58.2128C260.688 58.2128 259.816 57.8278 259.087 57.0577C258.367 56.2776 258.008 55.3251 258.008 54.2005C258.008 53.0758 258.367 52.1285 259.087 51.3585C259.816 50.5783 260.688 50.1882 261.701 50.1882C262.765 50.1882 263.59 50.558 264.178 51.2977V50.401ZM260.561 55.7507C260.956 56.1458 261.458 56.3434 262.065 56.3434C262.673 56.3434 263.175 56.1458 263.57 55.7507C263.975 55.3454 264.178 54.8287 264.178 54.2005C264.178 53.5723 263.975 53.0606 263.57 52.6655C263.175 52.2602 262.673 52.0576 262.065 52.0576C261.458 52.0576 260.956 52.2602 260.561 52.6655C260.166 53.0606 259.968 53.5723 259.968 54.2005C259.968 54.8287 260.166 55.3454 260.561 55.7507ZM273.737 50.401H275.652V57.6352C275.652 58.8106 275.262 59.7072 274.482 60.3253C273.712 60.9434 272.78 61.2524 271.685 61.2524C270.865 61.2524 270.14 61.0953 269.512 60.7812C268.894 60.4672 268.418 60.0061 268.084 59.3982L269.755 58.4407C270.14 59.15 270.804 59.5046 271.746 59.5046C272.364 59.5046 272.851 59.3425 273.205 59.0183C273.56 58.694 273.737 58.233 273.737 57.6352V56.8146C273.16 57.5846 272.349 57.9696 271.306 57.9696C270.232 57.9696 269.33 57.5947 268.6 56.8449C267.881 56.085 267.521 55.163 267.521 54.0789C267.521 53.0049 267.886 52.088 268.615 51.3281C269.345 50.5682 270.242 50.1882 271.306 50.1882C272.349 50.1882 273.16 50.5732 273.737 51.3433V50.401ZM270.074 55.5835C270.48 55.9685 270.991 56.161 271.609 56.161C272.228 56.161 272.734 55.9685 273.129 55.5835C273.535 55.1884 273.737 54.6868 273.737 54.0789C273.737 53.4811 273.535 52.9897 273.129 52.6047C272.734 52.2095 272.228 52.012 271.609 52.012C270.991 52.012 270.48 52.2095 270.074 52.6047C269.679 52.9897 269.482 53.4811 269.482 54.0789C269.482 54.6868 269.679 55.1884 270.074 55.5835ZM283.205 50.401H285.166V58H283.205V57.1033C282.618 57.843 281.792 58.2128 280.728 58.2128C279.715 58.2128 278.843 57.8278 278.114 57.0577C277.395 56.2776 277.035 55.3251 277.035 54.2005C277.035 53.0758 277.395 52.1285 278.114 51.3585C278.843 50.5783 279.715 50.1882 280.728 50.1882C281.792 50.1882 282.618 50.558 283.205 51.2977V50.401ZM279.588 55.7507C279.983 56.1458 280.485 56.3434 281.093 56.3434C281.701 56.3434 282.202 56.1458 282.597 55.7507C283.003 55.3454 283.205 54.8287 283.205 54.2005C283.205 53.5723 283.003 53.0606 282.597 52.6655C282.202 52.2602 281.701 52.0576 281.093 52.0576C280.485 52.0576 279.983 52.2602 279.588 52.6655C279.193 53.0606 278.995 53.5723 278.995 54.2005C278.995 54.8287 279.193 55.3454 279.588 55.7507ZM287.916 49.4891C287.592 49.4891 287.308 49.3726 287.065 49.1395C286.832 48.8964 286.716 48.6127 286.716 48.2884C286.716 47.9642 286.832 47.6805 287.065 47.4374C287.308 47.1942 287.592 47.0726 287.916 47.0726C288.251 47.0726 288.534 47.1942 288.767 47.4374C289.011 47.6805 289.132 47.9642 289.132 48.2884C289.132 48.6127 289.011 48.8964 288.767 49.1395C288.534 49.3726 288.251 49.4891 287.916 49.4891ZM286.944 58V50.401H288.904V58H286.944ZM294.924 50.1882C295.754 50.1882 296.438 50.4668 296.975 51.0241C297.523 51.5814 297.796 52.3514 297.796 53.3342V58H295.836V53.5774C295.836 53.0708 295.699 52.6857 295.425 52.4223C295.152 52.1488 294.787 52.012 294.331 52.012C293.824 52.012 293.419 52.169 293.115 52.4831C292.811 52.7972 292.659 53.2683 292.659 53.8965V58H290.699V50.401H292.659V51.2521C293.135 50.5428 293.89 50.1882 294.924 50.1882Z" fill="#B0BCCC"/>
<circle cx="183.527" cy="349.785" r="59.89" fill="#E86DBD"/>
<path d="M158.302 346.864C157.331 346.864 156.514 346.649 155.851 346.22C155.188 345.781 154.722 345.188 154.451 344.441L156.103 343.475C156.486 344.474 157.237 344.974 158.358 344.974C158.899 344.974 159.296 344.876 159.548 344.68C159.8 344.483 159.926 344.236 159.926 343.937C159.926 343.592 159.772 343.326 159.464 343.139C159.156 342.943 158.605 342.733 157.812 342.509C157.373 342.378 156.999 342.248 156.691 342.117C156.393 341.986 156.089 341.814 155.781 341.599C155.482 341.375 155.254 341.095 155.095 340.759C154.936 340.423 154.857 340.03 154.857 339.582C154.857 338.695 155.17 337.991 155.795 337.468C156.43 336.936 157.191 336.67 158.078 336.67C158.871 336.67 159.567 336.866 160.164 337.258C160.771 337.641 161.242 338.177 161.578 338.868L159.954 339.806C159.562 338.966 158.937 338.546 158.078 338.546C157.676 338.546 157.359 338.639 157.125 338.826C156.901 339.004 156.789 339.237 156.789 339.526C156.789 339.834 156.915 340.086 157.167 340.282C157.429 340.469 157.924 340.675 158.652 340.899C158.951 340.992 159.175 341.067 159.324 341.123C159.483 341.169 159.693 341.249 159.954 341.361C160.225 341.463 160.43 341.561 160.57 341.655C160.72 341.748 160.888 341.874 161.074 342.033C161.261 342.192 161.401 342.355 161.494 342.523C161.597 342.691 161.681 342.896 161.746 343.139C161.821 343.373 161.859 343.629 161.859 343.909C161.859 344.815 161.527 345.534 160.864 346.066C160.211 346.598 159.357 346.864 158.302 346.864ZM166.835 341.403H165.252V344.315C165.252 344.558 165.313 344.736 165.434 344.848C165.556 344.96 165.733 345.025 165.966 345.044C166.2 345.053 166.489 345.048 166.835 345.03V346.668C165.593 346.808 164.716 346.691 164.202 346.318C163.698 345.944 163.446 345.277 163.446 344.315V341.403H162.228V339.666H163.446V338.252L165.252 337.706V339.666H166.835V341.403ZM170.024 340.871C170.192 340.423 170.468 340.086 170.85 339.862C171.242 339.638 171.677 339.526 172.153 339.526V341.543C171.602 341.477 171.107 341.589 170.668 341.879C170.239 342.168 170.024 342.649 170.024 343.321V346.668H168.218V339.666H170.024V340.871ZM178.271 339.666H180.077V346.668H178.271V345.842C177.729 346.523 176.968 346.864 175.988 346.864C175.054 346.864 174.252 346.509 173.579 345.8C172.917 345.081 172.585 344.203 172.585 343.167C172.585 342.131 172.917 341.258 173.579 340.549C174.252 339.83 175.054 339.47 175.988 339.47C176.968 339.47 177.729 339.811 178.271 340.493V339.666ZM174.938 344.595C175.302 344.96 175.764 345.142 176.324 345.142C176.884 345.142 177.346 344.96 177.71 344.595C178.084 344.222 178.271 343.746 178.271 343.167C178.271 342.588 178.084 342.117 177.71 341.753C177.346 341.379 176.884 341.193 176.324 341.193C175.764 341.193 175.302 341.379 174.938 341.753C174.574 342.117 174.392 342.588 174.392 343.167C174.392 343.746 174.574 344.222 174.938 344.595ZM185.72 341.403H184.138V344.315C184.138 344.558 184.198 344.736 184.32 344.848C184.441 344.96 184.618 345.025 184.852 345.044C185.085 345.053 185.375 345.048 185.72 345.03V346.668C184.478 346.808 183.601 346.691 183.087 346.318C182.583 345.944 182.331 345.277 182.331 344.315V341.403H181.113V339.666H182.331V338.252L184.138 337.706V339.666H185.72V341.403ZM188.301 343.909C188.544 344.787 189.202 345.226 190.276 345.226C190.966 345.226 191.489 344.992 191.844 344.525L193.3 345.366C192.609 346.365 191.592 346.864 190.248 346.864C189.09 346.864 188.161 346.514 187.461 345.814C186.761 345.114 186.411 344.231 186.411 343.167C186.411 342.112 186.756 341.235 187.447 340.535C188.138 339.825 189.025 339.47 190.108 339.47C191.134 339.47 191.979 339.825 192.642 340.535C193.314 341.244 193.65 342.122 193.65 343.167C193.65 343.401 193.627 343.648 193.58 343.909H188.301ZM188.273 342.509H191.844C191.741 342.033 191.527 341.678 191.2 341.445C190.882 341.211 190.518 341.095 190.108 341.095C189.622 341.095 189.221 341.221 188.903 341.473C188.586 341.715 188.376 342.061 188.273 342.509ZM200.22 339.666H201.984V346.332C201.984 347.415 201.625 348.241 200.906 348.81C200.197 349.38 199.338 349.665 198.33 349.665C197.573 349.665 196.906 349.52 196.327 349.231C195.758 348.941 195.319 348.516 195.011 347.956L196.551 347.074C196.906 347.728 197.517 348.054 198.386 348.054C198.955 348.054 199.403 347.905 199.73 347.606C200.057 347.307 200.22 346.883 200.22 346.332V345.576C199.688 346.285 198.941 346.64 197.979 346.64C196.99 346.64 196.159 346.295 195.487 345.604C194.824 344.904 194.493 344.054 194.493 343.055C194.493 342.066 194.829 341.221 195.501 340.521C196.173 339.82 196.999 339.47 197.979 339.47C198.941 339.47 199.688 339.825 200.22 340.535V339.666ZM196.845 344.441C197.219 344.796 197.69 344.974 198.26 344.974C198.829 344.974 199.296 344.796 199.66 344.441C200.033 344.077 200.22 343.615 200.22 343.055C200.22 342.504 200.033 342.052 199.66 341.697C199.296 341.333 198.829 341.151 198.26 341.151C197.69 341.151 197.219 341.333 196.845 341.697C196.481 342.052 196.299 342.504 196.299 343.055C196.299 343.615 196.481 344.077 196.845 344.441ZM208.187 339.666H210.12L207.571 346.668C207.207 347.676 206.722 348.404 206.115 348.852C205.518 349.31 204.771 349.515 203.874 349.469V347.788C204.36 347.798 204.743 347.695 205.023 347.48C205.312 347.265 205.541 346.92 205.709 346.444L202.838 339.666H204.813L206.633 344.371L208.187 339.666ZM177.746 366.108L176.205 366.99L175.309 366.024C174.553 366.584 173.675 366.864 172.676 366.864C171.668 366.864 170.842 366.603 170.198 366.08C169.563 365.548 169.246 364.838 169.246 363.951C169.246 363.373 169.386 362.836 169.666 362.341C169.946 361.846 170.352 361.445 170.884 361.137C170.567 360.633 170.408 360.086 170.408 359.498C170.408 358.667 170.697 357.991 171.276 357.468C171.855 356.936 172.588 356.67 173.475 356.67C174.175 356.67 174.8 356.852 175.351 357.216C175.911 357.571 176.327 358.089 176.597 358.77L174.945 359.722C174.674 358.938 174.193 358.546 173.503 358.546C173.167 358.546 172.886 358.644 172.662 358.84C172.448 359.036 172.34 359.284 172.34 359.582C172.34 359.844 172.401 360.082 172.522 360.296C172.653 360.511 172.858 360.768 173.139 361.067L175.239 363.363C175.444 362.924 175.603 362.383 175.715 361.739L177.339 362.663C177.162 363.419 176.877 364.105 176.485 364.722L177.746 366.108ZM172.802 365.086C173.288 365.086 173.722 364.969 174.105 364.736L171.99 362.439C171.972 362.42 171.962 362.406 171.962 362.397C171.449 362.714 171.192 363.167 171.192 363.755C171.192 364.157 171.327 364.479 171.598 364.722C171.878 364.964 172.28 365.086 172.802 365.086ZM186.103 366.864C185.011 366.864 184.115 366.556 183.415 365.94C182.715 365.324 182.365 364.497 182.365 363.461V356.866H184.283V363.307C184.283 363.821 184.428 364.227 184.717 364.525C185.016 364.824 185.478 364.974 186.103 364.974C186.729 364.974 187.186 364.824 187.476 364.525C187.774 364.227 187.924 363.821 187.924 363.307V356.866H189.856V363.461C189.856 364.497 189.506 365.324 188.806 365.94C188.106 366.556 187.205 366.864 186.103 366.864ZM198.91 366.668H196.712L194.808 363.475L192.903 366.668H190.719L193.715 361.641L190.873 356.866H193.057L194.808 359.806L196.558 356.866H198.742L195.9 361.627L198.91 366.668Z" fill="white"/>
<circle cx="273.109" cy="255.109" r="59.89" fill="#72D798"/>
<path d="M239.879 249.261H244.01V251.109H237.947V241.307H243.94V243.156H239.879V245.242H243.59V247.062H239.879V249.261ZM251.744 251.109H249.657L248.145 248.981L246.618 251.109H244.532L247.095 247.539L244.644 244.108H246.73L248.145 246.082L249.559 244.108H251.632L249.181 247.525L251.744 251.109ZM256.72 243.912C257.663 243.912 258.466 244.271 259.129 244.99C259.801 245.699 260.137 246.572 260.137 247.609C260.137 248.645 259.801 249.522 259.129 250.241C258.466 250.951 257.663 251.305 256.72 251.305C255.74 251.305 254.984 250.965 254.452 250.283V253.91H252.645V244.108H254.452V244.934C254.984 244.252 255.74 243.912 256.72 243.912ZM254.998 249.037C255.362 249.401 255.824 249.583 256.384 249.583C256.944 249.583 257.406 249.401 257.77 249.037C258.144 248.663 258.331 248.187 258.331 247.609C258.331 247.03 258.144 246.558 257.77 246.194C257.406 245.821 256.944 245.634 256.384 245.634C255.824 245.634 255.362 245.821 254.998 246.194C254.634 246.558 254.452 247.03 254.452 247.609C254.452 248.187 254.634 248.663 254.998 249.037ZM262.937 248.351C263.18 249.228 263.838 249.667 264.912 249.667C265.603 249.667 266.125 249.434 266.48 248.967L267.936 249.807C267.246 250.806 266.228 251.305 264.884 251.305C263.726 251.305 262.797 250.955 262.097 250.255C261.397 249.555 261.047 248.673 261.047 247.609C261.047 246.554 261.392 245.676 262.083 244.976C262.774 244.266 263.661 243.912 264.744 243.912C265.771 243.912 266.616 244.266 267.278 244.976C267.95 245.685 268.287 246.563 268.287 247.609C268.287 247.842 268.263 248.089 268.217 248.351H262.937ZM262.909 246.95H266.48C266.377 246.474 266.163 246.12 265.836 245.886C265.519 245.653 265.155 245.536 264.744 245.536C264.258 245.536 263.857 245.662 263.539 245.914C263.222 246.157 263.012 246.502 262.909 246.95ZM271.354 245.312C271.522 244.864 271.797 244.528 272.18 244.304C272.572 244.08 273.006 243.968 273.483 243.968V245.984C272.932 245.919 272.437 246.031 271.998 246.32C271.569 246.61 271.354 247.09 271.354 247.763V251.109H269.548V244.108H271.354V245.312ZM275.435 243.268C275.136 243.268 274.875 243.16 274.651 242.945C274.436 242.721 274.329 242.46 274.329 242.161C274.329 241.863 274.436 241.601 274.651 241.377C274.875 241.153 275.136 241.041 275.435 241.041C275.743 241.041 276.005 241.153 276.219 241.377C276.443 241.601 276.555 241.863 276.555 242.161C276.555 242.46 276.443 242.721 276.219 242.945C276.005 243.16 275.743 243.268 275.435 243.268ZM274.539 251.109V244.108H276.345V251.109H274.539ZM285.743 243.912C286.545 243.912 287.185 244.173 287.661 244.696C288.146 245.219 288.389 245.919 288.389 246.796V251.109H286.583V246.922C286.583 246.502 286.48 246.176 286.275 245.942C286.069 245.709 285.78 245.592 285.407 245.592C284.996 245.592 284.674 245.727 284.44 245.998C284.216 246.269 284.104 246.661 284.104 247.174V251.109H282.298V246.922C282.298 246.502 282.195 246.176 281.99 245.942C281.784 245.709 281.495 245.592 281.122 245.592C280.72 245.592 280.398 245.727 280.155 245.998C279.922 246.269 279.805 246.661 279.805 247.174V251.109H277.999V244.108H279.805V244.85C280.225 244.224 280.874 243.912 281.752 243.912C282.611 243.912 283.245 244.248 283.656 244.92C284.123 244.248 284.818 243.912 285.743 243.912ZM291.45 248.351C291.693 249.228 292.351 249.667 293.424 249.667C294.115 249.667 294.638 249.434 294.993 248.967L296.449 249.807C295.758 250.806 294.741 251.305 293.396 251.305C292.239 251.305 291.31 250.955 290.61 250.255C289.909 249.555 289.559 248.673 289.559 247.609C289.559 246.554 289.905 245.676 290.596 244.976C291.286 244.266 292.173 243.912 293.256 243.912C294.283 243.912 295.128 244.266 295.791 244.976C296.463 245.685 296.799 246.563 296.799 247.609C296.799 247.842 296.776 248.089 296.729 248.351H291.45ZM291.422 246.95H294.993C294.89 246.474 294.675 246.12 294.348 245.886C294.031 245.653 293.667 245.536 293.256 245.536C292.771 245.536 292.369 245.662 292.052 245.914C291.735 246.157 291.524 246.502 291.422 246.95ZM301.953 243.912C302.718 243.912 303.349 244.168 303.843 244.682C304.348 245.195 304.6 245.905 304.6 246.81V251.109H302.793V247.034C302.793 246.568 302.667 246.213 302.415 245.97C302.163 245.718 301.827 245.592 301.407 245.592C300.94 245.592 300.567 245.737 300.287 246.026C300.007 246.316 299.867 246.75 299.867 247.328V251.109H298.06V244.108H299.867V244.892C300.305 244.238 301.001 243.912 301.953 243.912ZM310.147 245.844H308.565V248.757C308.565 249 308.625 249.177 308.747 249.289C308.868 249.401 309.045 249.466 309.279 249.485C309.512 249.494 309.802 249.49 310.147 249.471V251.109C308.905 251.249 308.028 251.133 307.514 250.759C307.01 250.386 306.758 249.718 306.758 248.757V245.844H305.54V244.108H306.758V242.693L308.565 242.147V244.108H310.147V245.844ZM258.262 270.549L256.722 271.431L255.825 270.465C255.069 271.025 254.192 271.305 253.193 271.305C252.185 271.305 251.358 271.044 250.714 270.521C250.079 269.989 249.762 269.28 249.762 268.393C249.762 267.814 249.902 267.277 250.182 266.782C250.462 266.288 250.868 265.886 251.4 265.578C251.083 265.074 250.924 264.528 250.924 263.94C250.924 263.109 251.214 262.432 251.793 261.909C252.371 261.377 253.104 261.111 253.991 261.111C254.691 261.111 255.317 261.293 255.867 261.657C256.428 262.012 256.843 262.53 257.114 263.212L255.461 264.164C255.191 263.38 254.71 262.987 254.019 262.987C253.683 262.987 253.403 263.086 253.179 263.282C252.964 263.478 252.857 263.725 252.857 264.024C252.857 264.285 252.917 264.523 253.039 264.738C253.17 264.953 253.375 265.209 253.655 265.508L255.755 267.805C255.961 267.366 256.12 266.824 256.232 266.18L257.856 267.104C257.679 267.861 257.394 268.547 257.002 269.163L258.262 270.549ZM253.319 269.527C253.804 269.527 254.238 269.41 254.621 269.177L252.507 266.88C252.488 266.862 252.479 266.848 252.479 266.838C251.965 267.156 251.709 267.609 251.709 268.197C251.709 268.598 251.844 268.92 252.115 269.163C252.395 269.406 252.796 269.527 253.319 269.527ZM264.898 269.261H268.636V271.109H262.965V261.307H264.898V269.261ZM271.04 268.351C271.283 269.228 271.941 269.667 273.014 269.667C273.705 269.667 274.228 269.434 274.583 268.967L276.039 269.807C275.348 270.806 274.331 271.305 272.986 271.305C271.829 271.305 270.9 270.955 270.2 270.255C269.499 269.555 269.149 268.673 269.149 267.609C269.149 266.554 269.495 265.676 270.186 264.976C270.876 264.266 271.763 263.912 272.846 263.912C273.873 263.912 274.718 264.266 275.381 264.976C276.053 265.685 276.389 266.563 276.389 267.609C276.389 267.842 276.366 268.089 276.319 268.351H271.04ZM271.012 266.95H274.583C274.48 266.474 274.265 266.12 273.938 265.886C273.621 265.653 273.257 265.536 272.846 265.536C272.361 265.536 271.959 265.662 271.642 265.914C271.325 266.157 271.114 266.502 271.012 266.95ZM282.917 264.108H284.723V271.109H282.917V270.283C282.375 270.965 281.614 271.305 280.634 271.305C279.701 271.305 278.898 270.951 278.226 270.241C277.563 269.522 277.231 268.645 277.231 267.609C277.231 266.572 277.563 265.699 278.226 264.99C278.898 264.271 279.701 263.912 280.634 263.912C281.614 263.912 282.375 264.252 282.917 264.934V264.108ZM279.584 269.037C279.948 269.401 280.41 269.583 280.97 269.583C281.53 269.583 281.992 269.401 282.356 269.037C282.73 268.663 282.917 268.187 282.917 267.609C282.917 267.03 282.73 266.558 282.356 266.194C281.992 265.821 281.53 265.634 280.97 265.634C280.41 265.634 279.948 265.821 279.584 266.194C279.22 266.558 279.038 267.03 279.038 267.609C279.038 268.187 279.22 268.663 279.584 269.037ZM288.167 265.312C288.336 264.864 288.611 264.528 288.994 264.304C289.386 264.08 289.82 263.968 290.296 263.968V265.984C289.745 265.919 289.25 266.031 288.812 266.32C288.382 266.61 288.167 267.09 288.167 267.763V271.109H286.361V264.108H288.167V265.312ZM295.245 263.912C296.011 263.912 296.641 264.168 297.136 264.682C297.64 265.195 297.892 265.905 297.892 266.81V271.109H296.086V267.034C296.086 266.568 295.96 266.213 295.707 265.97C295.455 265.718 295.119 265.592 294.699 265.592C294.232 265.592 293.859 265.737 293.579 266.026C293.299 266.316 293.159 266.75 293.159 267.328V271.109H291.352V264.108H293.159V264.892C293.598 264.238 294.293 263.912 295.245 263.912Z" fill="white"/>
<circle cx="93.89" cy="255.109" r="59.89" fill="#6361B5"/>
<path d="M75.1539 247.044C73.6788 247.044 72.4606 246.554 71.499 245.573C70.5375 244.593 70.0567 243.384 70.0567 241.947C70.0567 240.5 70.5375 239.291 71.499 238.32C72.4606 237.339 73.6788 236.849 75.1539 236.849C76.0407 236.849 76.8576 237.059 77.6044 237.479C78.3606 237.89 78.9487 238.45 79.3688 239.16L77.7024 240.126C77.4597 239.687 77.1143 239.347 76.6662 239.104C76.2181 238.852 75.714 238.726 75.1539 238.726C74.2016 238.726 73.4315 239.025 72.8433 239.622C72.2645 240.219 71.9751 240.994 71.9751 241.947C71.9751 242.889 72.2645 243.66 72.8433 244.257C73.4315 244.855 74.2016 245.153 75.1539 245.153C75.714 245.153 76.2181 245.032 76.6662 244.789C77.1236 244.537 77.4691 244.196 77.7024 243.767L79.3688 244.733C78.9487 245.443 78.3653 246.007 77.6184 246.428C76.8716 246.838 76.0501 247.044 75.1539 247.044ZM82.3877 241.05C82.5558 240.602 82.8312 240.266 83.2139 240.042C83.606 239.818 84.0401 239.706 84.5162 239.706V241.722C83.9654 241.657 83.4707 241.769 83.0319 242.059C82.6024 242.348 82.3877 242.829 82.3877 243.501V246.848H80.5813V239.846H82.3877V241.05ZM86.8392 244.089C87.082 244.967 87.7401 245.405 88.8137 245.405C89.5045 245.405 90.0273 245.172 90.3821 244.705L91.8384 245.545C91.1476 246.544 90.13 247.044 88.7857 247.044C87.6281 247.044 86.6992 246.694 85.999 245.993C85.2989 245.293 84.9488 244.411 84.9488 243.347C84.9488 242.292 85.2942 241.414 85.985 240.714C86.6759 240.005 87.5627 239.65 88.6457 239.65C89.6726 239.65 90.5174 240.005 91.1802 240.714C91.8524 241.424 92.1885 242.301 92.1885 243.347C92.1885 243.58 92.1651 243.828 92.1185 244.089H86.8392ZM86.8112 242.689H90.3821C90.2794 242.213 90.0646 241.858 89.7379 241.624C89.4205 241.391 89.0564 241.274 88.6457 241.274C88.1602 241.274 87.7588 241.4 87.4414 241.652C87.124 241.895 86.9139 242.241 86.8112 242.689ZM98.7161 239.846H100.522V246.848H98.7161V246.021C98.1746 246.703 97.4138 247.044 96.4335 247.044C95.5 247.044 94.6971 246.689 94.025 245.979C93.3622 245.261 93.0307 244.383 93.0307 243.347C93.0307 242.311 93.3622 241.438 94.025 240.728C94.6971 240.009 95.5 239.65 96.4335 239.65C97.4138 239.65 98.1746 239.991 98.7161 240.672V239.846ZM95.3833 244.775C95.7474 245.139 96.2095 245.321 96.7696 245.321C97.3297 245.321 97.7918 245.139 98.1559 244.775C98.5294 244.402 98.7161 243.926 98.7161 243.347C98.7161 242.768 98.5294 242.297 98.1559 241.933C97.7918 241.559 97.3297 241.372 96.7696 241.372C96.2095 241.372 95.7474 241.559 95.3833 241.933C95.0192 242.297 94.8372 242.768 94.8372 243.347C94.8372 243.926 95.0192 244.402 95.3833 244.775ZM106.165 241.582H104.583V244.495C104.583 244.738 104.644 244.915 104.765 245.027C104.886 245.139 105.064 245.205 105.297 245.223C105.531 245.233 105.82 245.228 106.165 245.209V246.848C104.924 246.988 104.046 246.871 103.533 246.498C103.029 246.124 102.777 245.457 102.777 244.495V241.582H101.558V239.846H102.777V238.432L104.583 237.886V239.846H106.165V241.582ZM108.747 244.089C108.989 244.967 109.648 245.405 110.721 245.405C111.412 245.405 111.935 245.172 112.289 244.705L113.746 245.545C113.055 246.544 112.037 247.044 110.693 247.044C109.535 247.044 108.607 246.694 107.906 245.993C107.206 245.293 106.856 244.411 106.856 243.347C106.856 242.292 107.202 241.414 107.892 240.714C108.583 240.005 109.47 239.65 110.553 239.65C111.58 239.65 112.425 240.005 113.088 240.714C113.76 241.424 114.096 242.301 114.096 243.347C114.096 243.58 114.073 243.828 114.026 244.089H108.747ZM108.719 242.689H112.289C112.187 242.213 111.972 241.858 111.645 241.624C111.328 241.391 110.964 241.274 110.553 241.274C110.068 241.274 109.666 241.4 109.349 241.652C109.031 241.895 108.821 242.241 108.719 242.689ZM80.2836 266.288L78.7433 267.17L77.8471 266.204C77.0909 266.764 76.2134 267.044 75.2145 267.044C74.2062 267.044 73.38 266.782 72.7359 266.26C72.1011 265.727 71.7837 265.018 71.7837 264.131C71.7837 263.552 71.9237 263.015 72.2038 262.521C72.4838 262.026 72.8899 261.624 73.422 261.316C73.1046 260.812 72.9459 260.266 72.9459 259.678C72.9459 258.847 73.2353 258.17 73.8141 257.648C74.3929 257.115 75.1258 256.849 76.0126 256.849C76.7128 256.849 77.3383 257.031 77.8891 257.395C78.4492 257.75 78.8646 258.268 79.1354 258.95L77.483 259.902C77.2123 259.118 76.7315 258.726 76.0407 258.726C75.7046 258.726 75.4245 258.824 75.2005 259.02C74.9857 259.216 74.8784 259.463 74.8784 259.762C74.8784 260.023 74.9391 260.261 75.0604 260.476C75.1911 260.691 75.3965 260.948 75.6766 261.246L77.7771 263.543C77.9824 263.104 78.1411 262.563 78.2532 261.919L79.8775 262.843C79.7002 263.599 79.4154 264.285 79.0233 264.901L80.2836 266.288ZM75.3405 265.265C75.8259 265.265 76.26 265.149 76.6428 264.915L74.5283 262.619C74.5096 262.6 74.5003 262.586 74.5003 262.577C73.9868 262.894 73.7301 263.347 73.7301 263.935C73.7301 264.336 73.8655 264.658 74.1362 264.901C74.4163 265.144 74.8177 265.265 75.3405 265.265ZM90.91 261.764C91.7689 262.259 92.1983 263.006 92.1983 264.005C92.1983 264.836 91.9042 265.517 91.3161 266.049C90.728 266.582 90.0045 266.848 89.1456 266.848H84.9866L84.9866 257.045H88.8515C89.6917 257.045 90.3966 257.307 90.966 257.83C91.5448 258.343 91.8342 259.001 91.8342 259.804C91.8342 260.616 91.5262 261.27 90.91 261.764ZM88.8515 258.852H86.9191V261.008H88.8515C89.1503 261.008 89.3977 260.906 89.5937 260.7C89.7991 260.495 89.9018 260.238 89.9018 259.93C89.9018 259.622 89.8038 259.365 89.6077 259.16C89.4117 258.954 89.1596 258.852 88.8515 258.852ZM89.1456 265.041C89.4724 265.041 89.7431 264.934 89.9578 264.719C90.1725 264.495 90.2799 264.215 90.2799 263.879C90.2799 263.552 90.1725 263.281 89.9578 263.067C89.7431 262.843 89.4724 262.731 89.1456 262.731H86.9191V265.041H89.1456ZM98.1526 259.846H99.9591V266.848H98.1526V266.063C97.7139 266.717 97.0184 267.044 96.0662 267.044C95.3007 267.044 94.6658 266.787 94.1617 266.274C93.6669 265.76 93.4196 265.051 93.4196 264.145V259.846H95.226V263.921C95.226 264.388 95.352 264.747 95.6041 264.999C95.8561 265.242 96.1922 265.363 96.6123 265.363C97.0791 265.363 97.4525 265.219 97.7326 264.929C98.0126 264.64 98.1526 264.206 98.1526 263.627V259.846ZM102.51 259.006C102.211 259.006 101.95 258.898 101.726 258.684C101.511 258.46 101.403 258.198 101.403 257.9C101.403 257.601 101.511 257.339 101.726 257.115C101.95 256.891 102.211 256.779 102.51 256.779C102.818 256.779 103.079 256.891 103.294 257.115C103.518 257.339 103.63 257.601 103.63 257.9C103.63 258.198 103.518 258.46 103.294 258.684C103.079 258.898 102.818 259.006 102.51 259.006ZM101.614 266.848V259.846H103.42V266.848H101.614ZM105.073 266.848V256.625H106.88V266.848H105.073ZM113.84 257.045H115.647V266.848H113.84V266.021C113.308 266.703 112.552 267.044 111.572 267.044C110.629 267.044 109.821 266.689 109.149 265.979C108.486 265.261 108.155 264.383 108.155 263.347C108.155 262.311 108.486 261.438 109.149 260.728C109.821 260.009 110.629 259.65 111.572 259.65C112.552 259.65 113.308 259.991 113.84 260.672V257.045ZM110.508 264.775C110.881 265.139 111.348 265.321 111.908 265.321C112.468 265.321 112.93 265.139 113.294 264.775C113.658 264.402 113.84 263.926 113.84 263.347C113.84 262.768 113.658 262.297 113.294 261.933C112.93 261.559 112.468 261.372 111.908 261.372C111.348 261.372 110.881 261.559 110.508 261.933C110.143 262.297 109.961 262.768 109.961 263.347C109.961 263.926 110.143 264.402 110.508 264.775Z" fill="white"/>
<circle cx="184.394" cy="157.214" r="59.89" fill="#5297CF"/>
<path d="M171.234 141.221C172.578 141.221 173.698 141.693 174.594 142.635C175.5 143.578 175.953 144.741 175.953 146.122C175.953 147.504 175.5 148.666 174.594 149.609C173.698 150.552 172.578 151.023 171.234 151.023H167.341V141.221H171.234ZM171.234 149.175C172.083 149.175 172.774 148.895 173.306 148.335C173.838 147.765 174.104 147.028 174.104 146.122C174.104 145.217 173.838 144.484 173.306 143.924C172.774 143.354 172.083 143.07 171.234 143.07H169.273V149.175H171.234ZM182.561 144.022H184.367V151.023H182.561V150.197C182.019 150.879 181.258 151.219 180.278 151.219C179.345 151.219 178.542 150.865 177.87 150.155C177.207 149.436 176.875 148.559 176.875 147.523C176.875 146.486 177.207 145.614 177.87 144.904C178.542 144.185 179.345 143.826 180.278 143.826C181.258 143.826 182.019 144.167 182.561 144.848V144.022ZM179.228 148.951C179.592 149.315 180.054 149.497 180.614 149.497C181.174 149.497 181.637 149.315 182.001 148.951C182.374 148.578 182.561 148.101 182.561 147.523C182.561 146.944 182.374 146.472 182.001 146.108C181.637 145.735 181.174 145.548 180.614 145.548C180.054 145.548 179.592 145.735 179.228 146.108C178.864 146.472 178.682 146.944 178.682 147.523C178.682 148.101 178.864 148.578 179.228 148.951ZM190.01 145.758H188.428V148.671C188.428 148.914 188.488 149.091 188.61 149.203C188.731 149.315 188.909 149.38 189.142 149.399C189.375 149.408 189.665 149.404 190.01 149.385V151.023C188.769 151.163 187.891 151.047 187.378 150.673C186.873 150.3 186.621 149.632 186.621 148.671V145.758H185.403V144.022H186.621V142.607L188.428 142.061V144.022H190.01V145.758ZM196.386 144.022H198.193V151.023H196.386V150.197C195.845 150.879 195.084 151.219 194.104 151.219C193.17 151.219 192.367 150.865 191.695 150.155C191.032 149.436 190.701 148.559 190.701 147.523C190.701 146.486 191.032 145.614 191.695 144.904C192.367 144.185 193.17 143.826 194.104 143.826C195.084 143.826 195.845 144.167 196.386 144.848V144.022ZM193.053 148.951C193.418 149.315 193.88 149.497 194.44 149.497C195 149.497 195.462 149.315 195.826 148.951C196.2 148.578 196.386 148.101 196.386 147.523C196.386 146.944 196.2 146.472 195.826 146.108C195.462 145.735 195 145.548 194.44 145.548C193.88 145.548 193.418 145.735 193.053 146.108C192.689 146.472 192.507 146.944 192.507 147.523C192.507 148.101 192.689 148.578 193.053 148.951ZM162.029 170.463L160.489 171.346L159.593 170.379C158.836 170.939 157.959 171.219 156.96 171.219C155.952 171.219 155.126 170.958 154.481 170.435C153.847 169.903 153.529 169.194 153.529 168.307C153.529 167.728 153.669 167.191 153.949 166.696C154.229 166.202 154.636 165.8 155.168 165.492C154.85 164.988 154.692 164.442 154.692 163.854C154.692 163.023 154.981 162.346 155.56 161.823C156.139 161.291 156.871 161.025 157.758 161.025C158.458 161.025 159.084 161.207 159.635 161.571C160.195 161.926 160.61 162.444 160.881 163.126L159.229 164.078C158.958 163.294 158.477 162.902 157.786 162.902C157.45 162.902 157.17 163 156.946 163.196C156.731 163.392 156.624 163.639 156.624 163.938C156.624 164.199 156.685 164.437 156.806 164.652C156.937 164.867 157.142 165.123 157.422 165.422L159.523 167.719C159.728 167.28 159.887 166.738 159.999 166.094L161.623 167.019C161.446 167.775 161.161 168.461 160.769 169.077L162.029 170.463ZM157.086 169.441C157.572 169.441 158.006 169.324 158.388 169.091L156.274 166.794C156.255 166.776 156.246 166.762 156.246 166.752C155.732 167.07 155.476 167.523 155.476 168.111C155.476 168.512 155.611 168.834 155.882 169.077C156.162 169.32 156.563 169.441 157.086 169.441ZM166.732 161.221H168.665V171.023H166.732V161.221ZM174.288 163.826C175.054 163.826 175.684 164.082 176.179 164.596C176.683 165.109 176.935 165.819 176.935 166.724V171.023H175.128V166.948C175.128 166.482 175.002 166.127 174.75 165.884C174.498 165.632 174.162 165.506 173.742 165.506C173.275 165.506 172.902 165.651 172.622 165.94C172.342 166.23 172.202 166.664 172.202 167.243V171.023H170.395V164.022H172.202V164.806C172.64 164.153 173.336 163.826 174.288 163.826ZM180.144 166.01C180.144 166.197 180.265 166.351 180.508 166.472C180.76 166.584 181.063 166.687 181.418 166.78C181.773 166.864 182.127 166.977 182.482 167.117C182.837 167.247 183.136 167.471 183.378 167.789C183.63 168.106 183.756 168.503 183.756 168.979C183.756 169.698 183.486 170.253 182.944 170.645C182.412 171.028 181.745 171.219 180.942 171.219C179.504 171.219 178.524 170.664 178.001 169.553L179.569 168.671C179.775 169.278 180.232 169.581 180.942 169.581C181.586 169.581 181.908 169.38 181.908 168.979C181.908 168.792 181.782 168.643 181.53 168.531C181.287 168.409 180.988 168.302 180.634 168.209C180.279 168.115 179.924 167.999 179.569 167.859C179.215 167.719 178.911 167.499 178.659 167.201C178.416 166.892 178.295 166.51 178.295 166.052C178.295 165.361 178.547 164.82 179.051 164.428C179.565 164.026 180.2 163.826 180.956 163.826C181.525 163.826 182.043 163.956 182.51 164.218C182.977 164.47 183.346 164.834 183.616 165.31L182.076 166.15C181.852 165.674 181.478 165.436 180.956 165.436C180.722 165.436 180.526 165.487 180.368 165.59C180.218 165.693 180.144 165.833 180.144 166.01ZM185.814 163.182C185.516 163.182 185.254 163.074 185.03 162.86C184.815 162.635 184.708 162.374 184.708 162.075C184.708 161.777 184.815 161.515 185.03 161.291C185.254 161.067 185.516 160.955 185.814 160.955C186.122 160.955 186.384 161.067 186.598 161.291C186.823 161.515 186.935 161.777 186.935 162.075C186.935 162.374 186.823 162.635 186.598 162.86C186.384 163.074 186.122 163.182 185.814 163.182ZM184.918 171.023V164.022H186.724V171.023H184.918ZM193.741 164.022H195.506V170.687C195.506 171.77 195.146 172.596 194.427 173.166C193.718 173.735 192.859 174.02 191.851 174.02C191.094 174.02 190.427 173.875 189.848 173.586C189.279 173.297 188.84 172.872 188.532 172.312L190.072 171.43C190.427 172.083 191.038 172.41 191.907 172.41C192.476 172.41 192.924 172.26 193.251 171.962C193.578 171.663 193.741 171.238 193.741 170.687V169.931C193.209 170.641 192.462 170.995 191.501 170.995C190.511 170.995 189.68 170.65 189.008 169.959C188.345 169.259 188.014 168.409 188.014 167.411C188.014 166.421 188.35 165.576 189.022 164.876C189.694 164.176 190.52 163.826 191.501 163.826C192.462 163.826 193.209 164.181 193.741 164.89V164.022ZM190.366 168.797C190.74 169.152 191.211 169.329 191.781 169.329C192.35 169.329 192.817 169.152 193.181 168.797C193.554 168.433 193.741 167.971 193.741 167.411C193.741 166.86 193.554 166.407 193.181 166.052C192.817 165.688 192.35 165.506 191.781 165.506C191.211 165.506 190.74 165.688 190.366 166.052C190.002 166.407 189.82 166.86 189.82 167.411C189.82 167.971 190.002 168.433 190.366 168.797ZM201.036 163.826C201.802 163.826 202.432 164.082 202.927 164.596C203.431 165.109 203.683 165.819 203.683 166.724V171.023H201.877V166.948C201.877 166.482 201.751 166.127 201.499 165.884C201.247 165.632 200.91 165.506 200.49 165.506C200.024 165.506 199.65 165.651 199.37 165.94C199.09 166.23 198.95 166.664 198.95 167.243V171.023H197.144V161.221H198.95V164.806C199.389 164.153 200.084 163.826 201.036 163.826ZM209.23 165.758H207.648V168.671C207.648 168.914 207.709 169.091 207.83 169.203C207.951 169.315 208.129 169.38 208.362 169.399C208.596 169.408 208.885 169.404 209.23 169.385V171.023C207.989 171.163 207.111 171.047 206.598 170.673C206.094 170.3 205.842 169.632 205.842 168.671V165.758H204.623V164.022H205.842V162.607L207.648 162.061V164.022H209.23V165.758ZM212.02 166.01C212.02 166.197 212.141 166.351 212.384 166.472C212.636 166.584 212.94 166.687 213.294 166.78C213.649 166.864 214.004 166.977 214.359 167.117C214.713 167.247 215.012 167.471 215.255 167.789C215.507 168.106 215.633 168.503 215.633 168.979C215.633 169.698 215.362 170.253 214.821 170.645C214.289 171.028 213.621 171.219 212.818 171.219C211.381 171.219 210.4 170.664 209.878 169.553L211.446 168.671C211.651 169.278 212.109 169.581 212.818 169.581C213.462 169.581 213.784 169.38 213.784 168.979C213.784 168.792 213.658 168.643 213.406 168.531C213.164 168.409 212.865 168.302 212.51 168.209C212.155 168.115 211.801 167.999 211.446 167.859C211.091 167.719 210.788 167.499 210.536 167.201C210.293 166.892 210.172 166.51 210.172 166.052C210.172 165.361 210.424 164.82 210.928 164.428C211.441 164.026 212.076 163.826 212.832 163.826C213.402 163.826 213.92 163.956 214.387 164.218C214.853 164.47 215.222 164.834 215.493 165.31L213.952 166.15C213.728 165.674 213.355 165.436 212.832 165.436C212.599 165.436 212.403 165.487 212.244 165.59C212.095 165.693 212.02 165.833 212.02 166.01Z" fill="white"/>
<g opacity="0.1">
<rect x="284.031" y="176.094" width="3.16652" height="13.2994" transform="rotate(-180 284.031 176.094)" fill="#1E3356"/>
<rect x="283.953" y="173.008" width="3.16652" height="13.2994" transform="rotate(90 283.953 173.008)" fill="#1E3356"/>
<rect x="282.402" y="172.355" width="3.16652" height="29.132" transform="rotate(135 282.402 172.355)" fill="#1E3356"/>
</g>
<g opacity="0.1">
<rect x="85.1289" y="332.875" width="3.16652" height="13.2994" fill="#1E3356"/>
<rect x="85.207" y="335.961" width="3.16652" height="13.2994" transform="rotate(-90 85.207 335.961)" fill="#1E3356"/>
<rect x="86.7578" y="336.617" width="3.16652" height="29.132" transform="rotate(-45 86.7578 336.617)" fill="#1E3356"/>
</g>
<g opacity="0.1">
<rect x="261.008" y="355.906" width="3.16652" height="13.2994" transform="rotate(-90 261.008 355.906)" fill="#1E3356"/>
<rect x="264.094" y="355.828" width="3.16652" height="13.2994" transform="rotate(180 264.094 355.828)" fill="#1E3356"/>
<rect x="264.746" y="354.277" width="3.16652" height="29.132" transform="rotate(-135 264.746 354.277)" fill="#1E3356"/>
</g>
<g opacity="0.1">
<rect x="108.16" y="153.066" width="3.16652" height="13.2994" transform="rotate(90 108.16 153.066)" fill="#1E3356"/>
<rect x="105.074" y="153.145" width="3.16652" height="13.2994" fill="#1E3356"/>
<rect x="104.418" y="154.695" width="3.16652" height="29.132" transform="rotate(45 104.418 154.695)" fill="#1E3356"/>
</g>
</svg>
