<svg width="309" height="676" viewBox="0 0 309 676" fill="none" xmlns="http://www.w3.org/2000/svg">
<rect x="3" width="252" height="133" rx="4.93805" fill="white"/>
<path d="M65.6788 37.4779H61.1522V49H65.6788C68.8556 49 71.1929 46.4487 71.1929 43.2389C71.1929 40.0127 68.8556 37.4779 65.6788 37.4779ZM65.6788 47.1894H63.0451V39.2885H65.6788C67.868 39.2885 69.3658 40.951 69.3658 43.2389C69.3658 45.5104 67.868 47.1894 65.6788 47.1894ZM79.3217 40.7699V41.9386C78.6962 41.0827 77.725 40.5559 76.4411 40.5559C74.2026 40.5559 72.3426 42.4324 72.3426 44.885C72.3426 47.3211 74.2026 49.214 76.4411 49.214C77.725 49.214 78.6962 48.6873 79.3217 47.8149V49H81.0994V40.7699H79.3217ZM76.721 47.5186C75.2396 47.5186 74.1203 46.4158 74.1203 44.885C74.1203 43.3542 75.2396 42.2513 76.721 42.2513C78.2024 42.2513 79.3217 43.3542 79.3217 44.885C79.3217 46.4158 78.2024 47.5186 76.721 47.5186ZM87.7638 42.4818V40.7699H85.7228V38.4655L83.9451 38.9922V40.7699H82.4307V42.4818H83.9451V46.4322C83.9451 48.572 85.0314 49.3292 87.7638 49V47.4034C86.4141 47.4692 85.7228 47.4857 85.7228 46.4322V42.4818H87.7638ZM95.5568 40.7699V41.9386C94.9313 41.0827 93.9602 40.5559 92.6763 40.5559C90.4377 40.5559 88.5777 42.4324 88.5777 44.885C88.5777 47.3211 90.4377 49.214 92.6763 49.214C93.9602 49.214 94.9313 48.6873 95.5568 47.8149V49H97.3345V40.7699H95.5568ZM92.9561 47.5186C91.4747 47.5186 90.3554 46.4158 90.3554 44.885C90.3554 43.3542 91.4747 42.2513 92.9561 42.2513C94.4375 42.2513 95.5568 43.3542 95.5568 44.885C95.5568 46.4158 94.4375 47.5186 92.9561 47.5186ZM113.101 48.4239L111.604 46.7943C112.064 46.0536 112.377 45.1977 112.558 44.3582L110.945 43.4365C110.83 44.2101 110.632 44.885 110.353 45.4446L107.554 42.4159C107.011 41.8234 106.567 41.3131 106.567 40.5724C106.567 39.6835 107.291 39.1074 108.196 39.1074C109.102 39.1074 109.809 39.6671 110.122 40.5888L111.735 39.6671C111.11 38.1034 109.727 37.2639 108.18 37.2639C106.238 37.2639 104.674 38.5478 104.674 40.523C104.674 41.3625 104.937 41.988 105.332 42.5312C103.999 43.2554 103.308 44.4899 103.308 45.8396C103.308 47.9465 104.954 49.214 107.258 49.214C108.591 49.214 109.645 48.786 110.468 48.1276L111.571 49.3127L113.101 48.4239ZM107.357 47.4527C105.974 47.4527 105.217 46.745 105.217 45.6915C105.217 45.0002 105.546 44.243 106.435 43.7986L109.266 46.8437C108.739 47.2388 108.114 47.4527 107.357 47.4527ZM118.747 37.4779V49H120.64V37.4779H118.747ZM127.156 40.5559C126.037 40.5559 125.148 40.9674 124.605 41.8234V40.7699H122.827V49H124.605V44.5887C124.605 42.9097 125.526 42.2184 126.695 42.2184C127.814 42.2184 128.539 42.8768 128.539 44.1278V49H130.316V43.9467C130.316 41.8069 129 40.5559 127.156 40.5559ZM133.827 43.0414C133.827 42.4488 134.387 42.169 135.029 42.169C135.704 42.169 136.28 42.4653 136.576 43.1073L138.074 42.2678C137.498 41.1814 136.378 40.5559 135.029 40.5559C133.35 40.5559 132.016 41.5271 132.016 43.0743C132.016 46.0207 136.444 45.1977 136.444 46.6627C136.444 47.3211 135.835 47.5844 135.045 47.5844C134.14 47.5844 133.481 47.14 133.218 46.3993L131.687 47.2881C132.214 48.4733 133.399 49.214 135.045 49.214C136.823 49.214 138.255 48.3251 138.255 46.6791C138.255 43.634 133.827 44.5393 133.827 43.0414ZM140.61 39.5354C141.235 39.5354 141.746 39.0087 141.746 38.3996C141.746 37.7742 141.235 37.2639 140.61 37.2639C139.984 37.2639 139.474 37.7742 139.474 38.3996C139.474 39.0087 139.984 39.5354 140.61 39.5354ZM139.721 49H141.499V40.7699H139.721V49ZM150.114 40.7699V41.988C149.489 41.0991 148.517 40.5559 147.25 40.5559C144.929 40.5559 143.102 42.4488 143.102 44.8027C143.102 47.1565 144.929 49.0494 147.25 49.0494C148.517 49.0494 149.489 48.5062 150.114 47.6173V48.6214C150.114 50.0535 149.192 50.8929 147.661 50.8929C146.229 50.8929 145.62 50.3333 145.258 49.6255L143.728 50.5143C144.419 51.8312 145.818 52.506 147.629 52.506C149.785 52.506 151.859 51.2715 151.859 48.6214V40.7699H150.114ZM147.497 47.3869C145.999 47.3869 144.88 46.2841 144.88 44.8027C144.88 43.3212 145.999 42.2184 147.497 42.2184C148.995 42.2184 150.114 43.3212 150.114 44.8027C150.114 46.2841 148.995 47.3869 147.497 47.3869ZM158.26 40.5559C157.141 40.5559 156.252 40.9674 155.709 41.8234V37.4779H153.931V49H155.709V44.5887C155.709 42.9097 156.63 42.2184 157.799 42.2184C158.918 42.2184 159.643 42.8768 159.643 44.1278V49H161.42V43.9467C161.42 41.8069 160.103 40.5559 158.26 40.5559ZM167.927 42.4818V40.7699H165.886V38.4655L164.108 38.9922V40.7699H162.594V42.4818H164.108V46.4322C164.108 48.572 165.194 49.3292 167.927 49V47.4034C166.577 47.4692 165.886 47.4857 165.886 46.4322V42.4818H167.927ZM170.83 43.0414C170.83 42.4488 171.39 42.169 172.032 42.169C172.707 42.169 173.283 42.4653 173.579 43.1073L175.077 42.2678C174.501 41.1814 173.382 40.5559 172.032 40.5559C170.353 40.5559 169.02 41.5271 169.02 43.0743C169.02 46.0207 173.448 45.1977 173.448 46.6627C173.448 47.3211 172.838 47.5844 172.048 47.5844C171.143 47.5844 170.485 47.14 170.221 46.3993L168.691 47.2881C169.217 48.4733 170.402 49.214 172.048 49.214C173.826 49.214 175.258 48.3251 175.258 46.6791C175.258 43.634 170.83 44.5393 170.83 43.0414Z" fill="#1E3356"/>
<path d="M34.0748 30.9679L29.3349 32.6423L30.0562 35.1668L33.6884 34.1364V49H36.6508V30.9679H34.0748Z" fill="#60B2F3"/>
<path d="M65.3594 79.9471C67.0845 79.9471 68.5988 79.0385 69.3494 77.669L68.533 77.2081C67.9667 78.3142 66.7421 79.0516 65.3594 79.0516C63.0287 79.0516 61.4485 77.3266 61.4485 75.1802C61.4485 73.0338 63.0287 71.3088 65.3594 71.3088C66.7421 71.3088 67.9667 72.0462 68.533 73.1523L69.3494 72.6783C68.5856 71.3088 67.0713 70.4133 65.3594 70.4133C62.5283 70.4133 60.5267 72.5466 60.5267 75.1802C60.5267 77.8138 62.5283 79.9471 65.3594 79.9471ZM73.7375 79.9471C75.66 79.9471 77.2007 78.4459 77.2007 76.497C77.2007 74.5481 75.66 73.047 73.7375 73.047C71.8149 73.047 70.2742 74.5481 70.2742 76.497C70.2742 78.4459 71.8149 79.9471 73.7375 79.9471ZM73.7375 79.1043C72.2758 79.1043 71.1433 77.9587 71.1433 76.497C71.1433 75.0354 72.2758 73.8897 73.7375 73.8897C75.1991 73.8897 76.3316 75.0354 76.3316 76.497C76.3316 77.9587 75.1991 79.1043 73.7375 79.1043ZM78.655 79.7891H79.5241V70.1763H78.655V79.7891ZM81.3684 79.7891H82.2375V70.1763H81.3684V79.7891ZM89.7441 73.205V74.4955C89.191 73.6132 88.2561 73.047 87.0841 73.047C85.2274 73.047 83.6867 74.5481 83.6867 76.497C83.6867 78.4459 85.2274 79.9471 87.0841 79.9471C88.2561 79.9471 89.191 79.3809 89.7441 78.4986V79.7891H90.6132V73.205H89.7441ZM87.1499 79.1043C85.6883 79.1043 84.5558 77.9587 84.5558 76.497C84.5558 75.0354 85.6883 73.8897 87.1499 73.8897C88.6116 73.8897 89.7441 75.0354 89.7441 76.497C89.7441 77.9587 88.6116 79.1043 87.1499 79.1043ZM95.9824 73.047C94.8104 73.047 93.8755 73.6132 93.3224 74.4955V70.5714H92.4533V79.7891H93.3224V78.4986C93.8755 79.3809 94.8104 79.9471 95.9824 79.9471C97.8391 79.9471 99.3797 78.4459 99.3797 76.497C99.3797 74.5481 97.8391 73.047 95.9824 73.047ZM95.9165 79.1043C94.4549 79.1043 93.3224 77.9587 93.3224 76.497C93.3224 75.0354 94.4549 73.8897 95.9165 73.8897C97.3782 73.8897 98.5106 75.0354 98.5106 76.497C98.5106 77.9587 97.3782 79.1043 95.9165 79.1043ZM103.893 79.9471C105.816 79.9471 107.356 78.4459 107.356 76.497C107.356 74.5481 105.816 73.047 103.893 73.047C101.97 73.047 100.43 74.5481 100.43 76.497C100.43 78.4459 101.97 79.9471 103.893 79.9471ZM103.893 79.1043C102.431 79.1043 101.299 77.9587 101.299 76.497C101.299 75.0354 102.431 73.8897 103.893 73.8897C105.355 73.8897 106.487 75.0354 106.487 76.497C106.487 77.9587 105.355 79.1043 103.893 79.1043ZM109.68 74.2979V73.205H108.811V79.7891H109.68V76.1283C109.68 74.4955 110.707 73.9424 111.76 73.9424V73.0996C110.918 73.0996 110.141 73.3762 109.68 74.2979ZM118.215 73.205V74.4955C117.662 73.6132 116.727 73.047 115.555 73.047C113.698 73.047 112.158 74.5481 112.158 76.497C112.158 78.4459 113.698 79.9471 115.555 79.9471C116.727 79.9471 117.662 79.3809 118.215 78.4986V79.7891H119.084V73.205H118.215ZM115.621 79.1043C114.159 79.1043 113.027 77.9587 113.027 76.497C113.027 75.0354 114.159 73.8897 115.621 73.8897C117.083 73.8897 118.215 75.0354 118.215 76.497C118.215 77.9587 117.083 79.1043 115.621 79.1043ZM124.414 74.0478V73.205H122.518V71.3615L121.649 71.6248V73.205H120.266V74.0478H121.649V78.0377C121.649 79.6179 122.636 80.0524 124.414 79.7891V79.0253C123.137 79.078 122.518 79.1702 122.518 78.0377V74.0478H124.414ZM126.297 71.8092C126.652 71.8092 126.929 71.5195 126.929 71.1771C126.929 70.8347 126.652 70.545 126.297 70.545C125.941 70.545 125.665 70.8347 125.665 71.1771C125.665 71.5195 125.941 71.8092 126.297 71.8092ZM125.862 79.7891H126.731V73.205H125.862V79.7891ZM133.316 73.205L131.012 78.8805L128.707 73.205H127.786L130.485 79.7891H131.539L134.238 73.205H133.316ZM138.073 73.047C136.032 73.047 134.636 74.5613 134.636 76.497C134.636 78.4854 136.058 79.9471 138.139 79.9471C139.469 79.9471 140.483 79.3282 141.036 78.4327L140.272 77.985C139.917 78.6171 139.192 79.1043 138.152 79.1043C136.756 79.1043 135.716 78.2747 135.532 76.9316H141.312C141.326 76.7999 141.339 76.655 141.339 76.5234C141.339 74.7193 140.088 73.047 138.073 73.047ZM138.073 73.8897C139.205 73.8897 140.259 74.6403 140.443 76.0888H135.532C135.703 74.7983 136.69 73.8897 138.073 73.8897ZM146.448 71.8092C146.803 71.8092 147.08 71.5195 147.08 71.1771C147.08 70.8347 146.803 70.545 146.448 70.545C146.092 70.545 145.816 70.8347 145.816 71.1771C145.816 71.5195 146.092 71.8092 146.448 71.8092ZM146.013 79.7891H146.882V73.205H146.013V79.7891ZM151.808 73.047C150.873 73.047 150.109 73.4025 149.596 74.2321V73.205H148.727V79.7891H149.596V76.339C149.596 74.5745 150.57 73.8897 151.729 73.8897C152.874 73.8897 153.52 74.5745 153.52 75.7464V79.7891H154.389V75.7464C154.389 74.1004 153.414 73.047 151.808 73.047ZM159.559 74.0478V73.205H157.663V71.3615L156.794 71.6248V73.205H155.411V74.0478H156.794V78.0377C156.794 79.6179 157.781 80.0524 159.559 79.7891V79.0253C158.282 79.078 157.663 79.1702 157.663 78.0377V74.0478H159.559ZM163.651 73.047C161.609 73.047 160.214 74.5613 160.214 76.497C160.214 78.4854 161.636 79.9471 163.716 79.9471C165.046 79.9471 166.06 79.3282 166.613 78.4327L165.85 77.985C165.494 78.6171 164.77 79.1043 163.73 79.1043C162.334 79.1043 161.293 78.2747 161.109 76.9316H166.89C166.903 76.7999 166.916 76.655 166.916 76.5234C166.916 74.7193 165.665 73.047 163.651 73.047ZM163.651 73.8897C164.783 73.8897 165.836 74.6403 166.021 76.0888H161.109C161.28 74.7983 162.268 73.8897 163.651 73.8897ZM169.168 74.2979V73.205H168.299V79.7891H169.168V76.1283C169.168 74.4955 170.195 73.9424 171.248 73.9424V73.0996C170.406 73.0996 169.629 73.3762 169.168 74.2979ZM172.314 76.1415H177.054V75.2987H172.314V76.1415ZM182.385 74.0478V73.205H180.488V71.3615L179.619 71.6248V73.205H178.237V74.0478H179.619V78.0377C179.619 79.6179 180.607 80.0524 182.385 79.7891V79.0253C181.107 79.078 180.488 79.1702 180.488 78.0377V74.0478H182.385ZM186.476 73.047C184.435 73.047 183.039 74.5613 183.039 76.497C183.039 78.4854 184.461 79.9471 186.542 79.9471C187.872 79.9471 188.886 79.3282 189.439 78.4327L188.675 77.985C188.32 78.6171 187.595 79.1043 186.555 79.1043C185.159 79.1043 184.119 78.2747 183.935 76.9316H189.716C189.729 76.7999 189.742 76.655 189.742 76.5234C189.742 74.7193 188.491 73.047 186.476 73.047ZM186.476 73.8897C187.609 73.8897 188.662 74.6403 188.846 76.0888H183.935C184.106 74.7983 185.094 73.8897 186.476 73.8897ZM196.787 73.205V74.4955C196.234 73.6132 195.299 73.047 194.127 73.047C192.27 73.047 190.729 74.5481 190.729 76.497C190.729 78.4459 192.27 79.9471 194.127 79.9471C195.299 79.9471 196.234 79.3809 196.787 78.4986V79.7891H197.656V73.205H196.787ZM194.193 79.1043C192.731 79.1043 191.598 77.9587 191.598 76.497C191.598 75.0354 192.731 73.8897 194.193 73.8897C195.654 73.8897 196.787 75.0354 196.787 76.497C196.787 77.9587 195.654 79.1043 194.193 79.1043ZM206.515 73.047C205.672 73.047 204.868 73.4289 204.381 74.2453C204.013 73.4815 203.301 73.047 202.38 73.047C201.59 73.047 200.879 73.363 200.365 74.1663V73.205H199.496V79.7891H200.365V76.1415C200.365 74.5086 201.313 73.8897 202.261 73.8897C203.196 73.8897 203.802 74.5086 203.802 75.6806V79.7891H204.671V76.1415C204.671 74.5086 205.487 73.8897 206.501 73.8897C207.436 73.8897 208.108 74.5086 208.108 75.6806V79.7891H208.977V75.6806C208.977 74.0346 207.963 73.047 206.515 73.047ZM61.3563 89.8092C61.7119 89.8092 61.9884 89.5195 61.9884 89.1771C61.9884 88.8347 61.7119 88.545 61.3563 88.545C61.0008 88.545 60.7242 88.8347 60.7242 89.1771C60.7242 89.5195 61.0008 89.8092 61.3563 89.8092ZM60.9218 97.7891H61.7909V91.205H60.9218V97.7891ZM66.7165 91.047C65.7815 91.047 65.0178 91.4025 64.5042 92.2321V91.205H63.6351V97.7891H64.5042V94.339C64.5042 92.5745 65.4787 91.8897 66.6375 91.8897C67.7831 91.8897 68.4283 92.5745 68.4283 93.7464V97.7891H69.2974V93.7464C69.2974 92.1004 68.323 91.047 66.7165 91.047ZM75.6541 91.205L73.3497 96.8805L71.0453 91.205H70.1235L72.823 97.7891H73.8764L76.5759 91.205H75.6541ZM80.4109 91.047C78.3699 91.047 76.974 92.5613 76.974 94.497C76.974 96.4854 78.3962 97.9471 80.4768 97.9471C81.8068 97.9471 82.8207 97.3282 83.3738 96.4327L82.61 95.985C82.2545 96.6171 81.5302 97.1043 80.4899 97.1043C79.0941 97.1043 78.0538 96.2747 77.8695 94.9316H83.6503C83.6635 94.7999 83.6766 94.655 83.6766 94.5234C83.6766 92.7193 82.4257 91.047 80.4109 91.047ZM80.4109 91.8897C81.5434 91.8897 82.5968 92.6403 82.7812 94.0888H77.8695C78.0407 92.7983 79.0283 91.8897 80.4109 91.8897ZM85.4866 92.93C85.4866 92.2189 86.1845 91.8897 86.8693 91.8897C87.5014 91.8897 88.1729 92.1399 88.4495 92.8115L89.1737 92.3901C88.7918 91.5737 87.9491 91.047 86.8693 91.047C85.5525 91.047 84.6175 91.8766 84.6175 92.93C84.6175 95.353 88.4626 94.418 88.4626 96.0509C88.4626 96.8278 87.7252 97.1043 86.9483 97.1043C86.066 97.1043 85.3813 96.6698 85.1443 95.9982L84.4068 96.4327C84.736 97.2755 85.6315 97.9471 86.9483 97.9471C88.3573 97.9471 89.3317 97.1702 89.3317 96.0509C89.3317 93.6279 85.4866 94.5629 85.4866 92.93ZM94.0139 92.0478V91.205H92.1177V89.3615L91.2486 89.6248V91.205H89.866V92.0478H91.2486V96.0377C91.2486 97.6179 92.2362 98.0524 94.0139 97.7891V97.0253C92.7366 97.078 92.1177 97.1702 92.1177 96.0377V92.0478H94.0139ZM95.897 89.8092C96.2525 89.8092 96.529 89.5195 96.529 89.1771C96.529 88.8347 96.2525 88.545 95.897 88.545C95.5414 88.545 95.2649 88.8347 95.2649 89.1771C95.2649 89.5195 95.5414 89.8092 95.897 89.8092ZM95.4624 97.7891H96.3315V91.205H95.4624V97.7891ZM103.838 91.205V92.4955C103.285 91.6132 102.35 91.047 101.178 91.047C99.3214 91.047 97.7807 92.5481 97.7807 94.497C97.7807 96.4459 99.3214 97.9471 101.178 97.9471C102.35 97.9471 103.285 97.3809 103.838 96.4986V97.5257C103.838 98.8689 102.929 99.7379 101.402 99.7379C99.9798 99.7379 99.3741 99.2112 99.0449 98.5396L98.2811 98.9742C98.7947 100.001 99.8876 100.581 101.402 100.581C103.101 100.581 104.707 99.5273 104.707 97.5257V91.205H103.838ZM101.244 97.1043C99.7823 97.1043 98.6498 95.9587 98.6498 94.497C98.6498 93.0354 99.7823 91.8897 101.244 91.8897C102.706 91.8897 103.838 93.0354 103.838 94.497C103.838 95.9587 102.706 97.1043 101.244 97.1043ZM112.21 91.205V92.4955C111.657 91.6132 110.722 91.047 109.55 91.047C107.693 91.047 106.152 92.5481 106.152 94.497C106.152 96.4459 107.693 97.9471 109.55 97.9471C110.722 97.9471 111.657 97.3809 112.21 96.4986V97.7891H113.079V91.205H112.21ZM109.616 97.1043C108.154 97.1043 107.021 95.9587 107.021 94.497C107.021 93.0354 108.154 91.8897 109.616 91.8897C111.077 91.8897 112.21 93.0354 112.21 94.497C112.21 95.9587 111.077 97.1043 109.616 97.1043ZM118.408 92.0478V91.205H116.512V89.3615L115.643 89.6248V91.205H114.26V92.0478H115.643V96.0377C115.643 97.6179 116.631 98.0524 118.408 97.7891V97.0253C117.131 97.078 116.512 97.1702 116.512 96.0377V92.0478H118.408ZM120.291 89.8092C120.647 89.8092 120.924 89.5195 120.924 89.1771C120.924 88.8347 120.647 88.545 120.291 88.545C119.936 88.545 119.659 88.8347 119.659 89.1771C119.659 89.5195 119.936 89.8092 120.291 89.8092ZM119.857 97.7891H120.726V91.205H119.857V97.7891ZM125.638 97.9471C127.561 97.9471 129.102 96.4459 129.102 94.497C129.102 92.5481 127.561 91.047 125.638 91.047C123.716 91.047 122.175 92.5481 122.175 94.497C122.175 96.4459 123.716 97.9471 125.638 97.9471ZM125.638 97.1043C124.177 97.1043 123.044 95.9587 123.044 94.497C123.044 93.0354 124.177 91.8897 125.638 91.8897C127.1 91.8897 128.233 93.0354 128.233 94.497C128.233 95.9587 127.1 97.1043 125.638 97.1043ZM133.637 91.047C132.702 91.047 131.939 91.4025 131.425 92.2321V91.205H130.556V97.7891H131.425V94.339C131.425 92.5745 132.4 91.8897 133.558 91.8897C134.704 91.8897 135.349 92.5745 135.349 93.7464V97.7891H136.218V93.7464C136.218 92.1004 135.244 91.047 133.637 91.047ZM144.259 97.9471C146.182 97.9471 147.722 96.4459 147.722 94.497C147.722 92.5481 146.182 91.047 144.259 91.047C142.336 91.047 140.796 92.5481 140.796 94.497C140.796 96.4459 142.336 97.9471 144.259 97.9471ZM144.259 97.1043C142.797 97.1043 141.665 95.9587 141.665 94.497C141.665 93.0354 142.797 91.8897 144.259 91.8897C145.721 91.8897 146.853 93.0354 146.853 94.497C146.853 95.9587 145.721 97.1043 144.259 97.1043ZM152.211 89.2561V88.4133C150.434 88.2817 149.446 89.2298 149.446 90.9416V91.205H148.327V92.0478H149.446V97.7891H150.315V92.0478H152.211V91.205H150.315V90.9416C150.315 89.6775 150.934 89.1508 152.211 89.2561ZM161.17 91.205L159.037 96.7224L156.561 91.205H155.639L158.589 97.8286L158.418 98.2368C158.062 99.0927 157.47 99.6984 156.614 99.6063V100.423C157.799 100.515 158.773 99.6589 159.274 98.3948L162.092 91.205H161.17ZM165.953 97.9471C167.876 97.9471 169.416 96.4459 169.416 94.497C169.416 92.5481 167.876 91.047 165.953 91.047C164.03 91.047 162.49 92.5481 162.49 94.497C162.49 96.4459 164.03 97.9471 165.953 97.9471ZM165.953 97.1043C164.491 97.1043 163.359 95.9587 163.359 94.497C163.359 93.0354 164.491 91.8897 165.953 91.8897C167.415 91.8897 168.547 93.0354 168.547 94.497C168.547 95.9587 167.415 97.1043 165.953 97.1043ZM175.506 91.205V94.655C175.506 96.4196 174.531 97.1043 173.373 97.1043C172.227 97.1043 171.582 96.4196 171.582 95.2476V91.205H170.713V95.2476C170.713 96.8936 171.687 97.9471 173.294 97.9471C174.228 97.9471 174.992 97.5915 175.506 96.7619V97.7891H176.375V91.205H175.506ZM179.082 92.2979V91.205H178.213V97.7891H179.082V94.1283C179.082 92.4955 180.11 91.9424 181.163 91.9424V91.0996C180.32 91.0996 179.543 91.3762 179.082 92.2979ZM190.281 91.205V94.655C190.281 96.4196 189.307 97.1043 188.148 97.1043C187.003 97.1043 186.357 96.4196 186.357 95.2476V91.205H185.488V95.2476C185.488 96.8936 186.463 97.9471 188.069 97.9471C189.004 97.9471 189.768 97.5915 190.281 96.7619V97.7891H191.15V91.205H190.281ZM193.674 92.93C193.674 92.2189 194.372 91.8897 195.056 91.8897C195.688 91.8897 196.36 92.1399 196.637 92.8115L197.361 92.3901C196.979 91.5737 196.136 91.047 195.056 91.047C193.74 91.047 192.805 91.8766 192.805 92.93C192.805 95.353 196.65 94.418 196.65 96.0509C196.65 96.8278 195.912 97.1043 195.135 97.1043C194.253 97.1043 193.568 96.6698 193.331 95.9982L192.594 96.4327C192.923 97.2755 193.819 97.9471 195.135 97.9471C196.544 97.9471 197.519 97.1702 197.519 96.0509C197.519 93.6279 193.674 94.5629 193.674 92.93ZM201.818 91.047C199.777 91.047 198.381 92.5613 198.381 94.497C198.381 96.4854 199.803 97.9471 201.883 97.9471C203.213 97.9471 204.227 97.3282 204.78 96.4327L204.017 95.985C203.661 96.6171 202.937 97.1043 201.897 97.1043C200.501 97.1043 199.46 96.2747 199.276 94.9316H205.057C205.07 94.7999 205.083 94.655 205.083 94.5234C205.083 92.7193 203.832 91.047 201.818 91.047ZM201.818 91.8897C202.95 91.8897 204.003 92.6403 204.188 94.0888H199.276C199.447 92.7983 200.435 91.8897 201.818 91.8897ZM207.335 92.2979V91.205H206.466V97.7891H207.335V94.1283C207.335 92.4955 208.362 91.9424 209.415 91.9424V91.0996C208.573 91.0996 207.796 91.3762 207.335 92.2979ZM211.034 92.93C211.034 92.2189 211.732 91.8897 212.417 91.8897C213.049 91.8897 213.72 92.1399 213.997 92.8115L214.721 92.3901C214.339 91.5737 213.496 91.047 212.417 91.047C211.1 91.047 210.165 91.8766 210.165 92.93C210.165 95.353 214.01 94.418 214.01 96.0509C214.01 96.8278 213.273 97.1043 212.496 97.1043C211.613 97.1043 210.929 96.6698 210.692 95.9982L209.954 96.4327C210.283 97.2755 211.179 97.9471 212.496 97.9471C213.905 97.9471 214.879 97.1702 214.879 96.0509C214.879 93.6279 211.034 94.5629 211.034 92.93Z" fill="#516689"/>
<path d="M302.214 464.412C302.214 461.894 300.667 460.051 298.181 460.051L290.478 460.051L290.478 461.943L298.066 461.943C299.416 461.943 300.37 462.717 300.37 464.412C300.37 466.108 299.416 466.882 298.066 466.882L290.478 466.882L290.478 468.774L298.181 468.774C300.667 468.774 302.214 466.947 302.214 464.412ZM293.556 453.659C293.556 454.779 293.967 455.668 294.823 456.211L293.77 456.211L293.77 457.989L302 457.989L302 456.211L297.589 456.211C295.91 456.211 295.218 455.289 295.218 454.12C295.218 453.001 295.877 452.277 297.128 452.277L302 452.277L302 450.499L296.947 450.499C294.807 450.499 293.556 451.816 293.556 453.659ZM302 448.585L302 446.807L289.984 446.807L289.984 448.585L302 448.585ZM298.642 443.344L298.642 436.793C298.412 436.76 298.148 436.727 297.901 436.727C295.531 436.727 293.556 438.406 293.556 440.859C293.556 443.443 295.449 445.204 297.885 445.204C300.354 445.204 302.214 443.443 302.214 440.727C302.214 439.114 301.539 437.879 300.42 437.122L299.564 438.587C300.14 438.982 300.584 439.723 300.584 440.71C300.584 442.027 299.926 443.064 298.642 443.344ZM297.194 443.361C295.959 443.114 295.169 442.208 295.169 440.875C295.169 439.805 295.778 438.768 297.194 438.521L297.194 443.361ZM293.77 428.693L294.939 428.693C294.083 429.318 293.556 430.29 293.556 431.573C293.556 433.812 295.432 435.672 297.885 435.672C300.321 435.672 302.214 433.812 302.214 431.573C302.214 430.29 301.687 429.318 300.815 428.693L302 428.693L302 426.915L293.77 426.915L293.77 428.693ZM300.519 431.294C300.519 432.775 299.416 433.894 297.885 433.894C296.354 433.894 295.251 432.775 295.251 431.294C295.251 429.812 296.354 428.693 297.885 428.693C299.416 428.693 300.519 429.812 300.519 431.294ZM296.041 423.295C295.449 423.295 295.169 422.735 295.169 422.093C295.169 421.418 295.465 420.842 296.107 420.546L295.268 419.048C294.181 419.624 293.556 420.743 293.556 422.093C293.556 423.772 294.527 425.105 296.074 425.105C299.021 425.105 298.198 420.678 299.663 420.678C300.321 420.678 300.584 421.287 300.584 422.077C300.584 422.982 300.14 423.64 299.399 423.904L300.288 425.435C301.473 424.908 302.214 423.723 302.214 422.077C302.214 420.299 301.325 418.867 299.679 418.867C296.634 418.867 297.539 423.295 296.041 423.295ZM293.556 413.072C293.556 414.191 293.967 415.08 294.823 415.623L290.478 415.623L290.478 417.401L302 417.401L302 415.623L297.589 415.623C295.91 415.623 295.218 414.701 295.218 413.533C295.218 412.413 295.877 411.689 297.128 411.689L302 411.689L302 409.911L296.947 409.911C294.807 409.911 293.556 411.228 293.556 413.072ZM293.77 397.331L294.988 397.331C294.099 397.956 293.556 398.928 293.556 400.195C293.556 402.516 295.449 404.343 297.803 404.343C300.156 404.343 302.049 402.516 302.049 400.195C302.049 398.928 301.506 397.956 300.617 397.331L301.621 397.331C303.053 397.331 303.893 398.253 303.893 399.784C303.893 401.216 303.333 401.825 302.625 402.187L303.514 403.718C304.831 403.026 305.506 401.627 305.506 399.816C305.506 397.66 304.272 395.586 301.621 395.586L293.77 395.586L293.77 397.331ZM300.387 399.948C300.387 401.446 299.284 402.565 297.803 402.565C296.321 402.565 295.218 401.446 295.218 399.948C295.218 398.45 296.321 397.331 297.803 397.331C299.284 397.331 300.387 398.45 300.387 399.948ZM295.153 391.736L293.77 391.736L293.77 393.514L302 393.514L302 391.736L297.852 391.736C296.008 391.736 295.465 390.37 295.548 389.202L293.622 389.202C293.622 390.239 294.033 391.243 295.153 391.736ZM302.214 384.389C302.214 381.97 300.321 380.044 297.885 380.044C295.432 380.044 293.556 381.97 293.556 384.389C293.556 386.792 295.432 388.735 297.885 388.735C300.321 388.735 302.214 386.792 302.214 384.389ZM300.486 384.389C300.486 385.838 299.383 386.957 297.885 386.957C296.387 386.957 295.284 385.838 295.284 384.389C295.284 382.941 296.387 381.822 297.885 381.822C299.383 381.822 300.486 382.941 300.486 384.389ZM293.77 369.277L299.449 370.89L293.77 372.602L293.77 374.297L299.449 376.025L293.77 377.622L293.77 379.499L302 376.914L302 375.17L296.453 373.441L302 371.729L302 369.985L293.77 367.4L293.77 369.277ZM295.482 361.499L293.77 361.499L293.77 363.54L291.465 363.54L291.992 365.318L293.77 365.318L293.77 366.832L295.482 366.832L295.482 365.318L299.432 365.318C301.572 365.318 302.329 364.231 302 361.499L300.403 361.499C300.469 362.849 300.486 363.54 299.432 363.54L295.482 363.54L295.482 361.499ZM293.556 355.557C293.556 356.677 293.967 357.566 294.823 358.109L290.478 358.109L290.478 359.887L302 359.887L302 358.109L297.589 358.109C295.91 358.109 295.218 357.187 295.218 356.018C295.218 354.899 295.877 354.175 297.128 354.175L302 354.175L302 352.397L296.947 352.397C294.807 352.397 293.556 353.714 293.556 355.557ZM293.77 339.85L294.939 339.85C294.083 340.475 293.556 341.446 293.556 342.73C293.556 344.969 295.432 346.829 297.885 346.829C300.321 346.829 302.214 344.969 302.214 342.73C302.214 341.446 301.687 340.475 300.815 339.85L302 339.85L302 338.072L293.77 338.072L293.77 339.85ZM300.519 342.45C300.519 343.932 299.416 345.051 297.885 345.051C296.354 345.051 295.251 343.932 295.251 342.45C295.251 340.969 296.354 339.85 297.885 339.85C299.416 339.85 300.519 340.969 300.519 342.45ZM293.77 329.449L294.988 329.449C294.099 330.074 293.556 331.045 293.556 332.313C293.556 334.634 295.449 336.461 297.803 336.461C300.156 336.461 302.049 334.634 302.049 332.313C302.049 331.045 301.506 330.074 300.617 329.449L301.621 329.449C303.053 329.449 303.893 330.371 303.893 331.901C303.893 333.333 303.333 333.942 302.625 334.305L303.514 335.835C304.831 335.144 305.506 333.745 305.506 331.934C305.506 329.778 304.271 327.704 301.621 327.704L293.77 327.704L293.77 329.449ZM300.387 332.066C300.387 333.564 299.284 334.683 297.803 334.683C296.321 334.683 295.218 333.564 295.218 332.066C295.218 330.568 296.321 329.449 297.803 329.449C299.284 329.449 300.387 330.568 300.387 332.066ZM293.77 319.114L294.939 319.114C294.083 319.739 293.556 320.71 293.556 321.994C293.556 324.233 295.432 326.093 297.885 326.093C300.321 326.093 302.214 324.233 302.214 321.994C302.214 320.71 301.687 319.739 300.815 319.114L302 319.114L302 317.336L293.77 317.336L293.77 319.114ZM300.519 321.714C300.519 323.196 299.416 324.315 297.885 324.315C296.354 324.315 295.251 323.196 295.251 321.714C295.251 320.233 296.354 319.114 297.885 319.114C299.416 319.114 300.519 320.233 300.519 321.714ZM292.535 314.375C292.535 313.75 292.009 313.239 291.4 313.239C290.774 313.239 290.264 313.75 290.264 314.375C290.264 315.001 290.774 315.511 291.4 315.511C292.009 315.511 292.535 315.001 292.535 314.375ZM302 315.264L302 313.486L293.77 313.486L293.77 315.264L302 315.264ZM293.556 307.093C293.556 308.212 293.967 309.101 294.823 309.645L293.77 309.645L293.77 311.422L302 311.422L302 309.645L297.589 309.645C295.91 309.645 295.218 308.723 295.218 307.554C295.218 306.435 295.877 305.711 297.128 305.711L302 305.711L302 303.933L296.947 303.933C294.807 303.933 293.556 305.25 293.556 307.093ZM293.77 291.385L294.939 291.385C294.083 292.011 293.556 292.982 293.556 294.266C293.556 296.505 295.432 298.365 297.885 298.365C300.321 298.365 302.214 296.505 302.214 294.266C302.214 292.982 301.687 292.011 300.815 291.385L302 291.385L302 289.608L293.77 289.608L293.77 291.385ZM300.519 293.986C300.519 295.468 299.416 296.587 297.885 296.587C296.354 296.587 295.251 295.468 295.251 293.986C295.251 292.505 296.354 291.385 297.885 291.385C299.416 291.385 300.519 292.505 300.519 293.986ZM293.556 283.207C293.556 284.326 293.967 285.215 294.823 285.758L293.77 285.758L293.77 287.536L302 287.536L302 285.758L297.589 285.758C295.91 285.758 295.218 284.836 295.218 283.668C295.218 282.548 295.877 281.824 297.128 281.824L302 281.824L302 280.046L296.947 280.046C294.807 280.046 293.556 281.363 293.556 283.207ZM290.478 271.614L294.939 271.614C294.083 272.239 293.556 273.211 293.556 274.494C293.556 276.733 295.432 278.593 297.885 278.593C300.321 278.593 302.214 276.733 302.214 274.494C302.214 273.211 301.687 272.239 300.815 271.614L302 271.614L302 269.836L290.478 269.836L290.478 271.614ZM300.519 274.215C300.519 275.696 299.416 276.815 297.885 276.815C296.354 276.815 295.251 275.696 295.251 274.215C295.251 272.733 296.354 271.614 297.885 271.614C299.416 271.614 300.519 272.733 300.519 274.215ZM293.77 257.131L294.939 257.131C294.083 257.756 293.556 258.728 293.556 260.011C293.556 262.25 295.432 264.11 297.885 264.11C300.321 264.11 302.214 262.25 302.214 260.011C302.214 258.728 301.687 257.756 300.815 257.131L302 257.131L302 255.353L293.77 255.353L293.77 257.131ZM300.519 259.732C300.519 261.213 299.416 262.332 297.885 262.332C296.354 262.332 295.251 261.213 295.251 259.732C295.251 258.25 296.354 257.131 297.885 257.131C299.416 257.131 300.519 258.25 300.519 259.732ZM293.77 246.73L294.988 246.73C294.099 247.355 293.556 248.327 293.556 249.594C293.556 251.915 295.449 253.742 297.803 253.742C300.156 253.742 302.049 251.915 302.049 249.594C302.049 248.327 301.506 247.355 300.617 246.73L301.621 246.73C303.053 246.73 303.893 247.652 303.893 249.183C303.893 250.615 303.333 251.224 302.625 251.586L303.514 253.117C304.831 252.425 305.506 251.026 305.506 249.215C305.506 247.059 304.271 244.985 301.621 244.985L293.77 244.985L293.77 246.73ZM300.387 249.347C300.387 250.845 299.284 251.964 297.803 251.964C296.321 251.964 295.218 250.845 295.218 249.347C295.218 247.849 296.321 246.73 297.803 246.73C299.284 246.73 300.387 247.849 300.387 249.347ZM293.77 236.395L294.939 236.395C294.083 237.02 293.556 237.992 293.556 239.275C293.556 241.514 295.432 243.374 297.885 243.374C300.321 243.374 302.214 241.514 302.214 239.275C302.214 237.992 301.687 237.02 300.815 236.395L302 236.395L302 234.617L293.77 234.617L293.77 236.395ZM300.519 238.996C300.519 240.477 299.416 241.596 297.885 241.596C296.354 241.596 295.251 240.477 295.251 238.996C295.251 237.514 296.354 236.395 297.885 236.395C299.416 236.395 300.519 237.514 300.519 238.996ZM292.535 231.656C292.535 231.031 292.009 230.521 291.4 230.521C290.774 230.521 290.264 231.031 290.264 231.656C290.264 232.282 290.774 232.792 291.4 232.792C292.009 232.792 292.535 232.282 292.535 231.656ZM302 232.545L302 230.767L293.77 230.767L293.77 232.545L302 232.545ZM293.556 224.374C293.556 225.494 293.967 226.383 294.823 226.926L293.77 226.926L293.77 228.703L302 228.703L302 226.926L297.589 226.926C295.91 226.926 295.218 226.004 295.218 224.835C295.218 223.716 295.877 222.992 297.128 222.992L302 222.992L302 221.214L296.947 221.214C294.807 221.214 293.556 222.531 293.556 224.374Z" fill="#1E3356"/>
<g opacity="0.3">
<path d="M287 509.764L297.017 500.999L306.749 509.514" stroke="#7D8CA6" stroke-width="2.46903"/>
<path d="M297 503L297 597.54C297 606.631 289.631 614 280.54 614L262 614" stroke="#7D8CA6" stroke-width="2.46903"/>
</g>
<g opacity="0.3">
<path d="M270.766 59L262.001 66.8745L270.516 74.5249" stroke="#7D8CA6" stroke-width="2.46903"/>
<path d="M297 195L297 83.3214C297 74.2307 289.631 66.8613 280.54 66.8613L262 66.8613" stroke="#7D8CA6" stroke-width="2.46903"/>
</g>
<g opacity="0.3">
<path d="M125.891 173.748L125.891 153.999" stroke="#7D8CA6" stroke-width="2.46903"/>
<path d="M116 165.801L126.017 174.565L135.749 166.05" stroke="#7D8CA6" stroke-width="2.46903"/>
</g>
<g opacity="0.3">
<path d="M125.891 351.748L125.891 331.999" stroke="#7D8CA6" stroke-width="2.46903"/>
<path d="M116 343.801L126.017 352.565L135.749 344.05" stroke="#7D8CA6" stroke-width="2.46903"/>
</g>
<g opacity="0.3">
<path d="M125.891 529.748L125.891 509.999" stroke="#7D8CA6" stroke-width="2.46903"/>
<path d="M116 521.801L126.017 530.565L135.749 522.05" stroke="#7D8CA6" stroke-width="2.46903"/>
</g>
<rect y="187" width="252" height="133" rx="4.93805" fill="white"/>
<rect y="365" width="252" height="133" rx="4.93805" fill="white"/>
<rect y="543" width="252" height="133" rx="4.93805" fill="white"/>
<path d="M61.9874 236.214C64.3906 236.214 66.0696 234.93 66.0696 232.823C66.0696 230.535 64.1437 229.943 62.2343 229.334C60.5554 228.807 59.9135 228.428 59.9135 227.539C59.9135 226.667 60.6212 226.107 61.7241 226.107C63.008 226.107 63.7322 226.799 64.1437 227.721L65.7404 226.799C65.0161 225.268 63.617 224.264 61.7241 224.264C59.7818 224.264 58.0205 225.465 58.0205 227.589C58.0205 229.762 59.7653 230.42 61.5595 230.963C63.2713 231.49 64.1766 231.836 64.1766 232.856C64.1766 233.696 63.5347 234.37 62.0368 234.37C60.4731 234.37 59.5842 233.597 59.1727 232.428L57.5432 233.383C58.1522 235.095 59.7159 236.214 61.9874 236.214ZM71.9365 229.482V227.77H69.8954V225.465L68.1177 225.992V227.77H66.6034V229.482H68.1177V233.432C68.1177 235.572 69.2041 236.329 71.9365 236V234.403C70.5867 234.469 69.8954 234.486 69.8954 233.432V229.482H71.9365ZM75.4068 229.153V227.77H73.6292V236H75.4068V231.852C75.4068 230.008 76.773 229.465 77.9417 229.548V227.622C76.9047 227.622 75.9007 228.033 75.4068 229.153ZM85.3876 227.77V228.939C84.7621 228.083 83.791 227.556 82.5071 227.556C80.2685 227.556 78.4085 229.432 78.4085 231.885C78.4085 234.321 80.2685 236.214 82.5071 236.214C83.791 236.214 84.7621 235.687 85.3876 234.815V236H87.1653V227.77H85.3876ZM82.7869 234.519C81.3055 234.519 80.1862 233.416 80.1862 231.885C80.1862 230.354 81.3055 229.251 82.7869 229.251C84.2683 229.251 85.3876 230.354 85.3876 231.885C85.3876 233.416 84.2683 234.519 82.7869 234.519ZM93.8298 229.482V227.77H91.7887V225.465L90.011 225.992V227.77H88.4967V229.482H90.011V233.432C90.011 235.572 91.0974 236.329 93.8298 236V234.403C92.48 234.469 91.7887 234.486 91.7887 233.432V229.482H93.8298ZM96.5037 232.642H103.055C103.088 232.412 103.121 232.148 103.121 231.901C103.121 229.531 101.442 227.556 98.9891 227.556C96.4049 227.556 94.6437 229.449 94.6437 231.885C94.6437 234.354 96.4049 236.214 99.1208 236.214C100.734 236.214 101.968 235.539 102.726 234.42L101.261 233.564C100.866 234.14 100.125 234.584 99.1373 234.584C97.8205 234.584 96.7835 233.926 96.5037 232.642ZM96.4872 231.194C96.7341 229.959 97.6394 229.169 98.9727 229.169C100.043 229.169 101.08 229.778 101.326 231.194H96.4872ZM111.188 227.77V228.988C110.562 228.099 109.591 227.556 108.324 227.556C106.003 227.556 104.176 229.449 104.176 231.803C104.176 234.156 106.003 236.049 108.324 236.049C109.591 236.049 110.562 235.506 111.188 234.617V235.621C111.188 237.053 110.266 237.893 108.735 237.893C107.303 237.893 106.694 237.333 106.332 236.625L104.801 237.514C105.493 238.831 106.892 239.506 108.702 239.506C110.859 239.506 112.933 238.272 112.933 235.621V227.77H111.188ZM108.571 234.387C107.073 234.387 105.953 233.284 105.953 231.803C105.953 230.321 107.073 229.218 108.571 229.218C110.069 229.218 111.188 230.321 111.188 231.803C111.188 233.284 110.069 234.387 108.571 234.387ZM120.552 227.77L118.445 233.745L115.992 227.77H114.05L117.54 235.852L117.457 236.016C117.046 237.103 116.42 237.695 115.268 237.63V239.292C117.161 239.407 118.511 238.354 119.284 236.263L122.445 227.77H120.552ZM137.251 235.424L135.753 233.794C136.214 233.054 136.527 232.198 136.708 231.358L135.095 230.436C134.98 231.21 134.782 231.885 134.502 232.445L131.704 229.416C131.161 228.823 130.716 228.313 130.716 227.572C130.716 226.684 131.441 226.107 132.346 226.107C133.251 226.107 133.959 226.667 134.272 227.589L135.885 226.667C135.259 225.103 133.877 224.264 132.329 224.264C130.387 224.264 128.823 225.548 128.823 227.523C128.823 228.362 129.087 228.988 129.482 229.531C128.149 230.255 127.457 231.49 127.457 232.84C127.457 234.947 129.103 236.214 131.408 236.214C132.741 236.214 133.794 235.786 134.617 235.128L135.72 236.313L137.251 235.424ZM131.506 234.453C130.124 234.453 129.367 233.745 129.367 232.692C129.367 232 129.696 231.243 130.585 230.799L133.416 233.844C132.889 234.239 132.264 234.453 131.506 234.453ZM147.143 236.214C149.662 236.214 151.505 234.667 151.505 232.181V224.478H149.612V232.066C149.612 233.416 148.839 234.37 147.143 234.37C145.448 234.37 144.674 233.416 144.674 232.066V224.478H142.781V232.181C142.781 234.667 144.608 236.214 147.143 236.214ZM161.999 236L158.394 230.074L161.801 224.478H159.645L157.307 228.313L154.97 224.478H152.83L156.238 230.074L152.616 236H154.773L157.307 231.836L159.842 236H161.999Z" fill="#1E3356"/>
<path d="M63.6005 414.214C65.7239 414.214 67.6004 413.128 68.555 411.449L66.909 410.51C66.3165 411.646 65.049 412.37 63.6005 412.37C61.115 412.37 59.469 410.609 59.469 408.239C59.469 405.869 61.115 404.107 63.6005 404.107C65.049 404.107 66.3 404.832 66.909 405.967L68.555 405.013C67.5839 403.334 65.7074 402.264 63.6005 402.264C60.0945 402.264 57.5761 404.898 57.5761 408.239C57.5761 411.58 60.0945 414.214 63.6005 414.214ZM71.8705 407.153V405.77H70.0928V414H71.8705V409.852C71.8705 408.008 73.2367 407.465 74.4054 407.548V405.622C73.3684 405.622 72.3643 406.033 71.8705 407.153ZM76.7322 410.642H83.2833C83.3162 410.412 83.3491 410.148 83.3491 409.901C83.3491 407.531 81.6702 405.556 79.2176 405.556C76.6334 405.556 74.8722 407.449 74.8722 409.885C74.8722 412.354 76.6334 414.214 79.3493 414.214C80.9624 414.214 82.1969 413.539 82.9541 412.42L81.4891 411.564C81.0941 412.14 80.3534 412.584 79.3658 412.584C78.049 412.584 77.012 411.926 76.7322 410.642ZM76.7157 409.194C76.9626 407.959 77.8679 407.169 79.2012 407.169C80.2711 407.169 81.3081 407.778 81.555 409.194H76.7157ZM91.3834 405.77V406.939C90.7579 406.083 89.7867 405.556 88.5028 405.556C86.2643 405.556 84.4043 407.432 84.4043 409.885C84.4043 412.321 86.2643 414.214 88.5028 414.214C89.7867 414.214 90.7579 413.687 91.3834 412.815V414H93.1611V405.77H91.3834ZM88.7827 412.519C87.3013 412.519 86.182 411.416 86.182 409.885C86.182 408.354 87.3013 407.251 88.7827 407.251C90.2641 407.251 91.3834 408.354 91.3834 409.885C91.3834 411.416 90.2641 412.519 88.7827 412.519ZM99.8255 407.482V405.77H97.7845V403.465L96.0068 403.992V405.77H94.4924V407.482H96.0068V411.432C96.0068 413.572 97.0931 414.329 99.8255 414V412.403C98.4758 412.469 97.7845 412.486 97.7845 411.432V407.482H99.8255ZM102.327 404.535C102.952 404.535 103.462 404.009 103.462 403.4C103.462 402.774 102.952 402.264 102.327 402.264C101.701 402.264 101.191 402.774 101.191 403.4C101.191 404.009 101.701 404.535 102.327 404.535ZM101.438 414H103.216V405.77H101.438V414ZM110.86 405.77L108.572 412.025L106.267 405.77H104.325L107.535 414H109.592L112.802 405.77H110.86ZM115.005 410.642H121.556C121.589 410.412 121.622 410.148 121.622 409.901C121.622 407.531 119.943 405.556 117.491 405.556C114.907 405.556 113.145 407.449 113.145 409.885C113.145 412.354 114.907 414.214 117.622 414.214C119.236 414.214 120.47 413.539 121.227 412.42L119.762 411.564C119.367 412.14 118.627 412.584 117.639 412.584C116.322 412.584 115.285 411.926 115.005 410.642ZM114.989 409.194C115.236 407.959 116.141 407.169 117.474 407.169C118.544 407.169 119.581 407.778 119.828 409.194H114.989ZM136.881 413.424L135.383 411.794C135.844 411.054 136.157 410.198 136.338 409.358L134.725 408.436C134.61 409.21 134.412 409.885 134.133 410.445L131.334 407.416C130.791 406.823 130.347 406.313 130.347 405.572C130.347 404.684 131.071 404.107 131.976 404.107C132.882 404.107 133.589 404.667 133.902 405.589L135.515 404.667C134.89 403.103 133.507 402.264 131.96 402.264C130.017 402.264 128.454 403.548 128.454 405.523C128.454 406.362 128.717 406.988 129.112 407.531C127.779 408.255 127.088 409.49 127.088 410.84C127.088 412.947 128.734 414.214 131.038 414.214C132.371 414.214 133.425 413.786 134.248 413.128L135.351 414.313L136.881 413.424ZM131.137 412.453C129.754 412.453 128.997 411.745 128.997 410.692C128.997 410 129.326 409.243 130.215 408.799L133.046 411.844C132.519 412.239 131.894 412.453 131.137 412.453ZM149.308 408.025C150.033 407.498 150.477 406.675 150.477 405.671C150.477 403.828 148.963 402.478 147.103 402.478H142.527V414H147.465C149.374 414 150.921 412.617 150.921 410.708C150.921 409.473 150.279 408.535 149.308 408.025ZM147.103 404.256C147.942 404.256 148.584 404.914 148.584 405.77C148.584 406.626 147.942 407.284 147.103 407.284H144.42V404.256H147.103ZM147.465 412.222H144.42V408.996H147.465C148.354 408.996 149.028 409.704 149.028 410.609C149.028 411.515 148.354 412.222 147.465 412.222ZM158.166 405.77V410.181C158.166 411.86 157.244 412.552 156.075 412.552C154.956 412.552 154.232 411.893 154.232 410.642V405.77H152.454V410.823C152.454 412.963 153.771 414.214 155.614 414.214C156.734 414.214 157.623 413.802 158.166 412.947V414H159.943V405.77H158.166ZM162.911 404.535C163.537 404.535 164.047 404.009 164.047 403.4C164.047 402.774 163.537 402.264 162.911 402.264C162.286 402.264 161.775 402.774 161.775 403.4C161.775 404.009 162.286 404.535 162.911 404.535ZM162.022 414H163.8V405.77H162.022V414ZM165.864 414H167.642V401.984H165.864V414ZM176.224 402.478V406.939C175.599 406.083 174.627 405.556 173.343 405.556C171.105 405.556 169.245 407.432 169.245 409.885C169.245 412.321 171.105 414.214 173.343 414.214C174.627 414.214 175.599 413.687 176.224 412.815V414H178.002V402.478H176.224ZM173.623 412.519C172.142 412.519 171.023 411.416 171.023 409.885C171.023 408.354 172.142 407.251 173.623 407.251C175.105 407.251 176.224 408.354 176.224 409.885C176.224 411.416 175.105 412.519 173.623 412.519Z" fill="#1E3356"/>
<path d="M60.0451 590.189V587.078H64.654V585.284H60.0451V582.288H65.0655V580.478H58.1522V592H65.1478V590.189H60.0451ZM74.1231 592L71.045 587.786L73.9749 583.77H71.901L70.008 586.371L68.1151 583.77H66.0576L68.9875 587.77L65.893 592H67.967L70.0245 589.185L72.0656 592H74.1231ZM79.9752 583.556C78.6913 583.556 77.7201 584.083 77.0947 584.955V583.77H75.317V595.292H77.0947V590.831C77.7201 591.687 78.6913 592.214 79.9752 592.214C82.2138 592.214 84.0738 590.338 84.0738 587.885C84.0738 585.449 82.2138 583.556 79.9752 583.556ZM79.6954 590.519C78.214 590.519 77.0947 589.416 77.0947 587.885C77.0947 586.354 78.214 585.251 79.6954 585.251C81.1768 585.251 82.2961 586.354 82.2961 587.885C82.2961 589.416 81.1768 590.519 79.6954 590.519ZM87.0841 588.642H93.6352C93.6681 588.412 93.7011 588.148 93.7011 587.901C93.7011 585.531 92.0221 583.556 89.5695 583.556C86.9853 583.556 85.2241 585.449 85.2241 587.885C85.2241 590.354 86.9853 592.214 89.7012 592.214C91.3143 592.214 92.5488 591.539 93.306 590.42L91.8411 589.564C91.446 590.14 90.7053 590.584 89.7177 590.584C88.4009 590.584 87.3639 589.926 87.0841 588.642ZM87.0676 587.194C87.3145 585.959 88.2198 585.169 89.5531 585.169C90.623 585.169 91.66 585.778 91.9069 587.194H87.0676ZM97.043 585.153V583.77H95.2653V592H97.043V587.852C97.043 586.008 98.4092 585.465 99.5778 585.548V583.622C98.5409 583.622 97.5368 584.033 97.043 585.153ZM101.78 582.535C102.406 582.535 102.916 582.009 102.916 581.4C102.916 580.774 102.406 580.264 101.78 580.264C101.155 580.264 100.644 580.774 100.644 581.4C100.644 582.009 101.155 582.535 101.78 582.535ZM100.891 592H102.669V583.77H100.891V592ZM113.72 583.556C112.618 583.556 111.745 584 111.202 584.856C110.725 584.033 109.935 583.556 108.865 583.556C107.844 583.556 107.038 583.951 106.511 584.758V583.77H104.733V592H106.511V587.391C106.511 585.893 107.334 585.218 108.338 585.218C109.309 585.218 109.885 585.86 109.885 587.013V592H111.663V587.391C111.663 585.893 112.404 585.218 113.457 585.218C114.428 585.218 115.054 585.86 115.054 587.013V592H116.831V586.897C116.831 584.84 115.58 583.556 113.72 583.556ZM120.133 588.642H126.684C126.717 588.412 126.75 588.148 126.75 587.901C126.75 585.531 125.071 583.556 122.618 583.556C120.034 583.556 118.273 585.449 118.273 587.885C118.273 590.354 120.034 592.214 122.75 592.214C124.363 592.214 125.598 591.539 126.355 590.42L124.89 589.564C124.495 590.14 123.754 590.584 122.767 590.584C121.45 590.584 120.413 589.926 120.133 588.642ZM120.117 587.194C120.363 585.959 121.269 585.169 122.602 585.169C123.672 585.169 124.709 585.778 124.956 587.194H120.117ZM132.643 583.556C131.524 583.556 130.635 583.967 130.092 584.823V583.77H128.314V592H130.092V587.589C130.092 585.91 131.014 585.218 132.182 585.218C133.302 585.218 134.026 585.877 134.026 587.128V592H135.804V586.947C135.804 584.807 134.487 583.556 132.643 583.556ZM142.31 585.482V583.77H140.269V581.465L138.491 581.992V583.77H136.977V585.482H138.491V589.432C138.491 591.572 139.578 592.329 142.31 592V590.403C140.96 590.469 140.269 590.486 140.269 589.432V585.482H142.31ZM157.698 591.424L156.2 589.794C156.661 589.054 156.973 588.198 157.155 587.358L155.541 586.436C155.426 587.21 155.229 587.885 154.949 588.445L152.151 585.416C151.607 584.823 151.163 584.313 151.163 583.572C151.163 582.684 151.887 582.107 152.793 582.107C153.698 582.107 154.406 582.667 154.718 583.589L156.332 582.667C155.706 581.103 154.323 580.264 152.776 580.264C150.834 580.264 149.27 581.548 149.27 583.523C149.27 584.362 149.533 584.988 149.928 585.531C148.595 586.255 147.904 587.49 147.904 588.84C147.904 590.947 149.55 592.214 151.854 592.214C153.188 592.214 154.241 591.786 155.064 591.128L156.167 592.313L157.698 591.424ZM151.953 590.453C150.57 590.453 149.813 589.745 149.813 588.692C149.813 588 150.142 587.243 151.031 586.799L153.862 589.844C153.336 590.239 152.71 590.453 151.953 590.453ZM165.236 590.189V580.478H163.343V592H169.927V590.189H165.236ZM172.359 588.642H178.91C178.943 588.412 178.976 588.148 178.976 587.901C178.976 585.531 177.297 583.556 174.844 583.556C172.26 583.556 170.499 585.449 170.499 587.885C170.499 590.354 172.26 592.214 174.976 592.214C176.589 592.214 177.823 591.539 178.581 590.42L177.116 589.564C176.721 590.14 175.98 590.584 174.992 590.584C173.676 590.584 172.639 589.926 172.359 588.642ZM172.342 587.194C172.589 585.959 173.494 585.169 174.828 585.169C175.898 585.169 176.935 585.778 177.182 587.194H172.342ZM187.01 583.77V584.939C186.384 584.083 185.413 583.556 184.129 583.556C181.891 583.556 180.031 585.432 180.031 587.885C180.031 590.321 181.891 592.214 184.129 592.214C185.413 592.214 186.384 591.687 187.01 590.815V592H188.788V583.77H187.01ZM184.409 590.519C182.928 590.519 181.809 589.416 181.809 587.885C181.809 586.354 182.928 585.251 184.409 585.251C185.891 585.251 187.01 586.354 187.01 587.885C187.01 589.416 185.891 590.519 184.409 590.519ZM192.637 585.153V583.77H190.86V592H192.637V587.852C192.637 586.008 194.004 585.465 195.172 585.548V583.622C194.135 583.622 193.131 584.033 192.637 585.153ZM200.815 583.556C199.695 583.556 198.807 583.967 198.263 584.823V583.77H196.486V592H198.263V587.589C198.263 585.91 199.185 585.218 200.354 585.218C201.473 585.218 202.197 585.877 202.197 587.128V592H203.975V586.947C203.975 584.807 202.658 583.556 200.815 583.556Z" fill="#1E3356"/>
<path d="M26.7986 236H38.6739V233.141H31.2035L35.2736 229.071C36.9995 227.319 38.339 225.438 38.339 223.197C38.339 219.617 35.5312 217.633 32.5688 217.633C30.1731 217.633 27.9062 218.818 26.747 221.291L29.2458 222.759C29.9413 221.317 31.1005 220.518 32.5946 220.518C34.1402 220.518 35.3766 221.497 35.3766 223.3C35.3766 224.666 34.372 225.979 33.084 227.267L26.7986 233.682V236Z" fill="#E86DBD"/>
<path d="M34.6039 403.335L38.2618 398.492V395.968H27.185V398.75H34.7327L30.8429 403.876L32.0279 405.654H32.6976C34.7327 405.654 36.0465 406.736 36.0465 408.539C36.0465 410.342 34.7327 411.45 32.6976 411.45C30.8944 411.45 29.6837 410.651 29.1685 409.131L26.644 410.6C27.6487 413.124 30.0443 414.335 32.6976 414.335C36.0207 414.335 39.0089 412.326 39.0089 408.539C39.0089 405.731 37.0769 403.928 34.6039 403.335Z" fill="#6361B5"/>
<path d="M40.503 585.998H38.4422V581.31H35.454V585.998H29.8125L36.0207 573.968H32.8007L26.5925 585.998V588.754H35.454V592H38.4422V588.754H40.503V585.998Z" fill="#72D798"/>
<path d="M64.1898 266.789H65.1642L61.622 257.571H60.6739L57.1317 266.789H58.1061L58.9621 264.524H63.3339L64.1898 266.789ZM59.2913 263.655L61.148 258.717L63.0047 263.655H59.2913ZM69.1557 266.947C70.4462 266.947 71.5655 266.276 72.1054 265.235L71.3812 264.814C70.9598 265.578 70.1565 266.104 69.1557 266.104C67.6941 266.104 66.5616 264.959 66.5616 263.497C66.5616 262.035 67.6941 260.89 69.1557 260.89C70.1433 260.89 70.9729 261.403 71.3285 262.18L72.0396 261.772C71.5655 260.732 70.4594 260.047 69.1557 260.047C67.1673 260.047 65.6925 261.548 65.6925 263.497C65.6925 265.446 67.1673 266.947 69.1557 266.947ZM76.8427 261.048V260.205H74.9465V258.361L74.0774 258.625V260.205H72.6948V261.048H74.0774V265.038C74.0774 266.618 75.065 267.052 76.8427 266.789V266.025C75.5654 266.078 74.9465 266.17 74.9465 265.038V261.048H76.8427ZM78.7258 258.809C79.0813 258.809 79.3579 258.519 79.3579 258.177C79.3579 257.835 79.0813 257.545 78.7258 257.545C78.3702 257.545 78.0937 257.835 78.0937 258.177C78.0937 258.519 78.3702 258.809 78.7258 258.809ZM78.2912 266.789H79.1603V260.205H78.2912V266.789ZM84.0728 266.947C85.9953 266.947 87.536 265.446 87.536 263.497C87.536 261.548 85.9953 260.047 84.0728 260.047C82.1502 260.047 80.6096 261.548 80.6096 263.497C80.6096 265.446 82.1502 266.947 84.0728 266.947ZM84.0728 266.104C82.6111 266.104 81.4786 264.959 81.4786 263.497C81.4786 262.035 82.6111 260.89 84.0728 260.89C85.5344 260.89 86.6669 262.035 86.6669 263.497C86.6669 264.959 85.5344 266.104 84.0728 266.104ZM92.0717 260.047C91.1368 260.047 90.373 260.403 89.8595 261.232V260.205H88.9904V266.789H89.8595V263.339C89.8595 261.574 90.8339 260.89 91.9927 260.89C93.1383 260.89 93.7836 261.574 93.7836 262.746V266.789H94.6527V262.746C94.6527 261.1 93.6782 260.047 92.0717 260.047ZM101.995 260.205V261.495C101.442 260.613 100.507 260.047 99.3355 260.047C97.4788 260.047 95.9381 261.548 95.9381 263.497C95.9381 265.446 97.4788 266.947 99.3355 266.947C100.507 266.947 101.442 266.381 101.995 265.499V266.789H102.865V260.205H101.995ZM99.4013 266.104C97.9396 266.104 96.8072 264.959 96.8072 263.497C96.8072 262.035 97.9396 260.89 99.4013 260.89C100.863 260.89 101.995 262.035 101.995 263.497C101.995 264.959 100.863 266.104 99.4013 266.104ZM108.234 260.047C107.062 260.047 106.127 260.613 105.574 261.495V257.571H104.705V266.789H105.574V265.499C106.127 266.381 107.062 266.947 108.234 266.947C110.09 266.947 111.631 265.446 111.631 263.497C111.631 261.548 110.09 260.047 108.234 260.047ZM108.168 266.104C106.706 266.104 105.574 264.959 105.574 263.497C105.574 262.035 106.706 260.89 108.168 260.89C109.63 260.89 110.762 262.035 110.762 263.497C110.762 264.959 109.63 266.104 108.168 266.104ZM113.076 266.789H113.945V257.176H113.076V266.789ZM118.831 260.047C116.79 260.047 115.395 261.561 115.395 263.497C115.395 265.485 116.817 266.947 118.897 266.947C120.227 266.947 121.241 266.328 121.794 265.433L121.03 264.985C120.675 265.617 119.951 266.104 118.91 266.104C117.515 266.104 116.474 265.275 116.29 263.932H122.071C122.084 263.8 122.097 263.655 122.097 263.523C122.097 261.719 120.846 260.047 118.831 260.047ZM118.831 260.89C119.964 260.89 121.017 261.64 121.202 263.089H116.29C116.461 261.798 117.449 260.89 118.831 260.89ZM127.456 261.93C127.456 261.219 128.154 260.89 128.839 260.89C129.471 260.89 130.143 261.14 130.419 261.812L131.143 261.39C130.762 260.574 129.919 260.047 128.839 260.047C127.522 260.047 126.587 260.877 126.587 261.93C126.587 264.353 130.432 263.418 130.432 265.051C130.432 265.828 129.695 266.104 128.918 266.104C128.036 266.104 127.351 265.67 127.114 264.998L126.377 265.433C126.706 266.276 127.601 266.947 128.918 266.947C130.327 266.947 131.301 266.17 131.301 265.051C131.301 262.628 127.456 263.563 127.456 261.93ZM135.627 266.947C137.549 266.947 139.09 265.446 139.09 263.497C139.09 261.548 137.549 260.047 135.627 260.047C133.704 260.047 132.163 261.548 132.163 263.497C132.163 265.446 133.704 266.947 135.627 266.947ZM135.627 266.104C134.165 266.104 133.032 264.959 133.032 263.497C133.032 262.035 134.165 260.89 135.627 260.89C137.088 260.89 138.221 262.035 138.221 263.497C138.221 264.959 137.088 266.104 135.627 266.104ZM140.544 266.789H141.413V257.176H140.544V266.789ZM147.893 260.205V263.655C147.893 265.42 146.918 266.104 145.759 266.104C144.614 266.104 143.969 265.42 143.969 264.248V260.205H143.099V264.248C143.099 265.894 144.074 266.947 145.68 266.947C146.615 266.947 147.379 266.592 147.893 265.762V266.789H148.762V260.205H147.893ZM154.09 261.048V260.205H152.194V258.361L151.325 258.625V260.205H149.942V261.048H151.325V265.038C151.325 266.618 152.312 267.052 154.09 266.789V266.025C152.813 266.078 152.194 266.17 152.194 265.038V261.048H154.09ZM155.973 258.809C156.328 258.809 156.605 258.519 156.605 258.177C156.605 257.835 156.328 257.545 155.973 257.545C155.617 257.545 155.341 257.835 155.341 258.177C155.341 258.519 155.617 258.809 155.973 258.809ZM155.538 266.789H156.407V260.205H155.538V266.789ZM161.32 266.947C163.242 266.947 164.783 265.446 164.783 263.497C164.783 261.548 163.242 260.047 161.32 260.047C159.397 260.047 157.857 261.548 157.857 263.497C157.857 265.446 159.397 266.947 161.32 266.947ZM161.32 266.104C159.858 266.104 158.726 264.959 158.726 263.497C158.726 262.035 159.858 260.89 161.32 260.89C162.782 260.89 163.914 262.035 163.914 263.497C163.914 264.959 162.782 266.104 161.32 266.104ZM169.319 260.047C168.384 260.047 167.62 260.403 167.107 261.232V260.205H166.237V266.789H167.107V263.339C167.107 261.574 168.081 260.89 169.24 260.89C170.385 260.89 171.031 261.574 171.031 262.746V266.789H171.9V262.746C171.9 261.1 170.925 260.047 169.319 260.047ZM174.265 261.93C174.265 261.219 174.963 260.89 175.648 260.89C176.28 260.89 176.951 261.14 177.228 261.812L177.952 261.39C177.57 260.574 176.727 260.047 175.648 260.047C174.331 260.047 173.396 260.877 173.396 261.93C173.396 264.353 177.241 263.418 177.241 265.051C177.241 265.828 176.504 266.104 175.727 266.104C174.844 266.104 174.16 265.67 173.923 264.998L173.185 265.433C173.514 266.276 174.41 266.947 175.727 266.947C177.136 266.947 178.11 266.17 178.11 265.051C178.11 262.628 174.265 263.563 174.265 261.93ZM186.341 261.048V260.205H184.445V258.361L183.576 258.625V260.205H182.194V261.048H183.576V265.038C183.576 266.618 184.564 267.052 186.341 266.789V266.025C185.064 266.078 184.445 266.17 184.445 265.038V261.048H186.341ZM190.871 260.047C189.936 260.047 189.173 260.403 188.659 261.232V257.571H187.79V266.789H188.659V263.339C188.659 261.574 189.634 260.89 190.792 260.89C191.938 260.89 192.583 261.574 192.583 262.746V266.789H193.452V262.746C193.452 261.1 192.478 260.047 190.871 260.047ZM200.795 260.205V261.495C200.242 260.613 199.307 260.047 198.135 260.047C196.278 260.047 194.738 261.548 194.738 263.497C194.738 265.446 196.278 266.947 198.135 266.947C199.307 266.947 200.242 266.381 200.795 265.499V266.789H201.664V260.205H200.795ZM198.201 266.104C196.739 266.104 195.607 264.959 195.607 263.497C195.607 262.035 196.739 260.89 198.201 260.89C199.663 260.89 200.795 262.035 200.795 263.497C200.795 264.959 199.663 266.104 198.201 266.104ZM206.994 261.048V260.205H205.098V258.361L204.229 258.625V260.205H202.846V261.048H204.229V265.038C204.229 266.618 205.216 267.052 206.994 266.789V266.025C205.717 266.078 205.098 266.17 205.098 265.038V261.048H206.994ZM61.4508 278.047C60.2789 278.047 59.3439 278.613 58.7909 279.495V278.205H57.9218V287.423H58.7909V283.499C59.3439 284.381 60.2789 284.947 61.4508 284.947C63.3075 284.947 64.8482 283.446 64.8482 281.497C64.8482 279.548 63.3075 278.047 61.4508 278.047ZM61.385 284.104C59.9233 284.104 58.7909 282.959 58.7909 281.497C58.7909 280.035 59.9233 278.89 61.385 278.89C62.8467 278.89 63.9791 280.035 63.9791 281.497C63.9791 282.959 62.8467 284.104 61.385 284.104ZM70.9285 278.205V281.655C70.9285 283.42 69.9541 284.104 68.7953 284.104C67.6496 284.104 67.0044 283.42 67.0044 282.248V278.205H66.1353V282.248C66.1353 283.894 67.1097 284.947 68.7163 284.947C69.6512 284.947 70.4149 284.592 70.9285 283.762V284.789H71.7976V278.205H70.9285ZM74.3208 279.93C74.3208 279.219 75.0187 278.89 75.7035 278.89C76.3356 278.89 77.0071 279.14 77.2837 279.812L78.0079 279.39C77.626 278.574 76.7833 278.047 75.7035 278.047C74.3867 278.047 73.4517 278.877 73.4517 279.93C73.4517 282.353 77.2968 281.418 77.2968 283.051C77.2968 283.828 76.5594 284.104 75.7825 284.104C74.9002 284.104 74.2155 283.67 73.9785 282.998L73.2411 283.433C73.5703 284.276 74.4657 284.947 75.7825 284.947C77.1915 284.947 78.1659 284.17 78.1659 283.051C78.1659 280.628 74.3208 281.563 74.3208 279.93ZM82.6328 278.047C81.6979 278.047 80.9341 278.403 80.4206 279.232V275.571H79.5515V284.789H80.4206V281.339C80.4206 279.574 81.395 278.89 82.5538 278.89C83.6994 278.89 84.3447 279.574 84.3447 280.746V284.789H85.2138V280.746C85.2138 279.1 84.2393 278.047 82.6328 278.047ZM93.7154 278.047C92.5434 278.047 91.6084 278.613 91.0554 279.495V275.571H90.1863V284.789H91.0554V283.499C91.6084 284.381 92.5434 284.947 93.7154 284.947C95.5721 284.947 97.1127 283.446 97.1127 281.497C97.1127 279.548 95.5721 278.047 93.7154 278.047ZM93.6495 284.104C92.1878 284.104 91.0554 282.959 91.0554 281.497C91.0554 280.035 92.1878 278.89 93.6495 278.89C95.1112 278.89 96.2436 280.035 96.2436 281.497C96.2436 282.959 95.1112 284.104 93.6495 284.104ZM101.626 284.947C103.549 284.947 105.089 283.446 105.089 281.497C105.089 279.548 103.549 278.047 101.626 278.047C99.7035 278.047 98.1628 279.548 98.1628 281.497C98.1628 283.446 99.7035 284.947 101.626 284.947ZM101.626 284.104C100.164 284.104 99.0319 282.959 99.0319 281.497C99.0319 280.035 100.164 278.89 101.626 278.89C103.088 278.89 104.22 280.035 104.22 281.497C104.22 282.959 103.088 284.104 101.626 284.104ZM111.179 278.205V281.655C111.179 283.42 110.204 284.104 109.046 284.104C107.9 284.104 107.255 283.42 107.255 282.248V278.205H106.386V282.248C106.386 283.894 107.36 284.947 108.967 284.947C109.901 284.947 110.665 284.592 111.179 283.762V284.789H112.048V278.205H111.179ZM116.968 278.047C116.033 278.047 115.269 278.403 114.755 279.232V278.205H113.886V284.789H114.755V281.339C114.755 279.574 115.73 278.89 116.889 278.89C118.034 278.89 118.68 279.574 118.68 280.746V284.789H119.549V280.746C119.549 279.1 118.574 278.047 116.968 278.047ZM126.891 275.571V279.495C126.338 278.613 125.403 278.047 124.231 278.047C122.375 278.047 120.834 279.548 120.834 281.497C120.834 283.446 122.375 284.947 124.231 284.947C125.403 284.947 126.338 284.381 126.891 283.499V284.789H127.761V275.571H126.891ZM124.297 284.104C122.836 284.104 121.703 282.959 121.703 281.497C121.703 280.035 122.836 278.89 124.297 278.89C125.759 278.89 126.891 280.035 126.891 281.497C126.891 282.959 125.759 284.104 124.297 284.104ZM135.263 278.205V279.495C134.71 278.613 133.775 278.047 132.603 278.047C130.746 278.047 129.206 279.548 129.206 281.497C129.206 283.446 130.746 284.947 132.603 284.947C133.775 284.947 134.71 284.381 135.263 283.499V284.789H136.132V278.205H135.263ZM132.669 284.104C131.207 284.104 130.075 282.959 130.075 281.497C130.075 280.035 131.207 278.89 132.669 278.89C134.131 278.89 135.263 280.035 135.263 281.497C135.263 282.959 134.131 284.104 132.669 284.104ZM138.841 279.298V278.205H137.972V284.789H138.841V281.128C138.841 279.495 139.868 278.942 140.922 278.942V278.1C140.079 278.1 139.302 278.376 138.841 279.298ZM142.548 276.809C142.903 276.809 143.18 276.519 143.18 276.177C143.18 275.835 142.903 275.545 142.548 275.545C142.192 275.545 141.915 275.835 141.915 276.177C141.915 276.519 142.192 276.809 142.548 276.809ZM142.113 284.789H142.982V278.205H142.113V284.789ZM147.868 278.047C145.827 278.047 144.431 279.561 144.431 281.497C144.431 283.485 145.853 284.947 147.934 284.947C149.264 284.947 150.278 284.328 150.831 283.433L150.067 282.985C149.712 283.617 148.987 284.104 147.947 284.104C146.551 284.104 145.511 283.275 145.327 281.932H151.108C151.121 281.8 151.134 281.655 151.134 281.523C151.134 279.719 149.883 278.047 147.868 278.047ZM147.868 278.89C149.001 278.89 150.054 279.64 150.238 281.089H145.327C145.498 279.798 146.486 278.89 147.868 278.89ZM152.944 279.93C152.944 279.219 153.642 278.89 154.327 278.89C154.959 278.89 155.63 279.14 155.907 279.812L156.631 279.39C156.249 278.574 155.406 278.047 154.327 278.047C153.01 278.047 152.075 278.877 152.075 279.93C152.075 282.353 155.92 281.418 155.92 283.051C155.92 283.828 155.182 284.104 154.406 284.104C153.523 284.104 152.839 283.67 152.602 282.998L151.864 283.433C152.193 284.276 153.089 284.947 154.406 284.947C155.815 284.947 156.789 284.17 156.789 283.051C156.789 280.628 152.944 281.563 152.944 279.93Z" fill="#516689"/>
<path d="M61.3455 444.947C63.3602 444.947 64.7692 443.67 64.7692 441.655V435.571H63.8474V441.655C63.8474 443.117 62.9388 444.052 61.3455 444.052C59.7521 444.052 58.8435 443.117 58.8435 441.655V435.571H57.9218V441.655C57.9218 443.67 59.3308 444.947 61.3455 444.947ZM69.6961 438.047C68.7612 438.047 67.9975 438.403 67.4839 439.232V438.205H66.6148V444.789H67.4839V441.339C67.4839 439.574 68.4583 438.89 69.6171 438.89C70.7628 438.89 71.408 439.574 71.408 440.746V444.789H72.2771V440.746C72.2771 439.1 71.3027 438.047 69.6961 438.047ZM74.3921 436.809C74.7477 436.809 75.0242 436.519 75.0242 436.177C75.0242 435.835 74.7477 435.545 74.3921 435.545C74.0366 435.545 73.7601 435.835 73.7601 436.177C73.7601 436.519 74.0366 436.809 74.3921 436.809ZM73.9576 444.789H74.8267V438.205H73.9576V444.789ZM82.3332 438.205V439.495C81.7802 438.613 80.8452 438.047 79.6733 438.047C77.8166 438.047 76.2759 439.548 76.2759 441.497C76.2759 443.446 77.8166 444.947 79.6733 444.947C80.8452 444.947 81.7802 444.381 82.3332 443.499V447.423H83.2023V438.205H82.3332ZM79.7391 444.104C78.2775 444.104 77.145 442.959 77.145 441.497C77.145 440.035 78.2775 438.89 79.7391 438.89C81.2008 438.89 82.3332 440.035 82.3332 441.497C82.3332 442.959 81.2008 444.104 79.7391 444.104ZM89.6777 438.205V441.655C89.6777 443.42 88.7032 444.104 87.5444 444.104C86.3988 444.104 85.7536 443.42 85.7536 442.248V438.205H84.8845V442.248C84.8845 443.894 85.8589 444.947 87.4654 444.947C88.4004 444.947 89.1641 444.592 89.6777 443.762V444.789H90.5468V438.205H89.6777ZM95.4271 438.047C93.386 438.047 91.9902 439.561 91.9902 441.497C91.9902 443.485 93.4124 444.947 95.4929 444.947C96.8229 444.947 97.8369 444.328 98.3899 443.433L97.6262 442.985C97.2706 443.617 96.5464 444.104 95.5061 444.104C94.1103 444.104 93.07 443.275 92.8857 441.932H98.6665C98.6796 441.8 98.6928 441.655 98.6928 441.523C98.6928 439.719 97.4418 438.047 95.4271 438.047ZM95.4271 438.89C96.5596 438.89 97.613 439.64 97.7974 441.089H92.8857C93.0568 439.798 94.0444 438.89 95.4271 438.89ZM106.409 438.047C104.368 438.047 102.972 439.561 102.972 441.497C102.972 443.485 104.394 444.947 106.475 444.947C107.805 444.947 108.819 444.328 109.372 443.433L108.608 442.985C108.253 443.617 107.528 444.104 106.488 444.104C105.092 444.104 104.052 443.275 103.868 441.932H109.648C109.662 441.8 109.675 441.655 109.675 441.523C109.675 439.719 108.424 438.047 106.409 438.047ZM106.409 438.89C107.542 438.89 108.595 439.64 108.779 441.089H103.868C104.039 439.798 105.026 438.89 106.409 438.89ZM116.331 444.789L113.763 441.379L116.16 438.205H115.119L113.236 440.694L111.353 438.205H110.313L112.723 441.379L110.142 444.789H111.182L113.236 442.076L115.29 444.789H116.331ZM121.042 438.047C119.87 438.047 118.935 438.613 118.382 439.495V438.205H117.513V447.423H118.382V443.499C118.935 444.381 119.87 444.947 121.042 444.947C122.899 444.947 124.439 443.446 124.439 441.497C124.439 439.548 122.899 438.047 121.042 438.047ZM120.976 444.104C119.514 444.104 118.382 442.959 118.382 441.497C118.382 440.035 119.514 438.89 120.976 438.89C122.438 438.89 123.57 440.035 123.57 441.497C123.57 442.959 122.438 444.104 120.976 444.104ZM128.926 438.047C126.885 438.047 125.489 439.561 125.489 441.497C125.489 443.485 126.911 444.947 128.992 444.947C130.322 444.947 131.336 444.328 131.889 443.433L131.125 442.985C130.77 443.617 130.045 444.104 129.005 444.104C127.609 444.104 126.569 443.275 126.385 441.932H132.165C132.179 441.8 132.192 441.655 132.192 441.523C132.192 439.719 130.941 438.047 128.926 438.047ZM128.926 438.89C130.059 438.89 131.112 439.64 131.296 441.089H126.385C126.556 439.798 127.543 438.89 128.926 438.89ZM134.443 439.298V438.205H133.574V444.789H134.443V441.128C134.443 439.495 135.47 438.942 136.524 438.942V438.1C135.681 438.1 134.904 438.376 134.443 439.298ZM138.15 436.809C138.505 436.809 138.782 436.519 138.782 436.177C138.782 435.835 138.505 435.545 138.15 435.545C137.794 435.545 137.518 435.835 137.518 436.177C137.518 436.519 137.794 436.809 138.15 436.809ZM137.715 444.789H138.584V438.205H137.715V444.789ZM143.47 438.047C141.429 438.047 140.033 439.561 140.033 441.497C140.033 443.485 141.456 444.947 143.536 444.947C144.866 444.947 145.88 444.328 146.433 443.433L145.669 442.985C145.314 443.617 144.59 444.104 143.549 444.104C142.153 444.104 141.113 443.275 140.929 441.932H146.71C146.723 441.8 146.736 441.655 146.736 441.523C146.736 439.719 145.485 438.047 143.47 438.047ZM143.47 438.89C144.603 438.89 145.656 439.64 145.841 441.089H140.929C141.1 439.798 142.088 438.89 143.47 438.89ZM151.2 438.047C150.265 438.047 149.501 438.403 148.987 439.232V438.205H148.118V444.789H148.987V441.339C148.987 439.574 149.962 438.89 151.121 438.89C152.266 438.89 152.912 439.574 152.912 440.746V444.789H153.781V440.746C153.781 439.1 152.806 438.047 151.2 438.047ZM158.529 444.947C159.82 444.947 160.939 444.276 161.479 443.235L160.755 442.814C160.333 443.578 159.53 444.104 158.529 444.104C157.068 444.104 155.935 442.959 155.935 441.497C155.935 440.035 157.068 438.89 158.529 438.89C159.517 438.89 160.347 439.403 160.702 440.18L161.413 439.772C160.939 438.732 159.833 438.047 158.529 438.047C156.541 438.047 155.066 439.548 155.066 441.497C155.066 443.446 156.541 444.947 158.529 444.947ZM165.704 438.047C163.663 438.047 162.267 439.561 162.267 441.497C162.267 443.485 163.69 444.947 165.77 444.947C167.1 444.947 168.114 444.328 168.667 443.433L167.903 442.985C167.548 443.617 166.824 444.104 165.783 444.104C164.388 444.104 163.347 443.275 163.163 441.932H168.944C168.957 441.8 168.97 441.655 168.97 441.523C168.97 439.719 167.719 438.047 165.704 438.047ZM165.704 438.89C166.837 438.89 167.89 439.64 168.075 441.089H163.163C163.334 439.798 164.322 438.89 165.704 438.89ZM170.78 439.93C170.78 439.219 171.478 438.89 172.163 438.89C172.795 438.89 173.466 439.14 173.743 439.812L174.467 439.39C174.085 438.574 173.242 438.047 172.163 438.047C170.846 438.047 169.911 438.877 169.911 439.93C169.911 442.353 173.756 441.418 173.756 443.051C173.756 443.828 173.019 444.104 172.242 444.104C171.359 444.104 170.675 443.67 170.438 442.998L169.7 443.433C170.029 444.276 170.925 444.947 172.242 444.947C173.651 444.947 174.625 444.17 174.625 443.051C174.625 440.628 170.78 441.563 170.78 439.93ZM182.857 439.048V438.205H180.96V436.361L180.091 436.625V438.205H178.709V439.048H180.091V443.038C180.091 444.618 181.079 445.052 182.857 444.789V444.025C181.579 444.078 180.96 444.17 180.96 443.038V439.048H182.857ZM187.386 438.047C186.451 438.047 185.688 438.403 185.174 439.232V435.571H184.305V444.789H185.174V441.339C185.174 439.574 186.149 438.89 187.307 438.89C188.453 438.89 189.098 439.574 189.098 440.746V444.789H189.967V440.746C189.967 439.1 188.993 438.047 187.386 438.047ZM197.31 438.205V439.495C196.757 438.613 195.822 438.047 194.65 438.047C192.793 438.047 191.253 439.548 191.253 441.497C191.253 443.446 192.793 444.947 194.65 444.947C195.822 444.947 196.757 444.381 197.31 443.499V444.789H198.179V438.205H197.31ZM194.716 444.104C193.254 444.104 192.122 442.959 192.122 441.497C192.122 440.035 193.254 438.89 194.716 438.89C196.178 438.89 197.31 440.035 197.31 441.497C197.31 442.959 196.178 444.104 194.716 444.104ZM203.509 439.048V438.205H201.613V436.361L200.744 436.625V438.205H199.361V439.048H200.744V443.038C200.744 444.618 201.731 445.052 203.509 444.789V444.025C202.232 444.078 201.613 444.17 201.613 443.038V439.048H203.509ZM63.5841 453.571V457.495C63.031 456.613 62.0961 456.047 60.9241 456.047C59.0674 456.047 57.5267 457.548 57.5267 459.497C57.5267 461.446 59.0674 462.947 60.9241 462.947C62.0961 462.947 63.031 462.381 63.5841 461.499V462.789H64.4532V453.571H63.5841ZM60.9899 462.104C59.5283 462.104 58.3958 460.959 58.3958 459.497C58.3958 458.035 59.5283 456.89 60.9899 456.89C62.4516 456.89 63.5841 458.035 63.5841 459.497C63.5841 460.959 62.4516 462.104 60.9899 462.104ZM69.3352 456.047C67.2941 456.047 65.8983 457.561 65.8983 459.497C65.8983 461.485 67.3204 462.947 69.401 462.947C70.731 462.947 71.7449 462.328 72.298 461.433L71.5342 460.985C71.1787 461.617 70.4544 462.104 69.4142 462.104C68.0183 462.104 66.9781 461.275 66.7937 459.932H72.5745C72.5877 459.8 72.6009 459.655 72.6009 459.523C72.6009 457.719 71.3499 456.047 69.3352 456.047ZM69.3352 456.89C70.4676 456.89 71.5211 457.64 71.7054 459.089H66.7937C66.9649 457.798 67.9525 456.89 69.3352 456.89ZM73.9833 462.789H74.8524V453.176H73.9833V462.789ZM77.1312 454.809C77.4867 454.809 77.7633 454.519 77.7633 454.177C77.7633 453.835 77.4867 453.545 77.1312 453.545C76.7757 453.545 76.4991 453.835 76.4991 454.177C76.4991 454.519 76.7757 454.809 77.1312 454.809ZM76.6967 462.789H77.5658V456.205H76.6967V462.789ZM85.0723 456.205V457.495C84.5193 456.613 83.5843 456.047 82.4124 456.047C80.5556 456.047 79.015 457.548 79.015 459.497C79.015 461.446 80.5556 462.947 82.4124 462.947C83.5843 462.947 84.5193 462.381 85.0723 461.499V462.526C85.0723 463.869 84.1637 464.738 82.6362 464.738C81.2141 464.738 80.6083 464.211 80.2791 463.54L79.5154 463.974C80.0289 465.001 81.1219 465.581 82.6362 465.581C84.3349 465.581 85.9414 464.527 85.9414 462.526V456.205H85.0723ZM82.4782 462.104C81.0165 462.104 79.8841 460.959 79.8841 459.497C79.8841 458.035 81.0165 456.89 82.4782 456.89C83.9399 456.89 85.0723 458.035 85.0723 459.497C85.0723 460.959 83.9399 462.104 82.4782 462.104ZM90.8629 456.047C89.928 456.047 89.1642 456.403 88.6507 457.232V453.571H87.7816V462.789H88.6507V459.339C88.6507 457.574 89.6251 456.89 90.7839 456.89C91.9295 456.89 92.5748 457.574 92.5748 458.746V462.789H93.4439V458.746C93.4439 457.1 92.4694 456.047 90.8629 456.047ZM98.6139 457.048V456.205H96.7177V454.361L95.8486 454.625V456.205H94.4659V457.048H95.8486V461.038C95.8486 462.618 96.8362 463.052 98.6139 462.789V462.025C97.3366 462.078 96.7177 462.17 96.7177 461.038V457.048H98.6139ZM109.017 456.205V457.495C108.464 456.613 107.529 456.047 106.357 456.047C104.5 456.047 102.959 457.548 102.959 459.497C102.959 461.446 104.5 462.947 106.357 462.947C107.529 462.947 108.464 462.381 109.017 461.499V462.789H109.886V456.205H109.017ZM106.423 462.104C104.961 462.104 103.828 460.959 103.828 459.497C103.828 458.035 104.961 456.89 106.423 456.89C107.884 456.89 109.017 458.035 109.017 459.497C109.017 460.959 107.884 462.104 106.423 462.104ZM114.807 456.047C113.872 456.047 113.109 456.403 112.595 457.232V456.205H111.726V462.789H112.595V459.339C112.595 457.574 113.57 456.89 114.728 456.89C115.874 456.89 116.519 457.574 116.519 458.746V462.789H117.388V458.746C117.388 457.1 116.414 456.047 114.807 456.047ZM124.731 453.571V457.495C124.178 456.613 123.243 456.047 122.071 456.047C120.214 456.047 118.674 457.548 118.674 459.497C118.674 461.446 120.214 462.947 122.071 462.947C123.243 462.947 124.178 462.381 124.731 461.499V462.789H125.6V453.571H124.731ZM122.137 462.104C120.675 462.104 119.543 460.959 119.543 459.497C119.543 458.035 120.675 456.89 122.137 456.89C123.599 456.89 124.731 458.035 124.731 459.497C124.731 460.959 123.599 462.104 122.137 462.104ZM131.167 454.809C131.522 454.809 131.799 454.519 131.799 454.177C131.799 453.835 131.522 453.545 131.167 453.545C130.811 453.545 130.535 453.835 130.535 454.177C130.535 454.519 130.811 454.809 131.167 454.809ZM130.732 462.789H131.601V456.205H130.732V462.789ZM136.527 456.047C135.592 456.047 134.828 456.403 134.315 457.232V456.205H133.446V462.789H134.315V459.339C134.315 457.574 135.289 456.89 136.448 456.89C137.594 456.89 138.239 457.574 138.239 458.746V462.789H139.108V458.746C139.108 457.1 138.134 456.047 136.527 456.047ZM141.473 457.93C141.473 457.219 142.171 456.89 142.856 456.89C143.488 456.89 144.16 457.14 144.436 457.812L145.16 457.39C144.778 456.574 143.936 456.047 142.856 456.047C141.539 456.047 140.604 456.877 140.604 457.93C140.604 460.353 144.449 459.418 144.449 461.051C144.449 461.828 143.712 462.104 142.935 462.104C142.053 462.104 141.368 461.67 141.131 460.998L140.393 461.433C140.723 462.276 141.618 462.947 142.935 462.947C144.344 462.947 145.318 462.17 145.318 461.051C145.318 458.628 141.473 459.563 141.473 457.93ZM150.297 456.047C149.125 456.047 148.19 456.613 147.637 457.495V456.205H146.768V465.423H147.637V461.499C148.19 462.381 149.125 462.947 150.297 462.947C152.154 462.947 153.695 461.446 153.695 459.497C153.695 457.548 152.154 456.047 150.297 456.047ZM150.231 462.104C148.77 462.104 147.637 460.959 147.637 459.497C147.637 458.035 148.77 456.89 150.231 456.89C151.693 456.89 152.825 458.035 152.825 459.497C152.825 460.959 151.693 462.104 150.231 462.104ZM155.574 454.809C155.93 454.809 156.206 454.519 156.206 454.177C156.206 453.835 155.93 453.545 155.574 453.545C155.219 453.545 154.942 453.835 154.942 454.177C154.942 454.519 155.219 454.809 155.574 454.809ZM155.14 462.789H156.009V456.205H155.14V462.789ZM158.722 457.298V456.205H157.853V462.789H158.722V459.128C158.722 457.495 159.749 456.942 160.803 456.942V456.1C159.96 456.1 159.183 456.376 158.722 457.298ZM164.637 456.047C162.596 456.047 161.2 457.561 161.2 459.497C161.2 461.485 162.622 462.947 164.703 462.947C166.033 462.947 167.047 462.328 167.6 461.433L166.836 460.985C166.481 461.617 165.756 462.104 164.716 462.104C163.32 462.104 162.28 461.275 162.096 459.932H167.876C167.89 459.8 167.903 459.655 167.903 459.523C167.903 457.719 166.652 456.047 164.637 456.047ZM164.637 456.89C165.769 456.89 166.823 457.64 167.007 459.089H162.096C162.267 457.798 163.254 456.89 164.637 456.89ZM178.239 456.205V457.495C177.686 456.613 176.751 456.047 175.58 456.047C173.723 456.047 172.182 457.548 172.182 459.497C172.182 461.446 173.723 462.947 175.58 462.947C176.751 462.947 177.686 462.381 178.239 461.499V462.526C178.239 463.869 177.331 464.738 175.803 464.738C174.381 464.738 173.775 464.211 173.446 463.54L172.683 463.974C173.196 465.001 174.289 465.581 175.803 465.581C177.502 465.581 179.109 464.527 179.109 462.526V456.205H178.239ZM175.645 462.104C174.184 462.104 173.051 460.959 173.051 459.497C173.051 458.035 174.184 456.89 175.645 456.89C177.107 456.89 178.239 458.035 178.239 459.497C178.239 460.959 177.107 462.104 175.645 462.104ZM181.818 457.298V456.205H180.949V462.789H181.818V459.128C181.818 457.495 182.845 456.942 183.898 456.942V456.1C183.056 456.1 182.279 456.376 181.818 457.298ZM187.759 462.947C189.682 462.947 191.222 461.446 191.222 459.497C191.222 457.548 189.682 456.047 187.759 456.047C185.836 456.047 184.296 457.548 184.296 459.497C184.296 461.446 185.836 462.947 187.759 462.947ZM187.759 462.104C186.297 462.104 185.165 460.959 185.165 459.497C185.165 458.035 186.297 456.89 187.759 456.89C189.221 456.89 190.353 458.035 190.353 459.497C190.353 460.959 189.221 462.104 187.759 462.104ZM200.347 456.205L198.727 461.67L197.002 456.205H196.133L194.408 461.67L192.788 456.205H191.893L193.921 462.789H194.869L196.567 457.482L198.266 462.789H199.214L201.242 456.205H200.347ZM206.042 457.048V456.205H204.146V454.361L203.277 454.625V456.205H201.894V457.048H203.277V461.038C203.277 462.618 204.265 463.052 206.042 462.789V462.025C204.765 462.078 204.146 462.17 204.146 461.038V457.048H206.042ZM210.572 456.047C209.637 456.047 208.873 456.403 208.36 457.232V453.571H207.491V462.789H208.36V459.339C208.36 457.574 209.334 456.89 210.493 456.89C211.639 456.89 212.284 457.574 212.284 458.746V462.789H213.153V458.746C213.153 457.1 212.179 456.047 210.572 456.047Z" fill="#516689"/>
<path d="M60.5291 622.789H61.4772L64.8745 613.571H63.8738L61.0031 621.564L58.1325 613.571H57.1317L60.5291 622.789ZM70.8111 616.205V617.495C70.2581 616.613 69.3231 616.047 68.1512 616.047C66.2944 616.047 64.7538 617.548 64.7538 619.497C64.7538 621.446 66.2944 622.947 68.1512 622.947C69.3231 622.947 70.2581 622.381 70.8111 621.499V622.789H71.6802V616.205H70.8111ZM68.217 622.104C66.7553 622.104 65.6229 620.959 65.6229 619.497C65.6229 618.035 66.7553 616.89 68.217 616.89C69.6787 616.89 70.8111 618.035 70.8111 619.497C70.8111 620.959 69.6787 622.104 68.217 622.104ZM73.5204 622.789H74.3895V613.176H73.5204V622.789ZM76.6683 614.809C77.0238 614.809 77.3003 614.519 77.3003 614.177C77.3003 613.835 77.0238 613.545 76.6683 613.545C76.3127 613.545 76.0362 613.835 76.0362 614.177C76.0362 614.519 76.3127 614.809 76.6683 614.809ZM76.2337 622.789H77.1028V616.205H76.2337V622.789ZM84.6094 613.571V617.495C84.0563 616.613 83.1214 616.047 81.9494 616.047C80.0927 616.047 78.552 617.548 78.552 619.497C78.552 621.446 80.0927 622.947 81.9494 622.947C83.1214 622.947 84.0563 622.381 84.6094 621.499V622.789H85.4785V613.571H84.6094ZM82.0152 622.104C80.5536 622.104 79.4211 620.959 79.4211 619.497C79.4211 618.035 80.5536 616.89 82.0152 616.89C83.4769 616.89 84.6094 618.035 84.6094 619.497C84.6094 620.959 83.4769 622.104 82.0152 622.104ZM92.9809 616.205V617.495C92.4279 616.613 91.4929 616.047 90.321 616.047C88.4642 616.047 86.9236 617.548 86.9236 619.497C86.9236 621.446 88.4642 622.947 90.321 622.947C91.4929 622.947 92.4279 622.381 92.9809 621.499V622.789H93.85V616.205H92.9809ZM90.3868 622.104C88.9251 622.104 87.7927 620.959 87.7927 619.497C87.7927 618.035 88.9251 616.89 90.3868 616.89C91.8485 616.89 92.9809 618.035 92.9809 619.497C92.9809 620.959 91.8485 622.104 90.3868 622.104ZM99.1797 617.048V616.205H97.2835V614.361L96.4144 614.625V616.205H95.0318V617.048H96.4144V621.038C96.4144 622.618 97.402 623.052 99.1797 622.789V622.025C97.9024 622.078 97.2835 622.17 97.2835 621.038V617.048H99.1797ZM101.063 614.809C101.418 614.809 101.695 614.519 101.695 614.177C101.695 613.835 101.418 613.545 101.063 613.545C100.707 613.545 100.431 613.835 100.431 614.177C100.431 614.519 100.707 614.809 101.063 614.809ZM100.628 622.789H101.497V616.205H100.628V622.789ZM106.41 622.947C108.332 622.947 109.873 621.446 109.873 619.497C109.873 617.548 108.332 616.047 106.41 616.047C104.487 616.047 102.947 617.548 102.947 619.497C102.947 621.446 104.487 622.947 106.41 622.947ZM106.41 622.104C104.948 622.104 103.816 620.959 103.816 619.497C103.816 618.035 104.948 616.89 106.41 616.89C107.871 616.89 109.004 618.035 109.004 619.497C109.004 620.959 107.871 622.104 106.41 622.104ZM114.409 616.047C113.474 616.047 112.71 616.403 112.196 617.232V616.205H111.327V622.789H112.196V619.339C112.196 617.574 113.171 616.89 114.33 616.89C115.475 616.89 116.121 617.574 116.121 618.746V622.789H116.99V618.746C116.99 617.1 116.015 616.047 114.409 616.047ZM125.03 622.947C126.953 622.947 128.494 621.446 128.494 619.497C128.494 617.548 126.953 616.047 125.03 616.047C123.108 616.047 121.567 617.548 121.567 619.497C121.567 621.446 123.108 622.947 125.03 622.947ZM125.03 622.104C123.569 622.104 122.436 620.959 122.436 619.497C122.436 618.035 123.569 616.89 125.03 616.89C126.492 616.89 127.624 618.035 127.624 619.497C127.624 620.959 126.492 622.104 125.03 622.104ZM132.983 614.256V613.413C131.205 613.282 130.217 614.23 130.217 615.942V616.205H129.098V617.048H130.217V622.789H131.087V617.048H132.983V616.205H131.087V615.942C131.087 614.677 131.705 614.151 132.983 614.256ZM140.269 622.947C142.191 622.947 143.732 621.446 143.732 619.497C143.732 617.548 142.191 616.047 140.269 616.047C138.346 616.047 136.806 617.548 136.806 619.497C136.806 621.446 138.346 622.947 140.269 622.947ZM140.269 622.104C138.807 622.104 137.675 620.959 137.675 619.497C137.675 618.035 138.807 616.89 140.269 616.89C141.731 616.89 142.863 618.035 142.863 619.497C142.863 620.959 141.731 622.104 140.269 622.104ZM149.822 616.205V619.655C149.822 621.42 148.847 622.104 147.688 622.104C146.543 622.104 145.898 621.42 145.898 620.248V616.205H145.028V620.248C145.028 621.894 146.003 622.947 147.609 622.947C148.544 622.947 149.308 622.592 149.822 621.762V622.789H150.691V616.205H149.822ZM156.019 617.048V616.205H154.123V614.361L153.253 614.625V616.205H151.871V617.048H153.253V621.038C153.253 622.618 154.241 623.052 156.019 622.789V622.025C154.741 622.078 154.123 622.17 154.123 621.038V617.048H156.019ZM160.137 622.947C161.427 622.947 162.547 622.276 163.086 621.235L162.362 620.814C161.941 621.578 161.138 622.104 160.137 622.104C158.675 622.104 157.543 620.959 157.543 619.497C157.543 618.035 158.675 616.89 160.137 616.89C161.124 616.89 161.954 617.403 162.31 618.18L163.021 617.772C162.547 616.732 161.44 616.047 160.137 616.047C158.148 616.047 156.674 617.548 156.674 619.497C156.674 621.446 158.148 622.947 160.137 622.947ZM167.338 622.947C169.261 622.947 170.801 621.446 170.801 619.497C170.801 617.548 169.261 616.047 167.338 616.047C165.416 616.047 163.875 617.548 163.875 619.497C163.875 621.446 165.416 622.947 167.338 622.947ZM167.338 622.104C165.876 622.104 164.744 620.959 164.744 619.497C164.744 618.035 165.876 616.89 167.338 616.89C168.8 616.89 169.932 618.035 169.932 619.497C169.932 620.959 168.8 622.104 167.338 622.104ZM179.274 616.047C178.432 616.047 177.628 616.429 177.141 617.245C176.772 616.482 176.061 616.047 175.14 616.047C174.349 616.047 173.638 616.363 173.125 617.166V616.205H172.256V622.789H173.125V619.141C173.125 617.509 174.073 616.89 175.021 616.89C175.956 616.89 176.562 617.509 176.562 618.681V622.789H177.431V619.141C177.431 617.509 178.247 616.89 179.261 616.89C180.196 616.89 180.868 617.509 180.868 618.681V622.789H181.737V618.681C181.737 617.035 180.723 616.047 179.274 616.047ZM186.46 616.047C184.419 616.047 183.023 617.561 183.023 619.497C183.023 621.485 184.445 622.947 186.525 622.947C187.855 622.947 188.869 622.328 189.422 621.433L188.659 620.985C188.303 621.617 187.579 622.104 186.539 622.104C185.143 622.104 184.103 621.275 183.918 619.932H189.699C189.712 619.8 189.725 619.655 189.725 619.523C189.725 617.719 188.474 616.047 186.46 616.047ZM186.46 616.89C187.592 616.89 188.646 617.64 188.83 619.089H183.918C184.089 617.798 185.077 616.89 186.46 616.89ZM191.535 617.93C191.535 617.219 192.233 616.89 192.918 616.89C193.55 616.89 194.222 617.14 194.498 617.812L195.222 617.39C194.841 616.574 193.998 616.047 192.918 616.047C191.601 616.047 190.666 616.877 190.666 617.93C190.666 620.353 194.511 619.418 194.511 621.051C194.511 621.828 193.774 622.104 192.997 622.104C192.115 622.104 191.43 621.67 191.193 620.998L190.456 621.433C190.785 622.276 191.68 622.947 192.997 622.947C194.406 622.947 195.38 622.17 195.38 621.051C195.38 618.628 191.535 619.563 191.535 617.93ZM205.785 616.205V617.495C205.232 616.613 204.297 616.047 203.125 616.047C201.268 616.047 199.727 617.548 199.727 619.497C199.727 621.446 201.268 622.947 203.125 622.947C204.297 622.947 205.232 622.381 205.785 621.499V622.789H206.654V616.205H205.785ZM203.19 622.104C201.729 622.104 200.596 620.959 200.596 619.497C200.596 618.035 201.729 616.89 203.19 616.89C204.652 616.89 205.785 618.035 205.785 619.497C205.785 620.959 204.652 622.104 203.19 622.104ZM211.575 616.047C210.64 616.047 209.876 616.403 209.363 617.232V616.205H208.494V622.789H209.363V619.339C209.363 617.574 210.337 616.89 211.496 616.89C212.642 616.89 213.287 617.574 213.287 618.746V622.789H214.156V618.746C214.156 617.1 213.182 616.047 211.575 616.047ZM221.499 613.571V617.495C220.946 616.613 220.011 616.047 218.839 616.047C216.982 616.047 215.442 617.548 215.442 619.497C215.442 621.446 216.982 622.947 218.839 622.947C220.011 622.947 220.946 622.381 221.499 621.499V622.789H222.368V613.571H221.499ZM218.905 622.104C217.443 622.104 216.311 620.959 216.311 619.497C216.311 618.035 217.443 616.89 218.905 616.89C220.366 616.89 221.499 618.035 221.499 619.497C221.499 620.959 220.366 622.104 218.905 622.104ZM64.9404 634.047C64.0976 634.047 63.2944 634.429 62.8072 635.245C62.4384 634.482 61.7274 634.047 60.8056 634.047C60.0155 634.047 59.3044 634.363 58.7909 635.166V634.205H57.9218V640.789H58.7909V637.141C58.7909 635.509 59.739 634.89 60.6871 634.89C61.622 634.89 62.2278 635.509 62.2278 636.681V640.789H63.0968V637.141C63.0968 635.509 63.9133 634.89 64.9272 634.89C65.8622 634.89 66.5337 635.509 66.5337 636.681V640.789H67.4028V636.681C67.4028 635.035 66.3889 634.047 64.9404 634.047ZM72.1257 634.047C70.0846 634.047 68.6888 635.561 68.6888 637.497C68.6888 639.485 70.1109 640.947 72.1915 640.947C73.5215 640.947 74.5354 640.328 75.0885 639.433L74.3247 638.985C73.9692 639.617 73.245 640.104 72.2047 640.104C70.8089 640.104 69.7686 639.275 69.5842 637.932H75.365C75.3782 637.8 75.3914 637.655 75.3914 637.523C75.3914 635.719 74.1404 634.047 72.1257 634.047ZM72.1257 634.89C73.2581 634.89 74.3116 635.64 74.4959 637.089H69.5842C69.7554 635.798 70.743 634.89 72.1257 634.89ZM82.4361 634.205V635.495C81.8831 634.613 80.9481 634.047 79.7762 634.047C77.9194 634.047 76.3788 635.548 76.3788 637.497C76.3788 639.446 77.9194 640.947 79.7762 640.947C80.9481 640.947 81.8831 640.381 82.4361 639.499V640.789H83.3052V634.205H82.4361ZM79.842 640.104C78.3803 640.104 77.2479 638.959 77.2479 637.497C77.2479 636.035 78.3803 634.89 79.842 634.89C81.3037 634.89 82.4361 636.035 82.4361 637.497C82.4361 638.959 81.3037 640.104 79.842 640.104ZM85.8301 635.93C85.8301 635.219 86.528 634.89 87.2128 634.89C87.8448 634.89 88.5164 635.14 88.7929 635.812L89.5172 635.39C89.1353 634.574 88.2925 634.047 87.2128 634.047C85.8959 634.047 84.961 634.877 84.961 635.93C84.961 638.353 88.8061 637.418 88.8061 639.051C88.8061 639.828 88.0687 640.104 87.2918 640.104C86.4095 640.104 85.7248 639.67 85.4877 638.998L84.7503 639.433C85.0795 640.276 85.975 640.947 87.2918 640.947C88.7008 640.947 89.6752 640.17 89.6752 639.051C89.6752 636.628 85.8301 637.563 85.8301 635.93ZM95.6959 634.205V637.655C95.6959 639.42 94.7215 640.104 93.5627 640.104C92.4171 640.104 91.7718 639.42 91.7718 638.248V634.205H90.9027V638.248C90.9027 639.894 91.8772 640.947 93.4837 640.947C94.4186 640.947 95.1824 640.592 95.6959 639.762V640.789H96.565V634.205H95.6959ZM99.2726 635.298V634.205H98.4035V640.789H99.2726V637.128C99.2726 635.495 100.3 634.942 101.353 634.942V634.1C100.51 634.1 99.7335 634.376 99.2726 635.298ZM105.187 634.047C103.146 634.047 101.751 635.561 101.751 637.497C101.751 639.485 103.173 640.947 105.253 640.947C106.583 640.947 107.597 640.328 108.15 639.433L107.387 638.985C107.031 639.617 106.307 640.104 105.266 640.104C103.871 640.104 102.83 639.275 102.646 637.932H108.427C108.44 637.8 108.453 637.655 108.453 637.523C108.453 635.719 107.202 634.047 105.187 634.047ZM105.187 634.89C106.32 634.89 107.373 635.64 107.558 637.089H102.646C102.817 635.798 103.805 634.89 105.187 634.89ZM116.854 634.047C116.011 634.047 115.208 634.429 114.721 635.245C114.352 634.482 113.641 634.047 112.719 634.047C111.929 634.047 111.218 634.363 110.705 635.166V634.205H109.836V640.789H110.705V637.141C110.705 635.509 111.653 634.89 112.601 634.89C113.536 634.89 114.142 635.509 114.142 636.681V640.789H115.011V637.141C115.011 635.509 115.827 634.89 116.841 634.89C117.776 634.89 118.448 635.509 118.448 636.681V640.789H119.317V636.681C119.317 635.035 118.303 634.047 116.854 634.047ZM124.04 634.047C121.998 634.047 120.603 635.561 120.603 637.497C120.603 639.485 122.025 640.947 124.105 640.947C125.435 640.947 126.449 640.328 127.002 639.433L126.239 638.985C125.883 639.617 125.159 640.104 124.119 640.104C122.723 640.104 121.682 639.275 121.498 637.932H127.279C127.292 637.8 127.305 637.655 127.305 637.523C127.305 635.719 126.054 634.047 124.04 634.047ZM124.04 634.89C125.172 634.89 126.225 635.64 126.41 637.089H121.498C121.669 635.798 122.657 634.89 124.04 634.89ZM131.769 634.047C130.834 634.047 130.07 634.403 129.557 635.232V634.205H128.688V640.789H129.557V637.339C129.557 635.574 130.531 634.89 131.69 634.89C132.836 634.89 133.481 635.574 133.481 636.746V640.789H134.35V636.746C134.35 635.1 133.376 634.047 131.769 634.047ZM139.52 635.048V634.205H137.624V632.361L136.755 632.625V634.205H135.372V635.048H136.755V639.038C136.755 640.618 137.742 641.052 139.52 640.789V640.025C138.243 640.078 137.624 640.17 137.624 639.038V635.048H139.52ZM147.329 640.947C149.251 640.947 150.792 639.446 150.792 637.497C150.792 635.548 149.251 634.047 147.329 634.047C145.406 634.047 143.865 635.548 143.865 637.497C143.865 639.446 145.406 640.947 147.329 640.947ZM147.329 640.104C145.867 640.104 144.735 638.959 144.735 637.497C144.735 636.035 145.867 634.89 147.329 634.89C148.79 634.89 149.923 636.035 149.923 637.497C149.923 638.959 148.79 640.104 147.329 640.104ZM155.281 632.256V631.413C153.503 631.282 152.516 632.23 152.516 633.942V634.205H151.397V635.048H152.516V640.789H153.385V635.048H155.281V634.205H153.385V633.942C153.385 632.677 154.004 632.151 155.281 632.256ZM160.184 635.93C160.184 635.219 160.882 634.89 161.566 634.89C162.199 634.89 162.87 635.14 163.147 635.812L163.871 635.39C163.489 634.574 162.646 634.047 161.566 634.047C160.25 634.047 159.315 634.877 159.315 635.93C159.315 638.353 163.16 637.418 163.16 639.051C163.16 639.828 162.422 640.104 161.645 640.104C160.763 640.104 160.078 639.67 159.841 638.998L159.104 639.433C159.433 640.276 160.329 640.947 161.645 640.947C163.054 640.947 164.029 640.17 164.029 639.051C164.029 636.628 160.184 637.563 160.184 635.93ZM170.05 634.205V637.655C170.05 639.42 169.075 640.104 167.916 640.104C166.771 640.104 166.126 639.42 166.126 638.248V634.205H165.256V638.248C165.256 639.894 166.231 640.947 167.837 640.947C168.772 640.947 169.536 640.592 170.05 639.762V640.789H170.919V634.205H170.05ZM175.825 640.947C177.116 640.947 178.235 640.276 178.775 639.235L178.051 638.814C177.629 639.578 176.826 640.104 175.825 640.104C174.364 640.104 173.231 638.959 173.231 637.497C173.231 636.035 174.364 634.89 175.825 634.89C176.813 634.89 177.643 635.403 177.998 636.18L178.709 635.772C178.235 634.732 177.129 634.047 175.825 634.047C173.837 634.047 172.362 635.548 172.362 637.497C172.362 639.446 173.837 640.947 175.825 640.947ZM183.027 640.947C184.317 640.947 185.436 640.276 185.976 639.235L185.252 638.814C184.831 639.578 184.028 640.104 183.027 640.104C181.565 640.104 180.433 638.959 180.433 637.497C180.433 636.035 181.565 634.89 183.027 634.89C184.014 634.89 184.844 635.403 185.199 636.18L185.911 635.772C185.436 634.732 184.33 634.047 183.027 634.047C181.038 634.047 179.564 635.548 179.564 637.497C179.564 639.446 181.038 640.947 183.027 640.947ZM190.202 634.047C188.161 634.047 186.765 635.561 186.765 637.497C186.765 639.485 188.187 640.947 190.268 640.947C191.598 640.947 192.611 640.328 193.165 639.433L192.401 638.985C192.045 639.617 191.321 640.104 190.281 640.104C188.885 640.104 187.845 639.275 187.66 637.932H193.441C193.454 637.8 193.467 637.655 193.467 637.523C193.467 635.719 192.216 634.047 190.202 634.047ZM190.202 634.89C191.334 634.89 192.388 635.64 192.572 637.089H187.66C187.831 635.798 188.819 634.89 190.202 634.89ZM195.277 635.93C195.277 635.219 195.975 634.89 196.66 634.89C197.292 634.89 197.964 635.14 198.24 635.812L198.964 635.39C198.583 634.574 197.74 634.047 196.66 634.047C195.343 634.047 194.408 634.877 194.408 635.93C194.408 638.353 198.253 637.418 198.253 639.051C198.253 639.828 197.516 640.104 196.739 640.104C195.857 640.104 195.172 639.67 194.935 638.998L194.198 639.433C194.527 640.276 195.422 640.947 196.739 640.947C198.148 640.947 199.123 640.17 199.123 639.051C199.123 636.628 195.277 637.563 195.277 635.93ZM200.858 635.93C200.858 635.219 201.556 634.89 202.241 634.89C202.873 634.89 203.545 635.14 203.821 635.812L204.546 635.39C204.164 634.574 203.321 634.047 202.241 634.047C200.924 634.047 199.989 634.877 199.989 635.93C199.989 638.353 203.834 637.418 203.834 639.051C203.834 639.828 203.097 640.104 202.32 640.104C201.438 640.104 200.753 639.67 200.516 638.998L199.779 639.433C200.108 640.276 201.003 640.947 202.32 640.947C203.729 640.947 204.704 640.17 204.704 639.051C204.704 636.628 200.858 637.563 200.858 635.93Z" fill="#516689"/>
</svg>
