<svg width="1402" height="720" viewBox="0 0 1402 720" fill="none" xmlns="http://www.w3.org/2000/svg">
<g clip-path="url(#clip0)">
<rect x="1" width="1400" height="720" fill="#EFF7FE"/>
<circle cx="712.599" cy="411.599" r="331.958" stroke="#1E3356" stroke-opacity="0.1" stroke-width="5.28061" stroke-dasharray="4.8 4.8"/>
<path d="M343 380.5H537L726.665 369.651L985.683 163H1095.75L1089.43 719.785H379.238L343 380.5Z" fill="#EFF7FE"/>
<path opacity="0.1" fill-rule="evenodd" clip-rule="evenodd" d="M381.364 401.22L381.457 401.325L397.415 387.089L394.025 383.29L381.764 394.228L370.825 381.965L367.026 385.355L381.261 401.312L381.364 401.22Z" fill="#1E3356"/>
<g opacity="0.1">
<rect x="926.383" y="398.082" width="4.80055" height="20.1623" transform="rotate(90 926.383 398.082)" fill="#1E3356"/>
<rect x="921.703" y="398.207" width="4.80055" height="20.1623" fill="#1E3356"/>
<rect x="920.719" y="400.562" width="4.80055" height="44.1651" transform="rotate(45 920.719 400.562)" fill="#1E3356"/>
</g>
<ellipse cx="596.188" cy="306.372" rx="104.559" ry="105.294" fill="#E86DBD"/>
<path d="M551.27 297.925C549.572 297.925 548.144 297.549 546.985 296.798C545.826 296.031 545.009 294.995 544.536 293.689L547.425 291.999C548.095 293.746 549.409 294.619 551.368 294.619C552.315 294.619 553.008 294.448 553.449 294.105C553.89 293.762 554.11 293.329 554.11 292.807C554.11 292.203 553.841 291.738 553.302 291.411C552.763 291.068 551.8 290.701 550.413 290.309C549.645 290.081 548.992 289.852 548.454 289.624C547.931 289.395 547.401 289.093 546.862 288.718C546.34 288.326 545.94 287.836 545.662 287.249C545.385 286.661 545.246 285.975 545.246 285.192C545.246 283.641 545.793 282.408 546.887 281.494C547.997 280.564 549.327 280.098 550.878 280.098C552.266 280.098 553.482 280.441 554.527 281.127C555.588 281.796 556.412 282.735 557 283.943L554.159 285.583C553.474 284.114 552.38 283.38 550.878 283.38C550.176 283.38 549.621 283.543 549.213 283.869C548.821 284.18 548.625 284.588 548.625 285.094C548.625 285.632 548.846 286.073 549.286 286.416C549.743 286.742 550.609 287.102 551.882 287.493C552.404 287.657 552.796 287.787 553.057 287.885C553.335 287.967 553.702 288.106 554.159 288.301C554.633 288.481 554.992 288.652 555.237 288.816C555.498 288.979 555.792 289.199 556.118 289.477C556.445 289.754 556.69 290.04 556.853 290.334C557.032 290.628 557.179 290.987 557.294 291.411C557.424 291.819 557.489 292.268 557.489 292.758C557.489 294.342 556.91 295.599 555.751 296.529C554.608 297.46 553.114 297.925 551.27 297.925ZM566.191 288.375H563.424V293.468C563.424 293.893 563.53 294.203 563.742 294.399C563.955 294.595 564.265 294.709 564.673 294.742C565.081 294.758 565.587 294.75 566.191 294.717V297.582C564.02 297.827 562.485 297.623 561.588 296.97C560.706 296.317 560.265 295.15 560.265 293.468V288.375H558.135V285.339H560.265V282.865L563.424 281.91V285.339H566.191V288.375ZM571.768 287.444C572.062 286.661 572.544 286.073 573.213 285.681C573.899 285.29 574.658 285.094 575.49 285.094V288.62C574.527 288.506 573.662 288.701 572.895 289.207C572.144 289.714 571.768 290.554 571.768 291.73V297.582H568.61V285.339H571.768V287.444ZM586.189 285.339H589.347V297.582H586.189V296.137C585.242 297.329 583.911 297.925 582.197 297.925C580.565 297.925 579.161 297.305 577.985 296.064C576.826 294.807 576.247 293.272 576.247 291.46C576.247 289.648 576.826 288.122 577.985 286.881C579.161 285.624 580.565 284.996 582.197 284.996C583.911 284.996 585.242 285.592 586.189 286.783V285.339ZM580.361 293.958C580.997 294.595 581.805 294.913 582.785 294.913C583.764 294.913 584.572 294.595 585.209 293.958C585.862 293.305 586.189 292.472 586.189 291.46C586.189 290.448 585.862 289.624 585.209 288.987C584.572 288.334 583.764 288.008 582.785 288.008C581.805 288.008 580.997 288.334 580.361 288.987C579.724 289.624 579.406 290.448 579.406 291.46C579.406 292.472 579.724 293.305 580.361 293.958ZM599.215 288.375H596.448V293.468C596.448 293.893 596.554 294.203 596.766 294.399C596.979 294.595 597.289 294.709 597.697 294.742C598.105 294.758 598.611 294.75 599.215 294.717V297.582C597.044 297.827 595.509 297.623 594.612 296.97C593.73 296.317 593.289 295.15 593.289 293.468V288.375H591.159V285.339H593.289V282.865L596.448 281.91V285.339H599.215V288.375ZM603.729 292.758C604.153 294.293 605.304 295.06 607.181 295.06C608.389 295.06 609.304 294.652 609.924 293.836L612.471 295.305C611.263 297.051 609.483 297.925 607.132 297.925C605.108 297.925 603.484 297.313 602.259 296.088C601.035 294.864 600.423 293.321 600.423 291.46C600.423 289.616 601.027 288.081 602.235 286.857C603.443 285.616 604.994 284.996 606.888 284.996C608.683 284.996 610.161 285.616 611.32 286.857C612.495 288.097 613.083 289.632 613.083 291.46C613.083 291.868 613.042 292.301 612.96 292.758H603.729ZM603.68 290.309H609.924C609.744 289.477 609.369 288.857 608.797 288.448C608.242 288.04 607.606 287.836 606.888 287.836C606.039 287.836 605.337 288.057 604.782 288.497C604.227 288.922 603.859 289.526 603.68 290.309ZM624.571 285.339H627.656V296.994C627.656 298.888 627.028 300.333 625.771 301.329C624.53 302.324 623.028 302.822 621.265 302.822C619.943 302.822 618.775 302.569 617.763 302.063C616.768 301.557 616 300.814 615.462 299.835L618.155 298.292C618.775 299.435 619.845 300.006 621.363 300.006C622.359 300.006 623.142 299.745 623.714 299.223C624.285 298.7 624.571 297.957 624.571 296.994V295.672C623.64 296.913 622.334 297.533 620.653 297.533C618.922 297.533 617.47 296.929 616.294 295.721C615.135 294.497 614.556 293.011 614.556 291.264C614.556 289.534 615.143 288.057 616.319 286.832C617.494 285.608 618.939 284.996 620.653 284.996C622.334 284.996 623.64 285.616 624.571 286.857V285.339ZM618.669 293.689C619.322 294.309 620.147 294.619 621.143 294.619C622.138 294.619 622.955 294.309 623.591 293.689C624.244 293.052 624.571 292.244 624.571 291.264C624.571 290.301 624.244 289.509 623.591 288.889C622.955 288.252 622.138 287.934 621.143 287.934C620.147 287.934 619.322 288.252 618.669 288.889C618.033 289.509 617.714 290.301 617.714 291.264C617.714 292.244 618.033 293.052 618.669 293.689ZM638.503 285.339H641.882L637.426 297.582C636.789 299.345 635.94 300.618 634.879 301.402C633.834 302.202 632.528 302.561 630.961 302.479V299.541C631.81 299.557 632.479 299.378 632.969 299.002C633.475 298.627 633.875 298.023 634.169 297.19L629.149 285.339H632.602L635.785 293.566L638.503 285.339ZM585.271 330.603L582.577 332.145L581.01 330.456C579.688 331.435 578.153 331.925 576.406 331.925C574.643 331.925 573.199 331.468 572.072 330.554C570.962 329.623 570.407 328.382 570.407 326.832C570.407 325.819 570.652 324.881 571.142 324.016C571.631 323.15 572.341 322.448 573.272 321.91C572.717 321.028 572.439 320.073 572.439 319.045C572.439 317.592 572.945 316.408 573.958 315.494C574.97 314.564 576.251 314.098 577.802 314.098C579.026 314.098 580.12 314.417 581.083 315.053C582.063 315.674 582.789 316.58 583.263 317.771L580.373 319.436C579.9 318.065 579.059 317.38 577.851 317.38C577.263 317.38 576.774 317.551 576.382 317.894C576.006 318.237 575.819 318.669 575.819 319.192C575.819 319.649 575.925 320.065 576.137 320.44C576.366 320.816 576.725 321.265 577.214 321.787L580.887 325.803C581.247 325.036 581.524 324.089 581.72 322.963L584.56 324.579C584.25 325.901 583.752 327.101 583.067 328.178L585.271 330.603ZM576.627 328.815C577.476 328.815 578.235 328.611 578.904 328.203L575.206 324.187C575.174 324.154 575.157 324.13 575.157 324.114C574.26 324.669 573.811 325.46 573.811 326.489C573.811 327.191 574.047 327.754 574.521 328.178C575.011 328.603 575.713 328.815 576.627 328.815ZM599.886 331.925C597.976 331.925 596.409 331.386 595.184 330.309C593.96 329.231 593.348 327.787 593.348 325.975V314.441H596.702V325.705C596.702 326.603 596.955 327.313 597.461 327.836C597.984 328.358 598.792 328.619 599.886 328.619C600.979 328.619 601.779 328.358 602.285 327.836C602.808 327.313 603.069 326.603 603.069 325.705V314.441H606.448V325.975C606.448 327.787 605.836 329.231 604.612 330.309C603.387 331.386 601.812 331.925 599.886 331.925ZM622.281 331.582H618.436L615.106 325.999L611.776 331.582H607.956L613.196 322.791L608.225 314.441H612.045L615.106 319.583L618.167 314.441H621.987L617.016 322.767L622.281 331.582Z" fill="white"/>
<ellipse cx="1013.69" cy="306.617" rx="104.314" ry="105.539" fill="#72D798"/>
<path d="M954.248 294.35H961.471V297.582H950.868V280.441H961.349V283.673H954.248V287.322H960.737V290.505H954.248V294.35ZM974.995 297.582H971.346L968.702 293.86L966.033 297.582H962.384L966.865 291.338L962.58 285.339H966.228L968.702 288.791L971.175 285.339H974.799L970.514 291.313L974.995 297.582ZM983.697 284.996C985.346 284.996 986.75 285.624 987.909 286.881C989.084 288.122 989.672 289.648 989.672 291.46C989.672 293.272 989.084 294.807 987.909 296.064C986.75 297.305 985.346 297.925 983.697 297.925C981.983 297.925 980.661 297.329 979.73 296.137V302.479H976.572V285.339H979.73V286.783C980.661 285.592 981.983 284.996 983.697 284.996ZM980.685 293.958C981.322 294.595 982.13 294.913 983.11 294.913C984.089 294.913 984.897 294.595 985.534 293.958C986.187 293.305 986.513 292.472 986.513 291.46C986.513 290.448 986.187 289.624 985.534 288.987C984.897 288.334 984.089 288.008 983.11 288.008C982.13 288.008 981.322 288.334 980.685 288.987C980.049 289.624 979.73 290.448 979.73 291.46C979.73 292.472 980.049 293.305 980.685 293.958ZM994.569 292.758C994.993 294.293 996.144 295.06 998.022 295.06C999.23 295.06 1000.14 294.652 1000.76 293.836L1003.31 295.305C1002.1 297.051 1000.32 297.925 997.973 297.925C995.948 297.925 994.324 297.313 993.1 296.088C991.875 294.864 991.263 293.321 991.263 291.46C991.263 289.616 991.867 288.081 993.075 286.857C994.283 285.616 995.834 284.996 997.728 284.996C999.523 284.996 1001 285.616 1002.16 286.857C1003.34 288.097 1003.92 289.632 1003.92 291.46C1003.92 291.868 1003.88 292.301 1003.8 292.758H994.569ZM994.52 290.309H1000.76C1000.58 289.477 1000.21 288.857 999.638 288.448C999.083 288.04 998.446 287.836 997.728 287.836C996.879 287.836 996.177 288.057 995.622 288.497C995.067 288.922 994.699 289.526 994.52 290.309ZM1009.29 287.444C1009.58 286.661 1010.06 286.073 1010.73 285.681C1011.42 285.29 1012.18 285.094 1013.01 285.094V288.62C1012.05 288.506 1011.18 288.701 1010.41 289.207C1009.66 289.714 1009.29 290.554 1009.29 291.73V297.582H1006.13V285.339H1009.29V287.444ZM1016.42 283.869C1015.9 283.869 1015.44 283.682 1015.05 283.306C1014.68 282.914 1014.49 282.457 1014.49 281.935C1014.49 281.412 1014.68 280.955 1015.05 280.564C1015.44 280.172 1015.9 279.976 1016.42 279.976C1016.96 279.976 1017.42 280.172 1017.79 280.564C1018.19 280.955 1018.38 281.412 1018.38 281.935C1018.38 282.457 1018.19 282.914 1017.79 283.306C1017.42 283.682 1016.96 283.869 1016.42 283.869ZM1014.86 297.582V285.339H1018.02V297.582H1014.86ZM1034.45 284.996C1035.85 284.996 1036.97 285.453 1037.8 286.367C1038.65 287.281 1039.08 288.506 1039.08 290.04V297.582H1035.92V290.26C1035.92 289.526 1035.74 288.954 1035.38 288.546C1035.02 288.138 1034.51 287.934 1033.86 287.934C1033.14 287.934 1032.58 288.171 1032.17 288.644C1031.78 289.118 1031.58 289.803 1031.58 290.701V297.582H1028.42V290.26C1028.42 289.526 1028.24 288.954 1027.89 288.546C1027.53 288.138 1027.02 287.934 1026.37 287.934C1025.66 287.934 1025.1 288.171 1024.68 288.644C1024.27 289.118 1024.07 289.803 1024.07 290.701V297.582H1020.91V285.339H1024.07V286.636C1024.8 285.543 1025.93 284.996 1027.47 284.996C1028.97 284.996 1030.08 285.583 1030.8 286.759C1031.62 285.583 1032.83 284.996 1034.45 284.996ZM1044.43 292.758C1044.85 294.293 1046 295.06 1047.88 295.06C1049.09 295.06 1050 294.652 1050.62 293.836L1053.17 295.305C1051.96 297.051 1050.18 297.925 1047.83 297.925C1045.81 297.925 1044.18 297.313 1042.96 296.088C1041.73 294.864 1041.12 293.321 1041.12 291.46C1041.12 289.616 1041.73 288.081 1042.93 286.857C1044.14 285.616 1045.69 284.996 1047.59 284.996C1049.38 284.996 1050.86 285.616 1052.02 286.857C1053.19 288.097 1053.78 289.632 1053.78 291.46C1053.78 291.868 1053.74 292.301 1053.66 292.758H1044.43ZM1044.38 290.309H1050.62C1050.44 289.477 1050.07 288.857 1049.5 288.448C1048.94 288.04 1048.3 287.836 1047.59 287.836C1046.74 287.836 1046.04 288.057 1045.48 288.497C1044.93 288.922 1044.56 289.526 1044.38 290.309ZM1062.79 284.996C1064.13 284.996 1065.23 285.445 1066.1 286.343C1066.98 287.24 1067.42 288.481 1067.42 290.065V297.582H1064.26V290.456C1064.26 289.64 1064.04 289.02 1063.6 288.595C1063.16 288.155 1062.57 287.934 1061.84 287.934C1061.02 287.934 1060.37 288.187 1059.88 288.693C1059.39 289.199 1059.15 289.958 1059.15 290.971V297.582H1055.99V285.339H1059.15V286.71C1059.91 285.567 1061.13 284.996 1062.79 284.996ZM1077.12 288.375H1074.36V293.468C1074.36 293.893 1074.46 294.203 1074.67 294.399C1074.89 294.595 1075.2 294.709 1075.6 294.742C1076.01 294.758 1076.52 294.75 1077.12 294.717V297.582C1074.95 297.827 1073.42 297.623 1072.52 296.97C1071.64 296.317 1071.2 295.15 1071.2 293.468V288.375H1069.07V285.339H1071.2V282.865L1074.36 281.91V285.339H1077.12V288.375ZM986.393 330.603L983.7 332.145L982.133 330.456C980.81 331.435 979.276 331.925 977.529 331.925C975.766 331.925 974.321 331.468 973.195 330.554C972.085 329.623 971.53 328.382 971.53 326.832C971.53 325.819 971.775 324.881 972.264 324.016C972.754 323.15 973.464 322.448 974.395 321.91C973.84 321.028 973.562 320.073 973.562 319.045C973.562 317.592 974.068 316.408 975.08 315.494C976.093 314.564 977.374 314.098 978.925 314.098C980.149 314.098 981.243 314.417 982.206 315.053C983.186 315.674 983.912 316.58 984.385 317.771L981.496 319.436C981.023 318.065 980.182 317.38 978.974 317.38C978.386 317.38 977.896 317.551 977.505 317.894C977.129 318.237 976.941 318.669 976.941 319.192C976.941 319.649 977.048 320.065 977.26 320.44C977.488 320.816 977.847 321.265 978.337 321.787L982.01 325.803C982.369 325.036 982.647 324.089 982.843 322.963L985.683 324.579C985.373 325.901 984.875 327.101 984.19 328.178L986.393 330.603ZM977.749 328.815C978.598 328.815 979.357 328.611 980.027 328.203L976.329 324.187C976.297 324.154 976.28 324.13 976.28 324.114C975.382 324.669 974.933 325.46 974.933 326.489C974.933 327.191 975.17 327.754 975.644 328.178C976.133 328.603 976.835 328.815 977.749 328.815ZM997.997 328.35H1004.53V331.582H994.617V314.441H997.997V328.35ZM1008.74 326.758C1009.16 328.293 1010.31 329.06 1012.19 329.06C1013.4 329.06 1014.31 328.652 1014.93 327.836L1017.48 329.305C1016.27 331.051 1014.49 331.925 1012.14 331.925C1010.12 331.925 1008.49 331.313 1007.27 330.088C1006.04 328.864 1005.43 327.321 1005.43 325.46C1005.43 323.616 1006.04 322.081 1007.24 320.857C1008.45 319.616 1010 318.996 1011.9 318.996C1013.69 318.996 1015.17 319.616 1016.33 320.857C1017.5 322.097 1018.09 323.632 1018.09 325.46C1018.09 325.868 1018.05 326.301 1017.97 326.758H1008.74ZM1008.69 324.309H1014.93C1014.75 323.477 1014.38 322.857 1013.81 322.448C1013.25 322.04 1012.61 321.836 1011.9 321.836C1011.05 321.836 1010.35 322.057 1009.79 322.497C1009.24 322.922 1008.87 323.526 1008.69 324.309ZM1029.51 319.339H1032.66V331.582H1029.51V330.137C1028.56 331.329 1027.23 331.925 1025.51 331.925C1023.88 331.925 1022.48 331.305 1021.3 330.064C1020.14 328.807 1019.56 327.272 1019.56 325.46C1019.56 323.648 1020.14 322.122 1021.3 320.881C1022.48 319.624 1023.88 318.996 1025.51 318.996C1027.23 318.996 1028.56 319.592 1029.51 320.783V319.339ZM1023.68 327.958C1024.31 328.595 1025.12 328.913 1026.1 328.913C1027.08 328.913 1027.89 328.595 1028.53 327.958C1029.18 327.305 1029.51 326.472 1029.51 325.46C1029.51 324.448 1029.18 323.624 1028.53 322.987C1027.89 322.334 1027.08 322.008 1026.1 322.008C1025.12 322.008 1024.31 322.334 1023.68 322.987C1023.04 323.624 1022.72 324.448 1022.72 325.46C1022.72 326.472 1023.04 327.305 1023.68 327.958ZM1038.69 321.444C1038.98 320.661 1039.46 320.073 1040.13 319.681C1040.82 319.29 1041.58 319.094 1042.41 319.094V322.62C1041.45 322.506 1040.58 322.701 1039.81 323.207C1039.06 323.714 1038.69 324.554 1038.69 325.73V331.582H1035.53V319.339H1038.69V321.444ZM1051.06 318.996C1052.4 318.996 1053.51 319.445 1054.37 320.343C1055.25 321.24 1055.69 322.481 1055.69 324.065V331.582H1052.53V324.456C1052.53 323.64 1052.31 323.02 1051.87 322.595C1051.43 322.155 1050.84 321.934 1050.11 321.934C1049.29 321.934 1048.64 322.187 1048.15 322.693C1047.66 323.199 1047.42 323.958 1047.42 324.971V331.582H1044.26V319.339H1047.42V320.71C1048.18 319.567 1049.4 318.996 1051.06 318.996Z" fill="white"/>
<ellipse cx="805.057" cy="525.778" rx="104.314" ry="105.294" fill="#6361B5"/>
<path d="M772.435 516.839C769.855 516.839 767.725 515.982 766.043 514.268C764.362 512.554 763.521 510.44 763.521 507.926C763.521 505.395 764.362 503.281 766.043 501.584C767.725 499.869 769.855 499.012 772.435 499.012C773.985 499.012 775.414 499.38 776.72 500.114C778.042 500.833 779.071 501.812 779.805 503.053L776.891 504.742C776.467 503.975 775.863 503.379 775.079 502.955C774.296 502.514 773.414 502.294 772.435 502.294C770.769 502.294 769.423 502.816 768.394 503.861C767.382 504.906 766.876 506.261 766.876 507.926C766.876 509.574 767.382 510.921 768.394 511.966C769.423 513.011 770.769 513.533 772.435 513.533C773.414 513.533 774.296 513.321 775.079 512.897C775.879 512.456 776.483 511.86 776.891 511.109L779.805 512.799C779.071 514.039 778.05 515.027 776.744 515.761C775.438 516.48 774.002 516.839 772.435 516.839ZM785.084 506.358C785.378 505.575 785.86 504.987 786.529 504.595C787.215 504.204 787.974 504.008 788.806 504.008V507.534C787.843 507.42 786.978 507.615 786.211 508.122C785.46 508.628 785.084 509.468 785.084 510.644V516.496H781.925V504.253H785.084V506.358ZM792.868 511.672C793.293 513.207 794.444 513.974 796.321 513.974C797.529 513.974 798.443 513.566 799.064 512.75L801.61 514.219C800.402 515.966 798.623 516.839 796.272 516.839C794.248 516.839 792.623 516.227 791.399 515.002C790.175 513.778 789.563 512.235 789.563 510.374C789.563 508.53 790.167 506.995 791.375 505.771C792.583 504.53 794.134 503.91 796.027 503.91C797.823 503.91 799.3 504.53 800.459 505.771C801.635 507.011 802.222 508.546 802.222 510.374C802.222 510.782 802.182 511.215 802.1 511.672H792.868ZM792.819 509.223H799.064C798.884 508.391 798.509 507.771 797.937 507.362C797.382 506.954 796.745 506.75 796.027 506.75C795.178 506.75 794.476 506.971 793.921 507.411C793.366 507.836 792.999 508.44 792.819 509.223ZM813.637 504.253H816.796V516.496H813.637V515.051C812.69 516.243 811.36 516.839 809.646 516.839C808.013 516.839 806.609 516.219 805.434 514.978C804.275 513.721 803.695 512.186 803.695 510.374C803.695 508.562 804.275 507.036 805.434 505.795C806.609 504.538 808.013 503.91 809.646 503.91C811.36 503.91 812.69 504.506 813.637 505.697V504.253ZM807.809 512.872C808.446 513.509 809.254 513.827 810.233 513.827C811.213 513.827 812.021 513.509 812.657 512.872C813.31 512.219 813.637 511.386 813.637 510.374C813.637 509.362 813.31 508.538 812.657 507.901C812.021 507.248 811.213 506.922 810.233 506.922C809.254 506.922 808.446 507.248 807.809 507.901C807.172 508.538 806.854 509.362 806.854 510.374C806.854 511.386 807.172 512.219 807.809 512.872ZM826.663 507.289H823.896V512.382C823.896 512.807 824.003 513.117 824.215 513.313C824.427 513.509 824.737 513.623 825.145 513.656C825.553 513.672 826.059 513.664 826.663 513.631V516.496C824.492 516.741 822.958 516.537 822.06 515.884C821.178 515.231 820.738 514.064 820.738 512.382V507.289H818.607V504.253H820.738V501.779L823.896 500.824V504.253H826.663V507.289ZM831.177 511.672C831.602 513.207 832.752 513.974 834.63 513.974C835.838 513.974 836.752 513.566 837.372 512.75L839.919 514.219C838.711 515.966 836.932 516.839 834.581 516.839C832.557 516.839 830.932 516.227 829.708 515.002C828.484 513.778 827.871 512.235 827.871 510.374C827.871 508.53 828.475 506.995 829.683 505.771C830.891 504.53 832.442 503.91 834.336 503.91C836.132 503.91 837.609 504.53 838.768 505.771C839.943 507.011 840.531 508.546 840.531 510.374C840.531 510.782 840.49 511.215 840.409 511.672H831.177ZM831.128 509.223H837.372C837.193 508.391 836.817 507.771 836.246 507.362C835.691 506.954 835.054 506.75 834.336 506.75C833.487 506.75 832.785 506.971 832.23 507.411C831.675 507.836 831.308 508.44 831.128 509.223ZM781.405 549.517L778.711 551.059L777.144 549.37C775.822 550.349 774.287 550.839 772.541 550.839C770.777 550.839 769.333 550.382 768.206 549.468C767.096 548.537 766.541 547.296 766.541 545.746C766.541 544.733 766.786 543.795 767.276 542.93C767.766 542.064 768.476 541.362 769.406 540.824C768.851 539.942 768.574 538.987 768.574 537.959C768.574 536.506 769.08 535.322 770.092 534.408C771.104 533.478 772.385 533.012 773.936 533.012C775.161 533.012 776.254 533.331 777.218 533.967C778.197 534.588 778.923 535.494 779.397 536.685L776.507 538.351C776.034 536.979 775.193 536.294 773.985 536.294C773.398 536.294 772.908 536.465 772.516 536.808C772.141 537.151 771.953 537.583 771.953 538.106C771.953 538.563 772.059 538.979 772.271 539.355C772.5 539.73 772.859 540.179 773.349 540.701L777.022 544.717C777.381 543.95 777.658 543.003 777.854 541.877L780.695 543.493C780.385 544.815 779.887 546.015 779.201 547.092L781.405 549.517ZM772.761 547.729C773.61 547.729 774.369 547.525 775.038 547.117L771.341 543.101C771.308 543.068 771.292 543.044 771.292 543.028C770.394 543.583 769.945 544.374 769.945 545.403C769.945 546.105 770.182 546.668 770.655 547.092C771.145 547.517 771.847 547.729 772.761 547.729ZM799.987 541.607C801.489 542.473 802.24 543.779 802.24 545.525C802.24 546.978 801.725 548.17 800.697 549.1C799.668 550.031 798.403 550.496 796.901 550.496H789.629V533.355H796.387C797.856 533.355 799.089 533.812 800.085 534.726C801.097 535.624 801.603 536.775 801.603 538.179C801.603 539.599 801.064 540.742 799.987 541.607ZM796.387 536.514H793.008V540.285H796.387C796.91 540.285 797.342 540.105 797.685 539.746C798.044 539.387 798.224 538.938 798.224 538.4C798.224 537.861 798.052 537.412 797.71 537.053C797.367 536.694 796.926 536.514 796.387 536.514ZM796.901 547.337C797.473 547.337 797.946 547.15 798.322 546.774C798.697 546.382 798.885 545.893 798.885 545.305C798.885 544.733 798.697 544.26 798.322 543.885C797.946 543.493 797.473 543.297 796.901 543.297H793.008V547.337H796.901ZM812.652 538.253H815.811V550.496H812.652V549.125C811.884 550.268 810.668 550.839 809.003 550.839C807.665 550.839 806.554 550.39 805.673 549.492C804.808 548.594 804.375 547.354 804.375 545.77V538.253H807.534V545.378C807.534 546.195 807.754 546.823 808.195 547.264C808.636 547.688 809.224 547.9 809.958 547.9C810.774 547.9 811.427 547.647 811.917 547.141C812.407 546.635 812.652 545.876 812.652 544.864V538.253ZM820.271 536.783C819.748 536.783 819.291 536.596 818.9 536.22C818.524 535.828 818.336 535.371 818.336 534.849C818.336 534.327 818.524 533.869 818.9 533.478C819.291 533.086 819.748 532.89 820.271 532.89C820.81 532.89 821.267 533.086 821.642 533.478C822.034 533.869 822.23 534.327 822.23 534.849C822.23 535.371 822.034 535.828 821.642 536.22C821.267 536.596 820.81 536.783 820.271 536.783ZM818.704 550.496V538.253H821.862V550.496H818.704ZM824.754 550.496V532.621H827.912V550.496H824.754ZM840.084 533.355H843.243V550.496H840.084V549.051C839.154 550.243 837.831 550.839 836.117 550.839C834.469 550.839 833.056 550.219 831.881 548.978C830.722 547.721 830.143 546.186 830.143 544.374C830.143 542.562 830.722 541.036 831.881 539.795C833.056 538.538 834.469 537.91 836.117 537.91C837.831 537.91 839.154 538.506 840.084 539.697V533.355ZM834.256 546.872C834.909 547.509 835.726 547.827 836.705 547.827C837.684 547.827 838.493 547.509 839.129 546.872C839.766 546.219 840.084 545.386 840.084 544.374C840.084 543.362 839.766 542.538 839.129 541.901C838.493 541.248 837.684 540.922 836.705 540.922C835.726 540.922 834.909 541.248 834.256 541.901C833.62 542.538 833.301 543.362 833.301 544.374C833.301 545.386 833.62 546.219 834.256 546.872Z" fill="white"/>
<ellipse cx="387.314" cy="525.535" rx="104.314" ry="105.539" fill="#5297CF"/>
<path d="M364.413 499.355C366.764 499.355 368.723 500.18 370.29 501.828C371.874 503.477 372.666 505.51 372.666 507.926C372.666 510.342 371.874 512.374 370.29 514.023C368.723 515.672 366.764 516.496 364.413 516.496H357.606V499.355H364.413ZM364.413 513.264C365.899 513.264 367.107 512.774 368.038 511.795C368.968 510.799 369.433 509.509 369.433 507.926C369.433 506.342 368.968 505.061 368.038 504.081C367.107 503.085 365.899 502.587 364.413 502.587H360.985V513.264H364.413ZM384.221 504.253H387.38V516.496H384.221V515.051C383.274 516.243 381.943 516.839 380.229 516.839C378.597 516.839 377.193 516.219 376.018 514.978C374.859 513.721 374.279 512.186 374.279 510.374C374.279 508.562 374.859 507.036 376.018 505.795C377.193 504.538 378.597 503.91 380.229 503.91C381.943 503.91 383.274 504.506 384.221 505.697V504.253ZM378.393 512.872C379.03 513.509 379.838 513.827 380.817 513.827C381.797 513.827 382.605 513.509 383.241 512.872C383.894 512.219 384.221 511.386 384.221 510.374C384.221 509.362 383.894 508.538 383.241 507.901C382.605 507.248 381.797 506.922 380.817 506.922C379.838 506.922 379.03 507.248 378.393 507.901C377.756 508.538 377.438 509.362 377.438 510.374C377.438 511.386 377.756 512.219 378.393 512.872ZM397.247 507.289H394.48V512.382C394.48 512.807 394.586 513.117 394.799 513.313C395.011 513.509 395.321 513.623 395.729 513.656C396.137 513.672 396.643 513.664 397.247 513.631V516.496C395.076 516.741 393.542 516.537 392.644 515.884C391.762 515.231 391.321 514.064 391.321 512.382V507.289H389.191V504.253H391.321V501.779L394.48 500.824V504.253H397.247V507.289ZM408.397 504.253H411.556V516.496H408.397V515.051C407.45 516.243 406.12 516.839 404.405 516.839C402.773 516.839 401.369 516.219 400.194 514.978C399.035 513.721 398.455 512.186 398.455 510.374C398.455 508.562 399.035 507.036 400.194 505.795C401.369 504.538 402.773 503.91 404.405 503.91C406.12 503.91 407.45 504.506 408.397 505.697V504.253ZM402.569 512.872C403.206 513.509 404.014 513.827 404.993 513.827C405.973 513.827 406.781 513.509 407.417 512.872C408.07 512.219 408.397 511.386 408.397 510.374C408.397 509.362 408.07 508.538 407.417 507.901C406.781 507.248 405.973 506.922 404.993 506.922C404.014 506.922 403.206 507.248 402.569 507.901C401.932 508.538 401.614 509.362 401.614 510.374C401.614 511.386 401.932 512.219 402.569 512.872ZM348.318 549.517L345.624 551.059L344.057 549.37C342.735 550.349 341.2 550.839 339.454 550.839C337.691 550.839 336.246 550.382 335.12 549.468C334.009 548.537 333.454 547.296 333.454 545.746C333.454 544.733 333.699 543.795 334.189 542.93C334.679 542.064 335.389 541.362 336.319 540.824C335.764 539.942 335.487 538.987 335.487 537.959C335.487 536.506 335.993 535.322 337.005 534.408C338.017 533.478 339.299 533.012 340.849 533.012C342.074 533.012 343.168 533.331 344.131 533.967C345.11 534.588 345.837 535.494 346.31 536.685L343.421 538.351C342.947 536.979 342.106 536.294 340.898 536.294C340.311 536.294 339.821 536.465 339.429 536.808C339.054 537.151 338.866 537.583 338.866 538.106C338.866 538.563 338.972 538.979 339.184 539.355C339.413 539.73 339.772 540.179 340.262 540.701L343.935 544.717C344.294 543.95 344.572 543.003 344.767 541.877L347.608 543.493C347.298 544.815 346.8 546.015 346.114 547.092L348.318 549.517ZM339.674 547.729C340.523 547.729 341.282 547.525 341.951 547.117L338.254 543.101C338.221 543.068 338.205 543.044 338.205 543.028C337.307 543.583 336.858 544.374 336.858 545.403C336.858 546.105 337.095 546.668 337.568 547.092C338.058 547.517 338.76 547.729 339.674 547.729ZM356.542 533.355H359.921V550.496H356.542V533.355ZM369.755 537.91C371.093 537.91 372.195 538.359 373.06 539.257C373.942 540.154 374.383 541.395 374.383 542.979V550.496H371.224V543.37C371.224 542.554 371.003 541.934 370.563 541.509C370.122 541.069 369.534 540.848 368.8 540.848C367.983 540.848 367.33 541.101 366.841 541.607C366.351 542.113 366.106 542.872 366.106 543.885V550.496H362.947V538.253H366.106V539.624C366.873 538.481 368.09 537.91 369.755 537.91ZM379.994 541.73C379.994 542.056 380.206 542.326 380.63 542.538C381.071 542.734 381.602 542.913 382.222 543.077C382.842 543.223 383.463 543.419 384.083 543.664C384.703 543.893 385.226 544.285 385.65 544.84C386.091 545.395 386.311 546.088 386.311 546.921C386.311 548.178 385.838 549.149 384.891 549.835C383.961 550.504 382.793 550.839 381.39 550.839C378.876 550.839 377.161 549.868 376.247 547.925L378.99 546.382C379.349 547.443 380.149 547.974 381.39 547.974C382.516 547.974 383.079 547.623 383.079 546.921C383.079 546.595 382.859 546.333 382.418 546.137C381.994 545.925 381.471 545.737 380.851 545.574C380.231 545.411 379.61 545.207 378.99 544.962C378.37 544.717 377.839 544.334 377.398 543.811C376.974 543.272 376.762 542.603 376.762 541.803C376.762 540.595 377.202 539.648 378.084 538.963C378.982 538.261 380.092 537.91 381.414 537.91C382.41 537.91 383.316 538.138 384.132 538.595C384.948 539.036 385.593 539.673 386.067 540.505L383.373 541.975C382.981 541.142 382.328 540.726 381.414 540.726C381.006 540.726 380.663 540.816 380.386 540.995C380.124 541.175 379.994 541.42 379.994 541.73ZM389.91 536.783C389.388 536.783 388.931 536.596 388.539 536.22C388.163 535.828 387.976 535.371 387.976 534.849C387.976 534.327 388.163 533.869 388.539 533.478C388.931 533.086 389.388 532.89 389.91 532.89C390.449 532.89 390.906 533.086 391.281 533.478C391.673 533.869 391.869 534.327 391.869 534.849C391.869 535.371 391.673 535.828 391.281 536.22C390.906 536.596 390.449 536.783 389.91 536.783ZM388.343 550.496V538.253H391.502V550.496H388.343ZM403.771 538.253H406.857V549.908C406.857 551.802 406.228 553.247 404.971 554.243C403.731 555.238 402.229 555.736 400.466 555.736C399.143 555.736 397.976 555.483 396.964 554.977C395.968 554.471 395.201 553.728 394.662 552.749L397.356 551.206C397.976 552.349 399.045 552.92 400.564 552.92C401.559 552.92 402.343 552.659 402.914 552.137C403.486 551.614 403.771 550.872 403.771 549.908V548.586C402.841 549.827 401.535 550.447 399.853 550.447C398.123 550.447 396.67 549.843 395.495 548.635C394.336 547.411 393.756 545.925 393.756 544.178C393.756 542.448 394.344 540.971 395.519 539.746C396.695 538.522 398.139 537.91 399.853 537.91C401.535 537.91 402.841 538.53 403.771 539.771V538.253ZM397.87 546.603C398.523 547.223 399.347 547.533 400.343 547.533C401.339 547.533 402.155 547.223 402.792 546.603C403.445 545.966 403.771 545.158 403.771 544.178C403.771 543.215 403.445 542.424 402.792 541.803C402.155 541.167 401.339 540.848 400.343 540.848C399.347 540.848 398.523 541.167 397.87 541.803C397.233 542.424 396.915 543.215 396.915 544.178C396.915 545.158 397.233 545.966 397.87 546.603ZM416.529 537.91C417.867 537.91 418.969 538.359 419.834 539.257C420.716 540.154 421.157 541.395 421.157 542.979V550.496H417.998V543.37C417.998 542.554 417.777 541.934 417.337 541.509C416.896 541.069 416.308 540.848 415.574 540.848C414.757 540.848 414.104 541.101 413.615 541.607C413.125 542.113 412.88 542.872 412.88 543.885V550.496H409.721V533.355H412.88V539.624C413.647 538.481 414.863 537.91 416.529 537.91ZM430.857 541.289H428.09V546.382C428.09 546.807 428.196 547.117 428.408 547.313C428.621 547.509 428.931 547.623 429.339 547.656C429.747 547.672 430.253 547.664 430.857 547.631V550.496C428.686 550.741 427.151 550.537 426.254 549.884C425.372 549.231 424.931 548.064 424.931 546.382V541.289H422.801V538.253H424.931V535.779L428.09 534.824V538.253H430.857V541.289ZM435.735 541.73C435.735 542.056 435.947 542.326 436.372 542.538C436.813 542.734 437.343 542.913 437.963 543.077C438.584 543.223 439.204 543.419 439.824 543.664C440.445 543.893 440.967 544.285 441.392 544.84C441.832 545.395 442.053 546.088 442.053 546.921C442.053 548.178 441.579 549.149 440.633 549.835C439.702 550.504 438.535 550.839 437.131 550.839C434.617 550.839 432.903 549.868 431.989 547.925L434.731 546.382C435.09 547.443 435.89 547.974 437.131 547.974C438.257 547.974 438.82 547.623 438.82 546.921C438.82 546.595 438.6 546.333 438.159 546.137C437.735 545.925 437.213 545.737 436.592 545.574C435.972 545.411 435.351 545.207 434.731 544.962C434.111 544.717 433.58 544.334 433.14 543.811C432.715 543.272 432.503 542.603 432.503 541.803C432.503 540.595 432.944 539.648 433.825 538.963C434.723 538.261 435.833 537.91 437.155 537.91C438.151 537.91 439.057 538.138 439.873 538.595C440.69 539.036 441.334 539.673 441.808 540.505L439.114 541.975C438.723 541.142 438.07 540.726 437.155 540.726C436.747 540.726 436.404 540.816 436.127 540.995C435.866 541.175 435.735 541.42 435.735 541.73Z" fill="white"/>
<path d="M575.134 118.407L567.453 93.9244L702.829 56L831.484 87.2036L826.203 108.806L702.829 87.2036L575.134 118.407Z" fill="#EFF7FE"/>
<g opacity="0.3" clip-path="url(#clip1)">
<path d="M581.269 106.56L578.078 98.8789L579.946 98.0931L583.093 105.655C583.652 107.005 584.813 107.627 586.49 106.916C588.166 106.204 588.534 104.929 587.975 103.594L584.828 96.032L586.696 95.2461L589.887 102.927C590.916 105.403 589.74 107.716 587.255 108.769C584.755 109.822 582.299 109.036 581.269 106.56Z" fill="#1E3356"/>
<path d="M599.034 97.9573L600.96 103.058L599.181 103.74L597.328 98.8173C596.858 97.557 595.872 97.1714 594.755 97.6014C593.578 98.0463 592.916 99.0991 593.563 100.804L595.255 105.268L593.475 105.95L590.328 97.6311L592.108 96.949L592.505 98.0166C592.725 96.949 593.46 96.1928 594.578 95.7479C596.416 95.0362 598.225 95.7924 599.034 97.9573Z" fill="#1E3356"/>
<path d="M598.504 90.1602L600.298 89.5078L604.622 101.741L602.827 102.393L598.504 90.1602Z" fill="#1E3356"/>
<path d="M610.244 98.1954C611.244 97.8543 611.847 97.1574 612.053 96.4308L613.832 96.8164C613.435 98.225 612.421 99.3371 610.774 99.8858C608.009 100.805 605.597 99.5002 604.759 96.9795C603.935 94.4735 605.082 91.938 607.715 91.0631C610.215 90.2327 612.582 91.6859 613.391 94.1177C613.479 94.3698 613.524 94.6515 613.568 94.9036L606.906 97.1426C607.641 98.3288 608.906 98.655 610.244 98.1954ZM611.332 93.9842C610.597 92.6201 609.347 92.3531 608.259 92.709C606.906 93.1687 606.244 94.2808 606.421 95.6301L611.332 93.9842Z" fill="#1E3356"/>
<path d="M622.272 86.75L624.787 95.2761L622.964 95.8247L622.596 94.594C622.214 95.6913 621.375 96.5365 620.067 96.9368C617.772 97.6189 615.272 96.2399 614.537 93.7191C613.787 91.1836 615.125 88.6628 617.434 87.9659C618.758 87.5655 619.919 87.8176 620.817 88.5145L620.464 87.2986L622.272 86.75ZM621.699 91.5543C621.228 89.9677 619.743 89.167 618.228 89.6266C616.699 90.0863 615.89 91.5691 616.361 93.1557C616.831 94.7423 618.317 95.543 619.831 95.0833C621.361 94.6237 622.17 93.1409 621.699 91.5543Z" fill="#1E3356"/>
<path d="M632.401 90.6356C632.857 92.3556 631.622 93.6753 629.769 94.1795C628.063 94.6391 626.637 94.1943 625.754 93.097L627.093 91.7477C627.563 92.4446 628.372 92.7263 629.313 92.4743C630.137 92.2518 630.696 91.807 630.504 91.1249C630.107 89.5976 625.74 91.6884 624.931 88.6042C624.504 86.9879 625.622 85.6089 627.357 85.1344C628.754 84.7637 630.093 85.1048 630.99 86.0834L629.666 87.3734C629.181 86.7803 628.504 86.632 627.798 86.8248C627.137 87.0027 626.637 87.4476 626.798 88.0704C627.225 89.6273 631.563 87.4476 632.401 90.6356Z" fill="#1E3356"/>
<path d="M641.069 85.5036L642.319 90.8121L640.466 91.2569L639.26 86.1264C638.951 84.8067 638.04 84.3026 636.863 84.5843C635.642 84.8809 634.848 85.8299 635.275 87.5944L636.363 92.2355L634.51 92.6804L631.672 80.5659L633.525 80.1211L634.598 84.6881C634.951 83.6501 635.775 82.9977 636.951 82.716C638.863 82.2563 640.54 83.2498 641.069 85.5036Z" fill="#1E3356"/>
<path d="M655.594 79.0508L657.167 87.3989C657.697 90.2162 655.756 91.9511 653.491 92.3811C651.579 92.7518 649.976 92.307 648.976 91.0466L650.417 89.7862C650.947 90.4683 651.697 90.9428 653.211 90.6463C654.829 90.3349 655.623 89.2524 655.344 87.74L655.138 86.6724C654.653 87.74 653.741 88.511 652.403 88.7779C649.961 89.2524 647.653 87.6065 647.182 85.1006C646.711 82.5947 648.255 80.2222 650.697 79.7477C652.035 79.4956 653.167 79.8663 654.006 80.6967L653.756 79.4067L655.594 79.0508ZM654.564 83.6771C654.27 82.1053 652.873 81.1564 651.285 81.4529C649.711 81.7495 648.741 83.1581 649.05 84.7299C649.358 86.3017 650.741 87.2506 652.329 86.9541C653.917 86.6575 654.858 85.2637 654.564 83.6771Z" fill="#1E3356"/>
<path d="M662.459 77.7656L662.797 79.8267C661.547 79.9453 660.194 80.7609 660.518 82.733L661.239 87.1517L659.356 87.4631L657.93 78.685L659.812 78.3736L660.047 79.8415C660.371 78.5663 661.356 77.9436 662.459 77.7656Z" fill="#1E3356"/>
<path d="M663.727 82.212C663.36 79.5874 665.154 77.2891 667.698 76.9332C670.272 76.5774 672.595 78.2974 672.948 80.922C673.301 83.5317 671.536 85.8448 668.977 86.2007C666.419 86.5566 664.08 84.8217 663.727 82.212ZM671.066 81.1889C670.845 79.5874 669.492 78.5643 667.963 78.7867C666.433 79.0092 665.404 80.3437 665.625 81.9451C665.845 83.5465 667.198 84.5696 668.727 84.3472C670.257 84.1396 671.286 82.7903 671.066 81.1889Z" fill="#1E3356"/>
<path d="M686.039 75.0352L684.186 84.1692L682.333 84.3619L679.892 78.5939L678.671 84.7475L676.818 84.9402L673.156 76.3845L675.142 76.1769L677.465 82.1081L678.686 75.8062L680.494 75.6134L682.95 81.5298L684.039 75.2427L686.039 75.0352Z" fill="#1E3356"/>
<path d="M690.491 76.6071L690.8 80.8627C690.888 82.0045 691.623 81.9304 693.05 81.7524L693.167 83.4725C690.27 84.0359 689.05 83.3094 688.888 81.011L688.594 76.7406L686.976 76.8592L686.844 75.0205L688.461 74.9019L688.329 72.9891L690.182 72.2773L690.358 74.7536L692.535 74.5905L692.667 76.4292L690.491 76.6071Z" fill="#1E3356"/>
<path d="M702.611 77.496L702.875 82.9527L700.964 83.0417L700.714 77.7777C700.655 76.4284 699.831 75.7463 698.64 75.8056C697.39 75.8649 696.434 76.6656 696.523 78.4747L696.758 83.2641L694.846 83.3531L694.258 70.8976L696.155 70.8086L696.375 75.5091C696.92 74.5601 697.846 74.0707 699.037 74.0114C701.023 73.9076 702.493 75.1828 702.611 77.496Z" fill="#1E3356"/>
<path d="M717.975 73.8025L718.122 82.6993L716.225 82.729L716.21 81.4538C715.563 82.4028 714.519 82.9959 713.151 83.0107C710.754 83.0552 708.725 81.0386 708.68 78.414C708.636 75.7598 710.592 73.6987 712.989 73.6691C714.372 73.6394 715.416 74.2029 716.107 75.1074L716.092 73.847L717.975 73.8025ZM716.151 78.2806C716.122 76.6198 714.901 75.4484 713.313 75.4781C711.725 75.5078 710.548 76.7088 710.577 78.3695C710.607 80.0303 711.827 81.2017 713.416 81.172C714.989 81.1424 716.166 79.9265 716.151 78.2806Z" fill="#1E3356"/>
<path d="M729.322 74.1305L729.087 82.6121C729.014 85.4739 726.749 86.7491 724.44 86.675C722.499 86.6157 721.014 85.8446 720.322 84.4063L721.984 83.487C722.352 84.258 722.984 84.8808 724.514 84.9253C726.161 84.9698 727.161 84.0949 727.205 82.5528L727.234 81.4704C726.543 82.4045 725.484 82.968 724.117 82.9235C721.646 82.8642 719.749 80.7734 719.822 78.223C719.896 75.6726 721.911 73.6857 724.396 73.7598C725.749 73.8043 726.778 74.4123 727.425 75.3909L727.469 74.0712L729.322 74.1305ZM727.337 78.4455C727.381 76.844 726.219 75.6133 724.617 75.5688C723.014 75.5243 721.778 76.6809 721.734 78.2823C721.69 79.8838 722.852 81.1145 724.455 81.159C726.058 81.2035 727.293 80.0469 727.337 78.4455Z" fill="#1E3356"/>
<path d="M740.622 74.7997L740.078 83.6816L738.181 83.563L738.254 82.2878C737.533 83.1923 736.46 83.6965 735.078 83.6075C732.68 83.4592 730.813 81.2943 730.975 78.6698C731.136 76.0304 733.254 74.1176 735.636 74.2659C737.004 74.3548 738.019 74.9776 738.636 75.9414L738.71 74.6811L740.622 74.7997ZM738.445 79.1146C738.548 77.4687 737.416 76.1935 735.828 76.1045C734.239 76.0007 732.975 77.1277 732.872 78.7736C732.769 80.4195 733.901 81.6947 735.489 81.7837C737.078 81.8875 738.342 80.7754 738.445 79.1146Z" fill="#1E3356"/>
<path d="M742.97 75.0027L744.867 75.1658L744.131 84.0329L742.234 83.8698L742.97 75.0027ZM742.926 72.4226C742.984 71.7554 743.573 71.2512 744.249 71.2957C744.911 71.355 745.411 71.9481 745.367 72.6302C745.308 73.2826 744.72 73.8016 744.043 73.7571C743.367 73.6978 742.867 73.0899 742.926 72.4226Z" fill="#1E3356"/>
<path d="M754.86 79.629L754.286 85.0561L752.389 84.8485L752.948 79.6142C753.095 78.2649 752.389 77.479 751.198 77.3455C749.948 77.2121 748.889 77.8497 748.698 79.6587L748.198 84.4036L746.301 84.196L747.227 75.3438L749.124 75.5513L749.007 76.6783C749.683 75.8182 750.683 75.4772 751.874 75.6107C753.83 75.8331 755.095 77.3307 754.86 79.629Z" fill="#1E3356"/>
<path d="M769.033 87.507L768.048 86.0687C767.063 86.6321 765.886 86.9287 764.475 86.7063C762.033 86.3356 760.489 84.7045 760.828 82.4655C761.048 81.0272 761.975 79.8113 763.504 79.2626C763.166 78.625 762.989 77.9133 763.136 77.0088C763.46 74.9032 765.313 73.7763 767.372 74.1025C769.004 74.3546 770.342 75.4815 770.754 77.246L768.901 77.9726C768.725 76.9346 768.063 76.2229 767.107 76.0746C766.151 75.9263 765.283 76.4305 765.151 77.3795C765.033 78.1654 765.416 78.7881 765.901 79.5147L768.372 83.2069C768.754 82.6582 769.078 81.9613 769.328 81.1606L770.886 82.4062C770.563 83.2662 770.092 84.141 769.489 84.8528L770.813 86.8397L769.033 87.507ZM766.989 84.4969L764.475 80.7899C763.46 81.1161 762.989 81.8723 762.886 82.6137C762.71 83.7407 763.401 84.6155 764.872 84.8379C765.666 84.9566 766.372 84.8231 766.989 84.4969Z" fill="#1E3356"/>
<path d="M786.856 81.4989L785.12 90.2178L783.253 89.8323L783.503 88.5719C782.664 89.3578 781.532 89.7136 780.179 89.4467C777.826 88.9722 776.267 86.5701 776.782 83.99C777.297 81.3951 779.65 79.7937 782.003 80.283C783.356 80.55 784.267 81.321 784.738 82.359L784.988 81.1134L786.856 81.4989ZM784.106 85.4877C784.429 83.8714 783.488 82.4628 781.929 82.1365C780.37 81.8252 778.959 82.7445 778.635 84.3756C778.311 85.9918 779.253 87.4005 780.811 87.7267C782.37 88.0381 783.782 87.1039 784.106 85.4877Z" fill="#1E3356"/>
<path d="M797.894 84.0942L795.953 92.3534C795.306 95.1411 792.835 95.9269 790.585 95.3783C788.703 94.9335 787.409 93.8659 787.012 92.3089L788.835 91.7603C789.041 92.5907 789.541 93.3321 791.026 93.6879C792.629 94.0735 793.791 93.421 794.144 91.9086L794.394 90.8558C793.526 91.6417 792.379 91.9679 791.056 91.6565C788.629 91.0782 787.203 88.6316 787.776 86.1553C788.35 83.679 790.732 82.1369 793.144 82.7152C794.468 83.0266 795.35 83.8422 795.776 84.9394L796.071 83.6642L797.894 84.0942ZM795.085 87.905C795.453 86.3481 794.556 84.9098 792.997 84.5391C791.438 84.1684 789.997 85.0432 789.629 86.6002C789.262 88.1571 790.159 89.5954 791.718 89.9661C793.276 90.3368 794.718 89.462 795.085 87.905Z" fill="#1E3356"/>
<path d="M808.788 87.0296L806.479 95.615L804.641 95.1108L804.979 93.8801C804.082 94.6067 802.935 94.8884 801.612 94.5177C799.288 93.8801 797.906 91.389 798.582 88.8386C799.273 86.2733 801.715 84.8499 804.038 85.4875C805.362 85.8582 806.229 86.6737 806.626 87.7413L806.95 86.5254L808.788 87.0296ZM805.803 90.8255C806.229 89.2241 805.391 87.7561 803.847 87.341C802.317 86.9258 800.847 87.7561 800.42 89.3576C799.994 90.959 800.832 92.4269 802.376 92.8421C803.906 93.2573 805.376 92.4121 805.803 90.8255Z" fill="#1E3356"/>
<path d="M811.077 87.7263L812.901 88.2749L810.386 96.801L808.562 96.2524L811.077 87.7263ZM811.548 85.2056C811.739 84.5531 812.415 84.1824 813.062 84.3752C813.71 84.568 814.077 85.25 813.886 85.9025C813.695 86.5401 813.018 86.9256 812.371 86.7328C811.724 86.5401 811.357 85.8283 811.548 85.2056Z" fill="#1E3356"/>
<path d="M821.709 94.679L820.062 99.8836L818.253 99.2905L819.841 94.2787C820.253 92.9886 819.724 92.0693 818.591 91.6986C817.4 91.3131 816.224 91.7134 815.68 93.4483L814.239 97.9857L812.43 97.3925L815.121 88.9258L816.93 89.5189L816.591 90.6013C817.43 89.9044 818.474 89.771 819.606 90.1417C821.489 90.7496 822.415 92.4697 821.709 94.679Z" fill="#1E3356"/>
</g>
<g opacity="0.1">
<rect x="511.055" y="398.082" width="4.80055" height="20.1623" transform="rotate(90 511.055 398.082)" fill="#1E3356"/>
<rect x="506.387" y="398.211" width="4.80055" height="20.1623" fill="#1E3356"/>
<rect x="505.395" y="400.562" width="4.80055" height="44.1651" transform="rotate(45 505.395 400.562)" fill="#1E3356"/>
</g>
<g opacity="0.1">
<rect x="729.816" y="425.422" width="4.80055" height="20.1623" transform="rotate(-180 729.816 425.422)" fill="#1E3356"/>
<rect x="729.691" y="420.746" width="4.80055" height="20.1623" transform="rotate(90 729.691 420.746)" fill="#1E3356"/>
<rect x="727.34" y="419.754" width="4.80055" height="44.1651" transform="rotate(135 727.34 419.754)" fill="#1E3356"/>
</g>
</g>
<defs>
<clipPath id="clip0">
<rect width="1402" height="720" fill="white"/>
</clipPath>
<clipPath id="clip1">
<rect width="243.868" height="38.4044" fill="white" transform="translate(578.496 70.8828)"/>
</clipPath>
</defs>
</svg>
