<svg width="1215" height="353" viewBox="0 0 1215 353" fill="none" xmlns="http://www.w3.org/2000/svg">
<rect width="268.907" height="270" rx="6" fill="white"/>
<path d="M70.5582 121H65.0582V135H70.5582C74.4182 135 77.2582 131.9 77.2582 128C77.2582 124.08 74.4182 121 70.5582 121ZM70.5582 132.8H67.3582V123.2H70.5582C73.2182 123.2 75.0382 125.22 75.0382 128C75.0382 130.76 73.2182 132.8 70.5582 132.8ZM87.1351 125V126.42C86.3751 125.38 85.1951 124.74 83.6351 124.74C80.9151 124.74 78.6551 127.02 78.6551 130C78.6551 132.96 80.9151 135.26 83.6351 135.26C85.1951 135.26 86.3751 134.62 87.1351 133.56V135H89.2951V125H87.1351ZM83.9751 133.2C82.1751 133.2 80.8151 131.86 80.8151 130C80.8151 128.14 82.1751 126.8 83.9751 126.8C85.7751 126.8 87.1351 128.14 87.1351 130C87.1351 131.86 85.7751 133.2 83.9751 133.2ZM97.3927 127.08V125H94.9127V122.2L92.7527 122.84V125H90.9127V127.08H92.7527V131.88C92.7527 134.48 94.0727 135.4 97.3927 135V133.06C95.7527 133.14 94.9127 133.16 94.9127 131.88V127.08H97.3927ZM106.862 125V126.42C106.102 125.38 104.922 124.74 103.362 124.74C100.642 124.74 98.3816 127.02 98.3816 130C98.3816 132.96 100.642 135.26 103.362 135.26C104.922 135.26 106.102 134.62 106.862 133.56V135H109.022V125H106.862ZM103.702 133.2C101.902 133.2 100.542 131.86 100.542 130C100.542 128.14 101.902 126.8 103.702 126.8C105.502 126.8 106.862 128.14 106.862 130C106.862 131.86 105.502 133.2 103.702 133.2ZM128.179 134.3L126.359 132.32C126.919 131.42 127.299 130.38 127.519 129.36L125.559 128.24C125.419 129.18 125.179 130 124.839 130.68L121.439 127C120.779 126.28 120.239 125.66 120.239 124.76C120.239 123.68 121.119 122.98 122.219 122.98C123.319 122.98 124.179 123.66 124.559 124.78L126.519 123.66C125.759 121.76 124.079 120.74 122.199 120.74C119.839 120.74 117.939 122.3 117.939 124.7C117.939 125.72 118.259 126.48 118.739 127.14C117.119 128.02 116.279 129.52 116.279 131.16C116.279 133.72 118.279 135.26 121.079 135.26C122.699 135.26 123.979 134.74 124.979 133.94L126.319 135.38L128.179 134.3ZM121.199 133.12C119.519 133.12 118.599 132.26 118.599 130.98C118.599 130.14 118.999 129.22 120.079 128.68L123.519 132.38C122.879 132.86 122.119 133.12 121.199 133.12ZM135.039 121V135H137.339V121H135.039ZM145.256 124.74C143.896 124.74 142.816 125.24 142.156 126.28V125H139.996V135H142.156V129.64C142.156 127.6 143.276 126.76 144.696 126.76C146.056 126.76 146.936 127.56 146.936 129.08V135H149.096V128.86C149.096 126.26 147.496 124.74 145.256 124.74ZM153.362 127.76C153.362 127.04 154.042 126.7 154.822 126.7C155.642 126.7 156.342 127.06 156.702 127.84L158.522 126.82C157.822 125.5 156.462 124.74 154.822 124.74C152.782 124.74 151.162 125.92 151.162 127.8C151.162 131.38 156.542 130.38 156.542 132.16C156.542 132.96 155.802 133.28 154.842 133.28C153.742 133.28 152.942 132.74 152.622 131.84L150.762 132.92C151.402 134.36 152.842 135.26 154.842 135.26C157.002 135.26 158.742 134.18 158.742 132.18C158.742 128.48 153.362 129.58 153.362 127.76ZM161.604 123.5C162.364 123.5 162.984 122.86 162.984 122.12C162.984 121.36 162.364 120.74 161.604 120.74C160.844 120.74 160.224 121.36 160.224 122.12C160.224 122.86 160.844 123.5 161.604 123.5ZM160.524 135H162.684V125H160.524V135ZM173.152 125V126.48C172.392 125.4 171.212 124.74 169.672 124.74C166.852 124.74 164.632 127.04 164.632 129.9C164.632 132.76 166.852 135.06 169.672 135.06C171.212 135.06 172.392 134.4 173.152 133.32V134.54C173.152 136.28 172.032 137.3 170.172 137.3C168.432 137.3 167.692 136.62 167.252 135.76L165.392 136.84C166.232 138.44 167.932 139.26 170.132 139.26C172.752 139.26 175.272 137.76 175.272 134.54V125H173.152ZM169.972 133.04C168.152 133.04 166.792 131.7 166.792 129.9C166.792 128.1 168.152 126.76 169.972 126.76C171.792 126.76 173.152 128.1 173.152 129.9C173.152 131.7 171.792 133.04 169.972 133.04ZM183.049 124.74C181.689 124.74 180.609 125.24 179.949 126.28V121H177.789V135H179.949V129.64C179.949 127.6 181.069 126.76 182.489 126.76C183.849 126.76 184.729 127.56 184.729 129.08V135H186.889V128.86C186.889 126.26 185.289 124.74 183.049 124.74ZM194.795 127.08V125H192.315V122.2L190.155 122.84V125H188.315V127.08H190.155V131.88C190.155 134.48 191.475 135.4 194.795 135V133.06C193.155 133.14 192.315 133.16 192.315 131.88V127.08H194.795ZM198.323 127.76C198.323 127.04 199.003 126.7 199.783 126.7C200.603 126.7 201.303 127.06 201.663 127.84L203.483 126.82C202.783 125.5 201.423 124.74 199.783 124.74C197.743 124.74 196.123 125.92 196.123 127.8C196.123 131.38 201.503 130.38 201.503 132.16C201.503 132.96 200.763 133.28 199.803 133.28C198.703 133.28 197.903 132.74 197.583 131.84L195.723 132.92C196.363 134.36 197.803 135.26 199.803 135.26C201.963 135.26 203.703 134.18 203.703 132.18C203.703 128.48 198.323 129.58 198.323 127.76Z" fill="#1E3356"/>
<path d="M133.166 51.09L127.407 53.1245L128.283 56.1919L132.697 54.9399V73H136.296V51.09H133.166Z" fill="#60B2F3"/>
<path d="M49.5433 182.192C51.6393 182.192 53.4793 181.088 54.3913 179.424L53.3993 178.864C52.7113 180.208 51.2233 181.104 49.5433 181.104C46.7113 181.104 44.7913 179.008 44.7913 176.4C44.7913 173.792 46.7113 171.696 49.5433 171.696C51.2233 171.696 52.7113 172.592 53.3993 173.936L54.3913 173.36C53.4633 171.696 51.6233 170.608 49.5433 170.608C46.1033 170.608 43.6713 173.2 43.6713 176.4C43.6713 179.6 46.1033 182.192 49.5433 182.192ZM59.723 182.192C62.059 182.192 63.931 180.368 63.931 178C63.931 175.632 62.059 173.808 59.723 173.808C57.387 173.808 55.515 175.632 55.515 178C55.515 180.368 57.387 182.192 59.723 182.192ZM59.723 181.168C57.947 181.168 56.571 179.776 56.571 178C56.571 176.224 57.947 174.832 59.723 174.832C61.499 174.832 62.875 176.224 62.875 178C62.875 179.776 61.499 181.168 59.723 181.168ZM65.6981 182H66.7541V170.32H65.6981V182ZM68.995 182H70.051V170.32H68.995V182ZM79.1719 174V175.568C78.4999 174.496 77.3639 173.808 75.9399 173.808C73.6839 173.808 71.8119 175.632 71.8119 178C71.8119 180.368 73.6839 182.192 75.9399 182.192C77.3639 182.192 78.4999 181.504 79.1719 180.432V182H80.2279V174H79.1719ZM76.0199 181.168C74.2439 181.168 72.8679 179.776 72.8679 178C72.8679 176.224 74.2439 174.832 76.0199 174.832C77.7959 174.832 79.1719 176.224 79.1719 178C79.1719 179.776 77.7959 181.168 76.0199 181.168ZM86.7518 173.808C85.3278 173.808 84.1918 174.496 83.5198 175.568V170.8H82.4638V182H83.5198V180.432C84.1918 181.504 85.3278 182.192 86.7518 182.192C89.0078 182.192 90.8798 180.368 90.8798 178C90.8798 175.632 89.0078 173.808 86.7518 173.808ZM86.6718 181.168C84.8958 181.168 83.5198 179.776 83.5198 178C83.5198 176.224 84.8958 174.832 86.6718 174.832C88.4478 174.832 89.8238 176.224 89.8238 178C89.8238 179.776 88.4478 181.168 86.6718 181.168ZM96.3636 182.192C98.6996 182.192 100.572 180.368 100.572 178C100.572 175.632 98.6996 173.808 96.3636 173.808C94.0276 173.808 92.1556 175.632 92.1556 178C92.1556 180.368 94.0276 182.192 96.3636 182.192ZM96.3636 181.168C94.5876 181.168 93.2116 179.776 93.2116 178C93.2116 176.224 94.5876 174.832 96.3636 174.832C98.1396 174.832 99.5156 176.224 99.5156 178C99.5156 179.776 98.1396 181.168 96.3636 181.168ZM103.395 175.328V174H102.339V182H103.395V177.552C103.395 175.568 104.643 174.896 105.923 174.896V173.872C104.899 173.872 103.955 174.208 103.395 175.328ZM113.766 174V175.568C113.094 174.496 111.958 173.808 110.534 173.808C108.278 173.808 106.406 175.632 106.406 178C106.406 180.368 108.278 182.192 110.534 182.192C111.958 182.192 113.094 181.504 113.766 180.432V182H114.822V174H113.766ZM110.614 181.168C108.838 181.168 107.462 179.776 107.462 178C107.462 176.224 108.838 174.832 110.614 174.832C112.39 174.832 113.766 176.224 113.766 178C113.766 179.776 112.39 181.168 110.614 181.168ZM121.298 175.024V174H118.994V171.76L117.938 172.08V174H116.258V175.024H117.938V179.872C117.938 181.792 119.138 182.32 121.298 182V181.072C119.746 181.136 118.994 181.248 118.994 179.872V175.024H121.298ZM123.586 172.304C124.018 172.304 124.354 171.952 124.354 171.536C124.354 171.12 124.018 170.768 123.586 170.768C123.154 170.768 122.818 171.12 122.818 171.536C122.818 171.952 123.154 172.304 123.586 172.304ZM123.058 182H124.114V174H123.058V182ZM132.114 174L129.314 180.896L126.514 174H125.394L128.674 182H129.954L133.234 174H132.114ZM137.894 173.808C135.414 173.808 133.718 175.648 133.718 178C133.718 180.416 135.446 182.192 137.974 182.192C139.59 182.192 140.822 181.44 141.494 180.352L140.566 179.808C140.134 180.576 139.254 181.168 137.99 181.168C136.294 181.168 135.03 180.16 134.806 178.528H141.83C141.846 178.368 141.862 178.192 141.862 178.032C141.862 175.84 140.342 173.808 137.894 173.808ZM137.894 174.832C139.27 174.832 140.55 175.744 140.774 177.504H134.806C135.014 175.936 136.214 174.832 137.894 174.832ZM148.07 172.304C148.502 172.304 148.838 171.952 148.838 171.536C148.838 171.12 148.502 170.768 148.07 170.768C147.638 170.768 147.302 171.12 147.302 171.536C147.302 171.952 147.638 172.304 148.07 172.304ZM147.542 182H148.598V174H147.542V182ZM154.583 173.808C153.447 173.808 152.519 174.24 151.895 175.248V174H150.839V182H151.895V177.808C151.895 175.664 153.079 174.832 154.487 174.832C155.879 174.832 156.663 175.664 156.663 177.088V182H157.719V177.088C157.719 175.088 156.535 173.808 154.583 173.808ZM164.001 175.024V174H161.697V171.76L160.641 172.08V174H158.961V175.024H160.641V179.872C160.641 181.792 161.841 182.32 164.001 182V181.072C162.449 181.136 161.697 181.248 161.697 179.872V175.024H164.001ZM168.972 173.808C166.492 173.808 164.796 175.648 164.796 178C164.796 180.416 166.524 182.192 169.052 182.192C170.668 182.192 171.9 181.44 172.572 180.352L171.644 179.808C171.212 180.576 170.332 181.168 169.068 181.168C167.372 181.168 166.108 180.16 165.884 178.528H172.908C172.924 178.368 172.94 178.192 172.94 178.032C172.94 175.84 171.42 173.808 168.972 173.808ZM168.972 174.832C170.348 174.832 171.628 175.744 171.852 177.504H165.884C166.092 175.936 167.292 174.832 168.972 174.832ZM175.676 175.328V174H174.62V182H175.676V177.552C175.676 175.568 176.924 174.896 178.204 174.896V173.872C177.18 173.872 176.236 174.208 175.676 175.328ZM179.499 177.568H185.259V176.544H179.499V177.568ZM191.735 175.024V174H189.431V171.76L188.375 172.08V174H186.695V175.024H188.375V179.872C188.375 181.792 189.575 182.32 191.735 182V181.072C190.183 181.136 189.431 181.248 189.431 179.872V175.024H191.735ZM196.707 173.808C194.227 173.808 192.531 175.648 192.531 178C192.531 180.416 194.259 182.192 196.787 182.192C198.403 182.192 199.635 181.44 200.307 180.352L199.379 179.808C198.947 180.576 198.067 181.168 196.803 181.168C195.107 181.168 193.843 180.16 193.619 178.528H200.643C200.659 178.368 200.675 178.192 200.675 178.032C200.675 175.84 199.155 173.808 196.707 173.808ZM196.707 174.832C198.083 174.832 199.363 175.744 199.587 177.504H193.619C193.827 175.936 195.027 174.832 196.707 174.832ZM209.234 174V175.568C208.562 174.496 207.426 173.808 206.002 173.808C203.746 173.808 201.874 175.632 201.874 178C201.874 180.368 203.746 182.192 206.002 182.192C207.426 182.192 208.562 181.504 209.234 180.432V182H210.29V174H209.234ZM206.082 181.168C204.306 181.168 202.93 179.776 202.93 178C202.93 176.224 204.306 174.832 206.082 174.832C207.858 174.832 209.234 176.224 209.234 178C209.234 179.776 207.858 181.168 206.082 181.168ZM221.054 173.808C220.03 173.808 219.054 174.272 218.462 175.264C218.014 174.336 217.15 173.808 216.03 173.808C215.07 173.808 214.206 174.192 213.582 175.168V174H212.526V182H213.582V177.568C213.582 175.584 214.734 174.832 215.886 174.832C217.022 174.832 217.758 175.584 217.758 177.008V182H218.814V177.568C218.814 175.584 219.806 174.832 221.038 174.832C222.174 174.832 222.99 175.584 222.99 177.008V182H224.046V177.008C224.046 175.008 222.814 173.808 221.054 173.808ZM41.2339 194.304C41.6659 194.304 42.0019 193.952 42.0019 193.536C42.0019 193.12 41.6659 192.768 41.2339 192.768C40.8019 192.768 40.4659 193.12 40.4659 193.536C40.4659 193.952 40.8019 194.304 41.2339 194.304ZM40.7059 204H41.7619V196H40.7059V204ZM47.7468 195.808C46.6108 195.808 45.6828 196.24 45.0588 197.248V196H44.0028V204H45.0588V199.808C45.0588 197.664 46.2428 196.832 47.6508 196.832C49.0428 196.832 49.8268 197.664 49.8268 199.088V204H50.8828V199.088C50.8828 197.088 49.6988 195.808 47.7468 195.808ZM58.6066 196L55.8066 202.896L53.0066 196H51.8866L55.1666 204H56.4466L59.7266 196H58.6066ZM64.3863 195.808C61.9063 195.808 60.2103 197.648 60.2103 200C60.2103 202.416 61.9383 204.192 64.4663 204.192C66.0823 204.192 67.3143 203.44 67.9863 202.352L67.0583 201.808C66.6263 202.576 65.7463 203.168 64.4823 203.168C62.7863 203.168 61.5223 202.16 61.2983 200.528H68.3223C68.3383 200.368 68.3543 200.192 68.3543 200.032C68.3543 197.84 66.8343 195.808 64.3863 195.808ZM64.3863 196.832C65.7623 196.832 67.0423 197.744 67.2663 199.504H61.2983C61.5063 197.936 62.7063 196.832 64.3863 196.832ZM70.5536 198.096C70.5536 197.232 71.4016 196.832 72.2336 196.832C73.0016 196.832 73.8176 197.136 74.1536 197.952L75.0336 197.44C74.5696 196.448 73.5456 195.808 72.2336 195.808C70.6336 195.808 69.4976 196.816 69.4976 198.096C69.4976 201.04 74.1696 199.904 74.1696 201.888C74.1696 202.832 73.2736 203.168 72.3296 203.168C71.2576 203.168 70.4256 202.64 70.1376 201.824L69.2416 202.352C69.6416 203.376 70.7296 204.192 72.3296 204.192C74.0416 204.192 75.2256 203.248 75.2256 201.888C75.2256 198.944 70.5536 200.08 70.5536 198.096ZM80.9147 197.024V196H78.6107V193.76L77.5547 194.08V196H75.8747V197.024H77.5547V201.872C77.5547 203.792 78.7547 204.32 80.9147 204V203.072C79.3627 203.136 78.6107 203.248 78.6107 201.872V197.024H80.9147ZM83.2027 194.304C83.6347 194.304 83.9707 193.952 83.9707 193.536C83.9707 193.12 83.6347 192.768 83.2027 192.768C82.7707 192.768 82.4347 193.12 82.4347 193.536C82.4347 193.952 82.7707 194.304 83.2027 194.304ZM82.6747 204H83.7307V196H82.6747V204ZM92.8516 196V197.568C92.1796 196.496 91.0436 195.808 89.6196 195.808C87.3636 195.808 85.4916 197.632 85.4916 200C85.4916 202.368 87.3636 204.192 89.6196 204.192C91.0436 204.192 92.1796 203.504 92.8516 202.432V203.68C92.8516 205.312 91.7476 206.368 89.8916 206.368C88.1636 206.368 87.4276 205.728 87.0276 204.912L86.0996 205.44C86.7236 206.688 88.0516 207.392 89.8916 207.392C91.9556 207.392 93.9076 206.112 93.9076 203.68V196H92.8516ZM89.6996 203.168C87.9236 203.168 86.5476 201.776 86.5476 200C86.5476 198.224 87.9236 196.832 89.6996 196.832C91.4756 196.832 92.8516 198.224 92.8516 200C92.8516 201.776 91.4756 203.168 89.6996 203.168ZM103.023 196V197.568C102.351 196.496 101.215 195.808 99.7914 195.808C97.5354 195.808 95.6634 197.632 95.6634 200C95.6634 202.368 97.5354 204.192 99.7914 204.192C101.215 204.192 102.351 203.504 103.023 202.432V204H104.079V196H103.023ZM99.8714 203.168C98.0954 203.168 96.7194 201.776 96.7194 200C96.7194 198.224 98.0954 196.832 99.8714 196.832C101.647 196.832 103.023 198.224 103.023 200C103.023 201.776 101.647 203.168 99.8714 203.168ZM110.555 197.024V196H108.251V193.76L107.195 194.08V196H105.515V197.024H107.195V201.872C107.195 203.792 108.395 204.32 110.555 204V203.072C109.003 203.136 108.251 203.248 108.251 201.872V197.024H110.555ZM112.843 194.304C113.275 194.304 113.611 193.952 113.611 193.536C113.611 193.12 113.275 192.768 112.843 192.768C112.411 192.768 112.075 193.12 112.075 193.536C112.075 193.952 112.411 194.304 112.843 194.304ZM112.315 204H113.371V196H112.315V204ZM119.34 204.192C121.676 204.192 123.548 202.368 123.548 200C123.548 197.632 121.676 195.808 119.34 195.808C117.004 195.808 115.132 197.632 115.132 200C115.132 202.368 117.004 204.192 119.34 204.192ZM119.34 203.168C117.564 203.168 116.188 201.776 116.188 200C116.188 198.224 117.564 196.832 119.34 196.832C121.116 196.832 122.492 198.224 122.492 200C122.492 201.776 121.116 203.168 119.34 203.168ZM129.059 195.808C127.923 195.808 126.995 196.24 126.371 197.248V196H125.315V204H126.371V199.808C126.371 197.664 127.555 196.832 128.963 196.832C130.355 196.832 131.139 197.664 131.139 199.088V204H132.195V199.088C132.195 197.088 131.011 195.808 129.059 195.808ZM141.965 204.192C144.301 204.192 146.173 202.368 146.173 200C146.173 197.632 144.301 195.808 141.965 195.808C139.629 195.808 137.757 197.632 137.757 200C137.757 202.368 139.629 204.192 141.965 204.192ZM141.965 203.168C140.189 203.168 138.813 201.776 138.813 200C138.813 198.224 140.189 196.832 141.965 196.832C143.741 196.832 145.117 198.224 145.117 200C145.117 201.776 143.741 203.168 141.965 203.168ZM151.628 193.632V192.608C149.468 192.448 148.268 193.6 148.268 195.68V196H146.908V197.024H148.268V204H149.324V197.024H151.628V196H149.324V195.68C149.324 194.144 150.076 193.504 151.628 193.632ZM162.513 196L159.921 202.704L156.913 196H155.793L159.377 204.048L159.169 204.544C158.737 205.584 158.017 206.32 156.977 206.208V207.2C158.417 207.312 159.601 206.272 160.209 204.736L163.633 196H162.513ZM168.325 204.192C170.661 204.192 172.533 202.368 172.533 200C172.533 197.632 170.661 195.808 168.325 195.808C165.989 195.808 164.117 197.632 164.117 200C164.117 202.368 165.989 204.192 168.325 204.192ZM168.325 203.168C166.549 203.168 165.173 201.776 165.173 200C165.173 198.224 166.549 196.832 168.325 196.832C170.101 196.832 171.477 198.224 171.477 200C171.477 201.776 170.101 203.168 168.325 203.168ZM179.932 196V200.192C179.932 202.336 178.748 203.168 177.34 203.168C175.948 203.168 175.164 202.336 175.164 200.912V196H174.108V200.912C174.108 202.912 175.292 204.192 177.244 204.192C178.38 204.192 179.308 203.76 179.932 202.752V204H180.988V196H179.932ZM184.278 197.328V196H183.222V204H184.278V199.552C184.278 197.568 185.526 196.896 186.806 196.896V195.872C185.782 195.872 184.838 196.208 184.278 197.328ZM197.885 196V200.192C197.885 202.336 196.701 203.168 195.293 203.168C193.901 203.168 193.117 202.336 193.117 200.912V196H192.061V200.912C192.061 202.912 193.245 204.192 195.197 204.192C196.333 204.192 197.261 203.76 197.885 202.752V204H198.941V196H197.885ZM202.007 198.096C202.007 197.232 202.855 196.832 203.687 196.832C204.455 196.832 205.271 197.136 205.607 197.952L206.487 197.44C206.023 196.448 204.999 195.808 203.687 195.808C202.087 195.808 200.951 196.816 200.951 198.096C200.951 201.04 205.623 199.904 205.623 201.888C205.623 202.832 204.727 203.168 203.783 203.168C202.711 203.168 201.879 202.64 201.591 201.824L200.695 202.352C201.095 203.376 202.183 204.192 203.783 204.192C205.495 204.192 206.679 203.248 206.679 201.888C206.679 198.944 202.007 200.08 202.007 198.096ZM211.902 195.808C209.422 195.808 207.726 197.648 207.726 200C207.726 202.416 209.454 204.192 211.982 204.192C213.598 204.192 214.83 203.44 215.502 202.352L214.574 201.808C214.142 202.576 213.262 203.168 211.998 203.168C210.302 203.168 209.038 202.16 208.814 200.528H215.838C215.854 200.368 215.87 200.192 215.87 200.032C215.87 197.84 214.35 195.808 211.902 195.808ZM211.902 196.832C213.278 196.832 214.558 197.744 214.782 199.504H208.814C209.022 197.936 210.222 196.832 211.902 196.832ZM218.606 197.328V196H217.55V204H218.606V199.552C218.606 197.568 219.854 196.896 221.134 196.896V195.872C220.11 195.872 219.166 196.208 218.606 197.328ZM223.1 198.096C223.1 197.232 223.948 196.832 224.78 196.832C225.548 196.832 226.364 197.136 226.7 197.952L227.58 197.44C227.116 196.448 226.092 195.808 224.78 195.808C223.18 195.808 222.044 196.816 222.044 198.096C222.044 201.04 226.716 199.904 226.716 201.888C226.716 202.832 225.82 203.168 224.876 203.168C223.804 203.168 222.972 202.64 222.684 201.824L221.788 202.352C222.188 203.376 223.276 204.192 224.876 204.192C226.588 204.192 227.772 203.248 227.772 201.888C227.772 198.944 223.1 200.08 223.1 198.096Z" fill="#516689"/>
<rect x="315" width="268.907" height="270" rx="6" fill="white"/>
<path d="M442.064 72H456.493V68.5257H447.416L452.362 63.5803C454.459 61.4519 456.086 59.167 456.086 56.4439C456.086 52.0932 452.675 49.6831 449.075 49.6831C446.164 49.6831 443.41 51.1229 442.001 54.1277L445.038 55.9118C445.883 54.159 447.291 53.1887 449.107 53.1887C450.985 53.1887 452.487 54.3781 452.487 56.5691C452.487 58.228 451.266 59.8243 449.701 61.3893L442.064 69.183V72Z" fill="#E86DBD"/>
<path d="M391.124 134.26C394.044 134.26 396.084 132.7 396.084 130.14C396.084 127.36 393.744 126.64 391.424 125.9C389.384 125.26 388.604 124.8 388.604 123.72C388.604 122.66 389.464 121.98 390.804 121.98C392.364 121.98 393.244 122.82 393.744 123.94L395.684 122.82C394.804 120.96 393.104 119.74 390.804 119.74C388.444 119.74 386.304 121.2 386.304 123.78C386.304 126.42 388.424 127.22 390.604 127.88C392.684 128.52 393.784 128.94 393.784 130.18C393.784 131.2 393.004 132.02 391.184 132.02C389.284 132.02 388.204 131.08 387.704 129.66L385.724 130.82C386.464 132.9 388.364 134.26 391.124 134.26ZM403.213 126.08V124H400.733V121.2L398.573 121.84V124H396.733V126.08H398.573V130.88C398.573 133.48 399.893 134.4 403.213 134V132.06C401.573 132.14 400.733 132.16 400.733 130.88V126.08H403.213ZM407.43 125.68V124H405.27V134H407.43V128.96C407.43 126.72 409.09 126.06 410.51 126.16V123.82C409.25 123.82 408.03 124.32 407.43 125.68ZM419.557 124V125.42C418.797 124.38 417.617 123.74 416.057 123.74C413.337 123.74 411.077 126.02 411.077 129C411.077 131.96 413.337 134.26 416.057 134.26C417.617 134.26 418.797 133.62 419.557 132.56V134H421.717V124H419.557ZM416.397 132.2C414.597 132.2 413.237 130.86 413.237 129C413.237 127.14 414.597 125.8 416.397 125.8C418.197 125.8 419.557 127.14 419.557 129C419.557 130.86 418.197 132.2 416.397 132.2ZM429.815 126.08V124H427.335V121.2L425.175 121.84V124H423.335V126.08H425.175V130.88C425.175 133.48 426.495 134.4 429.815 134V132.06C428.175 132.14 427.335 132.16 427.335 130.88V126.08H429.815ZM433.064 129.92H441.024C441.064 129.64 441.104 129.32 441.104 129.02C441.104 126.14 439.064 123.74 436.084 123.74C432.944 123.74 430.804 126.04 430.804 129C430.804 132 432.944 134.26 436.244 134.26C438.204 134.26 439.704 133.44 440.624 132.08L438.844 131.04C438.364 131.74 437.464 132.28 436.264 132.28C434.664 132.28 433.404 131.48 433.064 129.92ZM433.044 128.16C433.344 126.66 434.444 125.7 436.064 125.7C437.364 125.7 438.624 126.44 438.924 128.16H433.044ZM450.906 124V125.48C450.146 124.4 448.966 123.74 447.426 123.74C444.606 123.74 442.386 126.04 442.386 128.9C442.386 131.76 444.606 134.06 447.426 134.06C448.966 134.06 450.146 133.4 450.906 132.32V133.54C450.906 135.28 449.786 136.3 447.926 136.3C446.186 136.3 445.446 135.62 445.006 134.76L443.146 135.84C443.986 137.44 445.686 138.26 447.886 138.26C450.506 138.26 453.026 136.76 453.026 133.54V124H450.906ZM447.726 132.04C445.906 132.04 444.546 130.7 444.546 128.9C444.546 127.1 445.906 125.76 447.726 125.76C449.546 125.76 450.906 127.1 450.906 128.9C450.906 130.7 449.546 132.04 447.726 132.04ZM462.283 124L459.723 131.26L456.743 124H454.383L458.623 133.82L458.523 134.02C458.023 135.34 457.263 136.06 455.863 135.98V138C458.163 138.14 459.803 136.86 460.743 134.32L464.583 124H462.283ZM482.574 133.3L480.754 131.32C481.314 130.42 481.694 129.38 481.914 128.36L479.954 127.24C479.814 128.18 479.574 129 479.234 129.68L475.834 126C475.174 125.28 474.634 124.66 474.634 123.76C474.634 122.68 475.514 121.98 476.614 121.98C477.714 121.98 478.574 122.66 478.954 123.78L480.914 122.66C480.154 120.76 478.474 119.74 476.594 119.74C474.234 119.74 472.334 121.3 472.334 123.7C472.334 124.72 472.654 125.48 473.134 126.14C471.514 127.02 470.674 128.52 470.674 130.16C470.674 132.72 472.674 134.26 475.474 134.26C477.094 134.26 478.374 133.74 479.374 132.94L480.714 134.38L482.574 133.3ZM475.594 132.12C473.914 132.12 472.994 131.26 472.994 129.98C472.994 129.14 473.394 128.22 474.474 127.68L477.914 131.38C477.274 131.86 476.514 132.12 475.594 132.12ZM494.593 134.26C497.653 134.26 499.893 132.38 499.893 129.36V120H497.593V129.22C497.593 130.86 496.653 132.02 494.593 132.02C492.533 132.02 491.593 130.86 491.593 129.22V120H489.293V129.36C489.293 132.38 491.513 134.26 494.593 134.26ZM512.643 134L508.263 126.8L512.403 120H509.783L506.943 124.66L504.103 120H501.503L505.643 126.8L501.243 134H503.863L506.943 128.94L510.023 134H512.643Z" fill="#1E3356"/>
<path d="M382.931 181H384.115L379.811 169.8H378.659L374.355 181H375.539L376.579 178.248H381.891L382.931 181ZM376.979 177.192L379.235 171.192L381.491 177.192H376.979ZM388.965 181.192C390.533 181.192 391.893 180.376 392.549 179.112L391.669 178.6C391.157 179.528 390.181 180.168 388.965 180.168C387.189 180.168 385.813 178.776 385.813 177C385.813 175.224 387.189 173.832 388.965 173.832C390.165 173.832 391.173 174.456 391.605 175.4L392.469 174.904C391.893 173.64 390.549 172.808 388.965 172.808C386.549 172.808 384.757 174.632 384.757 177C384.757 179.368 386.549 181.192 388.965 181.192ZM398.305 174.024V173H396.001V170.76L394.945 171.08V173H393.265V174.024H394.945V178.872C394.945 180.792 396.145 181.32 398.305 181V180.072C396.753 180.136 396.001 180.248 396.001 178.872V174.024H398.305ZM400.593 171.304C401.025 171.304 401.361 170.952 401.361 170.536C401.361 170.12 401.025 169.768 400.593 169.768C400.161 169.768 399.825 170.12 399.825 170.536C399.825 170.952 400.161 171.304 400.593 171.304ZM400.065 181H401.121V173H400.065V181ZM407.09 181.192C409.426 181.192 411.298 179.368 411.298 177C411.298 174.632 409.426 172.808 407.09 172.808C404.754 172.808 402.882 174.632 402.882 177C402.882 179.368 404.754 181.192 407.09 181.192ZM407.09 180.168C405.314 180.168 403.938 178.776 403.938 177C403.938 175.224 405.314 173.832 407.09 173.832C408.866 173.832 410.242 175.224 410.242 177C410.242 178.776 408.866 180.168 407.09 180.168ZM416.809 172.808C415.673 172.808 414.745 173.24 414.121 174.248V173H413.065V181H414.121V176.808C414.121 174.664 415.305 173.832 416.713 173.832C418.105 173.832 418.889 174.664 418.889 176.088V181H419.945V176.088C419.945 174.088 418.761 172.808 416.809 172.808ZM428.867 173V174.568C428.195 173.496 427.059 172.808 425.635 172.808C423.379 172.808 421.507 174.632 421.507 177C421.507 179.368 423.379 181.192 425.635 181.192C427.059 181.192 428.195 180.504 428.867 179.432V181H429.923V173H428.867ZM425.715 180.168C423.939 180.168 422.563 178.776 422.563 177C422.563 175.224 423.939 173.832 425.715 173.832C427.491 173.832 428.867 175.224 428.867 177C428.867 178.776 427.491 180.168 425.715 180.168ZM436.447 172.808C435.023 172.808 433.887 173.496 433.215 174.568V169.8H432.159V181H433.215V179.432C433.887 180.504 435.023 181.192 436.447 181.192C438.703 181.192 440.575 179.368 440.575 177C440.575 174.632 438.703 172.808 436.447 172.808ZM436.367 180.168C434.591 180.168 433.215 178.776 433.215 177C433.215 175.224 434.591 173.832 436.367 173.832C438.143 173.832 439.519 175.224 439.519 177C439.519 178.776 438.143 180.168 436.367 180.168ZM442.331 181H443.387V169.32H442.331V181ZM449.324 172.808C446.844 172.808 445.148 174.648 445.148 177C445.148 179.416 446.876 181.192 449.404 181.192C451.02 181.192 452.252 180.44 452.924 179.352L451.996 178.808C451.564 179.576 450.684 180.168 449.42 180.168C447.724 180.168 446.46 179.16 446.236 177.528H453.26C453.276 177.368 453.292 177.192 453.292 177.032C453.292 174.84 451.772 172.808 449.324 172.808ZM449.324 173.832C450.7 173.832 451.98 174.744 452.204 176.504H446.236C446.444 174.936 447.644 173.832 449.324 173.832ZM459.804 175.096C459.804 174.232 460.652 173.832 461.484 173.832C462.252 173.832 463.068 174.136 463.404 174.952L464.284 174.44C463.82 173.448 462.796 172.808 461.484 172.808C459.884 172.808 458.748 173.816 458.748 175.096C458.748 178.04 463.42 176.904 463.42 178.888C463.42 179.832 462.524 180.168 461.58 180.168C460.508 180.168 459.676 179.64 459.388 178.824L458.492 179.352C458.892 180.376 459.98 181.192 461.58 181.192C463.292 181.192 464.476 180.248 464.476 178.888C464.476 175.944 459.804 177.08 459.804 175.096ZM469.731 181.192C472.067 181.192 473.939 179.368 473.939 177C473.939 174.632 472.067 172.808 469.731 172.808C467.395 172.808 465.523 174.632 465.523 177C465.523 179.368 467.395 181.192 469.731 181.192ZM469.731 180.168C467.955 180.168 466.579 178.776 466.579 177C466.579 175.224 467.955 173.832 469.731 173.832C471.507 173.832 472.883 175.224 472.883 177C472.883 178.776 471.507 180.168 469.731 180.168ZM475.706 181H476.762V169.32H475.706V181ZM484.635 173V177.192C484.635 179.336 483.451 180.168 482.043 180.168C480.651 180.168 479.867 179.336 479.867 177.912V173H478.811V177.912C478.811 179.912 479.995 181.192 481.947 181.192C483.083 181.192 484.011 180.76 484.635 179.752V181H485.691V173H484.635ZM492.165 174.024V173H489.861V170.76L488.805 171.08V173H487.125V174.024H488.805V178.872C488.805 180.792 490.005 181.32 492.165 181V180.072C490.613 180.136 489.861 180.248 489.861 178.872V174.024H492.165ZM494.453 171.304C494.885 171.304 495.221 170.952 495.221 170.536C495.221 170.12 494.885 169.768 494.453 169.768C494.021 169.768 493.685 170.12 493.685 170.536C493.685 170.952 494.021 171.304 494.453 171.304ZM493.925 181H494.981V173H493.925V181ZM500.95 181.192C503.286 181.192 505.158 179.368 505.158 177C505.158 174.632 503.286 172.808 500.95 172.808C498.614 172.808 496.742 174.632 496.742 177C496.742 179.368 498.614 181.192 500.95 181.192ZM500.95 180.168C499.174 180.168 497.798 178.776 497.798 177C497.798 175.224 499.174 173.832 500.95 173.832C502.726 173.832 504.102 175.224 504.102 177C504.102 178.776 502.726 180.168 500.95 180.168ZM510.669 172.808C509.533 172.808 508.605 173.24 507.981 174.248V173H506.925V181H507.981V176.808C507.981 174.664 509.165 173.832 510.573 173.832C511.965 173.832 512.749 174.664 512.749 176.088V181H513.805V176.088C513.805 174.088 512.621 172.808 510.669 172.808ZM516.679 175.096C516.679 174.232 517.527 173.832 518.359 173.832C519.127 173.832 519.943 174.136 520.279 174.952L521.159 174.44C520.695 173.448 519.671 172.808 518.359 172.808C516.759 172.808 515.623 173.816 515.623 175.096C515.623 178.04 520.295 176.904 520.295 178.888C520.295 179.832 519.399 180.168 518.455 180.168C517.383 180.168 516.551 179.64 516.263 178.824L515.367 179.352C515.767 180.376 516.855 181.192 518.455 181.192C520.167 181.192 521.351 180.248 521.351 178.888C521.351 175.944 516.679 177.08 516.679 175.096ZM374.962 196.024V195H372.658V192.76L371.602 193.08V195H369.922V196.024H371.602V200.872C371.602 202.792 372.802 203.32 374.962 203V202.072C373.41 202.136 372.658 202.248 372.658 200.872V196.024H374.962ZM380.466 194.808C379.33 194.808 378.402 195.24 377.778 196.248V191.8H376.722V203H377.778V198.808C377.778 196.664 378.962 195.832 380.37 195.832C381.762 195.832 382.546 196.664 382.546 198.088V203H383.602V198.088C383.602 196.088 382.418 194.808 380.466 194.808ZM392.523 195V196.568C391.851 195.496 390.715 194.808 389.291 194.808C387.035 194.808 385.163 196.632 385.163 199C385.163 201.368 387.035 203.192 389.291 203.192C390.715 203.192 391.851 202.504 392.523 201.432V203H393.579V195H392.523ZM389.371 202.168C387.595 202.168 386.219 200.776 386.219 199C386.219 197.224 387.595 195.832 389.371 195.832C391.147 195.832 392.523 197.224 392.523 199C392.523 200.776 391.147 202.168 389.371 202.168ZM400.055 196.024V195H397.751V192.76L396.695 193.08V195H395.015V196.024H396.695V200.872C396.695 202.792 397.895 203.32 400.055 203V202.072C398.503 202.136 397.751 202.248 397.751 200.872V196.024H400.055ZM410.103 194.808C408.679 194.808 407.543 195.496 406.871 196.568V195H405.815V206.2H406.871V201.432C407.543 202.504 408.679 203.192 410.103 203.192C412.359 203.192 414.231 201.368 414.231 199C414.231 196.632 412.359 194.808 410.103 194.808ZM410.023 202.168C408.247 202.168 406.871 200.776 406.871 199C406.871 197.224 408.247 195.832 410.023 195.832C411.799 195.832 413.175 197.224 413.175 199C413.175 200.776 411.799 202.168 410.023 202.168ZM421.619 195V199.192C421.619 201.336 420.435 202.168 419.027 202.168C417.635 202.168 416.851 201.336 416.851 199.912V195H415.795V199.912C415.795 201.912 416.979 203.192 418.931 203.192C420.067 203.192 420.995 202.76 421.619 201.752V203H422.675V195H421.619ZM425.741 197.096C425.741 196.232 426.589 195.832 427.421 195.832C428.189 195.832 429.005 196.136 429.341 196.952L430.221 196.44C429.757 195.448 428.733 194.808 427.421 194.808C425.821 194.808 424.685 195.816 424.685 197.096C424.685 200.04 429.357 198.904 429.357 200.888C429.357 201.832 428.461 202.168 427.517 202.168C426.445 202.168 425.613 201.64 425.325 200.824L424.429 201.352C424.829 202.376 425.917 203.192 427.517 203.192C429.229 203.192 430.413 202.248 430.413 200.888C430.413 197.944 425.741 199.08 425.741 197.096ZM435.841 194.808C434.705 194.808 433.777 195.24 433.153 196.248V191.8H432.097V203H433.153V198.808C433.153 196.664 434.337 195.832 435.745 195.832C437.137 195.832 437.921 196.664 437.921 198.088V203H438.977V198.088C438.977 196.088 437.793 194.808 435.841 194.808ZM449.306 194.808C447.882 194.808 446.746 195.496 446.074 196.568V191.8H445.018V203H446.074V201.432C446.746 202.504 447.882 203.192 449.306 203.192C451.562 203.192 453.434 201.368 453.434 199C453.434 196.632 451.562 194.808 449.306 194.808ZM449.226 202.168C447.45 202.168 446.074 200.776 446.074 199C446.074 197.224 447.45 195.832 449.226 195.832C451.002 195.832 452.378 197.224 452.378 199C452.378 200.776 451.002 202.168 449.226 202.168ZM458.918 203.192C461.254 203.192 463.126 201.368 463.126 199C463.126 196.632 461.254 194.808 458.918 194.808C456.582 194.808 454.71 196.632 454.71 199C454.71 201.368 456.582 203.192 458.918 203.192ZM458.918 202.168C457.142 202.168 455.766 200.776 455.766 199C455.766 197.224 457.142 195.832 458.918 195.832C460.694 195.832 462.07 197.224 462.07 199C462.07 200.776 460.694 202.168 458.918 202.168ZM470.525 195V199.192C470.525 201.336 469.341 202.168 467.933 202.168C466.541 202.168 465.757 201.336 465.757 199.912V195H464.701V199.912C464.701 201.912 465.885 203.192 467.837 203.192C468.973 203.192 469.901 202.76 470.525 201.752V203H471.581V195H470.525ZM477.559 194.808C476.423 194.808 475.495 195.24 474.871 196.248V195H473.815V203H474.871V198.808C474.871 196.664 476.055 195.832 477.463 195.832C478.855 195.832 479.639 196.664 479.639 198.088V203H480.695V198.088C480.695 196.088 479.511 194.808 477.559 194.808ZM489.617 191.8V196.568C488.945 195.496 487.809 194.808 486.385 194.808C484.129 194.808 482.257 196.632 482.257 199C482.257 201.368 484.129 203.192 486.385 203.192C487.809 203.192 488.945 202.504 489.617 201.432V203H490.673V191.8H489.617ZM486.465 202.168C484.689 202.168 483.313 200.776 483.313 199C483.313 197.224 484.689 195.832 486.465 195.832C488.241 195.832 489.617 197.224 489.617 199C489.617 200.776 488.241 202.168 486.465 202.168ZM499.789 195V196.568C499.117 195.496 497.981 194.808 496.557 194.808C494.301 194.808 492.429 196.632 492.429 199C492.429 201.368 494.301 203.192 496.557 203.192C497.981 203.192 499.117 202.504 499.789 201.432V203H500.845V195H499.789ZM496.637 202.168C494.861 202.168 493.485 200.776 493.485 199C493.485 197.224 494.861 195.832 496.637 195.832C498.413 195.832 499.789 197.224 499.789 199C499.789 200.776 498.413 202.168 496.637 202.168ZM504.137 196.328V195H503.081V203H504.137V198.552C504.137 196.568 505.385 195.896 506.665 195.896V194.872C505.641 194.872 504.697 195.208 504.137 196.328ZM508.64 193.304C509.072 193.304 509.408 192.952 509.408 192.536C509.408 192.12 509.072 191.768 508.64 191.768C508.208 191.768 507.872 192.12 507.872 192.536C507.872 192.952 508.208 193.304 508.64 193.304ZM508.112 203H509.168V195H508.112V203ZM515.105 194.808C512.625 194.808 510.929 196.648 510.929 199C510.929 201.416 512.657 203.192 515.185 203.192C516.801 203.192 518.033 202.44 518.705 201.352L517.777 200.808C517.345 201.576 516.465 202.168 515.201 202.168C513.505 202.168 512.241 201.16 512.017 199.528H519.041C519.057 199.368 519.073 199.192 519.073 199.032C519.073 196.84 517.553 194.808 515.105 194.808ZM515.105 195.832C516.481 195.832 517.761 196.744 517.985 198.504H512.017C512.225 196.936 513.425 195.832 515.105 195.832ZM521.272 197.096C521.272 196.232 522.12 195.832 522.952 195.832C523.72 195.832 524.536 196.136 524.872 196.952L525.752 196.44C525.288 195.448 524.264 194.808 522.952 194.808C521.352 194.808 520.216 195.816 520.216 197.096C520.216 200.04 524.888 198.904 524.888 200.888C524.888 201.832 523.992 202.168 523.048 202.168C521.976 202.168 521.144 201.64 520.856 200.824L519.96 201.352C520.36 202.376 521.448 203.192 523.048 203.192C524.76 203.192 525.944 202.248 525.944 200.888C525.944 197.944 521.272 199.08 521.272 197.096Z" fill="#516689"/>
<rect x="630" width="268.907" height="270" rx="6" fill="white"/>
<path d="M764.642 59.0418L769.086 53.1574V50.09H755.627V53.4704H764.798L760.072 59.6991L761.512 61.8588H762.326C764.798 61.8588 766.395 63.1734 766.395 65.3644C766.395 67.5554 764.798 68.9013 762.326 68.9013C760.135 68.9013 758.663 67.931 758.037 66.0843L754.97 67.8684C756.191 70.9358 759.102 72.4069 762.326 72.4069C766.363 72.4069 769.994 69.9655 769.994 65.3644C769.994 61.9527 767.646 59.7617 764.642 59.0418Z" fill="#6361B5"/>
<path d="M705.477 134.26C708.057 134.26 710.337 132.94 711.497 130.9L709.497 129.76C708.777 131.14 707.237 132.02 705.477 132.02C702.457 132.02 700.457 129.88 700.457 127C700.457 124.12 702.457 121.98 705.477 121.98C707.237 121.98 708.757 122.86 709.497 124.24L711.497 123.08C710.317 121.04 708.037 119.74 705.477 119.74C701.217 119.74 698.157 122.94 698.157 127C698.157 131.06 701.217 134.26 705.477 134.26ZM715.525 125.68V124H713.365V134H715.525V128.96C715.525 126.72 717.185 126.06 718.605 126.16V123.82C717.345 123.82 716.125 124.32 715.525 125.68ZM721.433 129.92H729.393C729.433 129.64 729.473 129.32 729.473 129.02C729.473 126.14 727.433 123.74 724.453 123.74C721.313 123.74 719.173 126.04 719.173 129C719.173 132 721.313 134.26 724.613 134.26C726.573 134.26 728.073 133.44 728.993 132.08L727.213 131.04C726.733 131.74 725.833 132.28 724.633 132.28C723.033 132.28 721.773 131.48 721.433 129.92ZM721.413 128.16C721.713 126.66 722.813 125.7 724.433 125.7C725.733 125.7 726.993 126.44 727.293 128.16H721.413ZM739.235 124V125.42C738.475 124.38 737.295 123.74 735.735 123.74C733.015 123.74 730.755 126.02 730.755 129C730.755 131.96 733.015 134.26 735.735 134.26C737.295 134.26 738.475 133.62 739.235 132.56V134H741.395V124H739.235ZM736.075 132.2C734.275 132.2 732.915 130.86 732.915 129C732.915 127.14 734.275 125.8 736.075 125.8C737.875 125.8 739.235 127.14 739.235 129C739.235 130.86 737.875 132.2 736.075 132.2ZM749.492 126.08V124H747.012V121.2L744.852 121.84V124H743.012V126.08H744.852V130.88C744.852 133.48 746.172 134.4 749.492 134V132.06C747.852 132.14 747.012 132.16 747.012 130.88V126.08H749.492ZM752.741 129.92H760.701C760.741 129.64 760.781 129.32 760.781 129.02C760.781 126.14 758.741 123.74 755.761 123.74C752.621 123.74 750.481 126.04 750.481 129C750.481 132 752.621 134.26 755.921 134.26C757.881 134.26 759.381 133.44 760.301 132.08L758.521 131.04C758.041 131.74 757.141 132.28 755.941 132.28C754.341 132.28 753.081 131.48 752.741 129.92ZM752.721 128.16C753.021 126.66 754.121 125.7 755.741 125.7C757.041 125.7 758.301 126.44 758.601 128.16H752.721ZM779.322 133.3L777.502 131.32C778.062 130.42 778.442 129.38 778.662 128.36L776.702 127.24C776.562 128.18 776.322 129 775.982 129.68L772.582 126C771.922 125.28 771.382 124.66 771.382 123.76C771.382 122.68 772.262 121.98 773.362 121.98C774.462 121.98 775.322 122.66 775.702 123.78L777.662 122.66C776.902 120.76 775.222 119.74 773.342 119.74C770.982 119.74 769.082 121.3 769.082 123.7C769.082 124.72 769.402 125.48 769.882 126.14C768.262 127.02 767.422 128.52 767.422 130.16C767.422 132.72 769.422 134.26 772.222 134.26C773.842 134.26 775.122 133.74 776.122 132.94L777.462 134.38L779.322 133.3ZM772.342 132.12C770.662 132.12 769.742 131.26 769.742 129.98C769.742 129.14 770.142 128.22 771.222 127.68L774.662 131.38C774.022 131.86 773.262 132.12 772.342 132.12ZM794.421 126.74C795.301 126.1 795.841 125.1 795.841 123.88C795.841 121.64 794.001 120 791.741 120H786.181V134H792.181C794.501 134 796.381 132.32 796.381 130C796.381 128.5 795.601 127.36 794.421 126.74ZM791.741 122.16C792.761 122.16 793.541 122.96 793.541 124C793.541 125.04 792.761 125.84 791.741 125.84H788.481V122.16H791.741ZM792.181 131.84H788.481V127.92H792.181C793.261 127.92 794.081 128.78 794.081 129.88C794.081 130.98 793.261 131.84 792.181 131.84ZM805.184 124V129.36C805.184 131.4 804.064 132.24 802.644 132.24C801.284 132.24 800.404 131.44 800.404 129.92V124H798.244V130.14C798.244 132.74 799.844 134.26 802.084 134.26C803.444 134.26 804.524 133.76 805.184 132.72V134H807.344V124H805.184ZM810.949 122.5C811.709 122.5 812.329 121.86 812.329 121.12C812.329 120.36 811.709 119.74 810.949 119.74C810.189 119.74 809.569 120.36 809.569 121.12C809.569 121.86 810.189 122.5 810.949 122.5ZM809.869 134H812.029V124H809.869V134ZM814.537 134H816.697V119.4H814.537V134ZM827.125 120V125.42C826.365 124.38 825.185 123.74 823.625 123.74C820.905 123.74 818.645 126.02 818.645 129C818.645 131.96 820.905 134.26 823.625 134.26C825.185 134.26 826.365 133.62 827.125 132.56V134H829.285V120H827.125ZM823.965 132.2C822.165 132.2 820.805 130.86 820.805 129C820.805 127.14 822.165 125.8 823.965 125.8C825.765 125.8 827.125 127.14 827.125 129C827.125 130.86 825.765 132.2 823.965 132.2Z" fill="#1E3356"/>
<path d="M679.639 181.192C682.087 181.192 683.799 179.64 683.799 177.192V169.8H682.679V177.192C682.679 178.968 681.575 180.104 679.639 180.104C677.703 180.104 676.599 178.968 676.599 177.192V169.8H675.479V177.192C675.479 179.64 677.191 181.192 679.639 181.192ZM689.786 172.808C688.65 172.808 687.722 173.24 687.098 174.248V173H686.042V181H687.098V176.808C687.098 174.664 688.282 173.832 689.69 173.832C691.082 173.832 691.866 174.664 691.866 176.088V181H692.922V176.088C692.922 174.088 691.738 172.808 689.786 172.808ZM695.492 171.304C695.924 171.304 696.26 170.952 696.26 170.536C696.26 170.12 695.924 169.768 695.492 169.768C695.06 169.768 694.724 170.12 694.724 170.536C694.724 170.952 695.06 171.304 695.492 171.304ZM694.964 181H696.02V173H694.964V181ZM705.141 173V174.568C704.469 173.496 703.333 172.808 701.909 172.808C699.653 172.808 697.781 174.632 697.781 177C697.781 179.368 699.653 181.192 701.909 181.192C703.333 181.192 704.469 180.504 705.141 179.432V184.2H706.197V173H705.141ZM701.989 180.168C700.213 180.168 698.837 178.776 698.837 177C698.837 175.224 700.213 173.832 701.989 173.832C703.765 173.832 705.141 175.224 705.141 177C705.141 178.776 703.765 180.168 701.989 180.168ZM714.065 173V177.192C714.065 179.336 712.881 180.168 711.473 180.168C710.081 180.168 709.297 179.336 709.297 177.912V173H708.241V177.912C708.241 179.912 709.424 181.192 711.377 181.192C712.513 181.192 713.441 180.76 714.065 179.752V181H715.121V173H714.065ZM721.05 172.808C718.57 172.808 716.874 174.648 716.874 177C716.874 179.416 718.602 181.192 721.13 181.192C722.746 181.192 723.978 180.44 724.65 179.352L723.722 178.808C723.29 179.576 722.41 180.168 721.146 180.168C719.45 180.168 718.186 179.16 717.962 177.528H724.986C725.002 177.368 725.018 177.192 725.018 177.032C725.018 174.84 723.498 172.808 721.05 172.808ZM721.05 173.832C722.426 173.832 723.706 174.744 723.93 176.504H717.962C718.17 174.936 719.37 173.832 721.05 173.832ZM734.394 172.808C731.914 172.808 730.218 174.648 730.218 177C730.218 179.416 731.946 181.192 734.474 181.192C736.09 181.192 737.322 180.44 737.994 179.352L737.066 178.808C736.634 179.576 735.754 180.168 734.49 180.168C732.794 180.168 731.53 179.16 731.306 177.528H738.33C738.346 177.368 738.362 177.192 738.362 177.032C738.362 174.84 736.842 172.808 734.394 172.808ZM734.394 173.832C735.77 173.832 737.05 174.744 737.274 176.504H731.306C731.514 174.936 732.714 173.832 734.394 173.832ZM746.449 181L743.329 176.856L746.241 173H744.977L742.689 176.024L740.401 173H739.137L742.065 176.856L738.929 181H740.193L742.689 177.704L745.185 181H746.449ZM752.174 172.808C750.75 172.808 749.614 173.496 748.942 174.568V173H747.886V184.2H748.942V179.432C749.614 180.504 750.75 181.192 752.174 181.192C754.43 181.192 756.302 179.368 756.302 177C756.302 174.632 754.43 172.808 752.174 172.808ZM752.094 180.168C750.318 180.168 748.942 178.776 748.942 177C748.942 175.224 750.318 173.832 752.094 173.832C753.87 173.832 755.246 175.224 755.246 177C755.246 178.776 753.87 180.168 752.094 180.168ZM761.754 172.808C759.274 172.808 757.578 174.648 757.578 177C757.578 179.416 759.306 181.192 761.834 181.192C763.45 181.192 764.682 180.44 765.354 179.352L764.426 178.808C763.994 179.576 763.114 180.168 761.85 180.168C760.154 180.168 758.89 179.16 758.666 177.528H765.69C765.706 177.368 765.722 177.192 765.722 177.032C765.722 174.84 764.202 172.808 761.754 172.808ZM761.754 173.832C763.13 173.832 764.41 174.744 764.634 176.504H758.666C758.874 174.936 760.074 173.832 761.754 173.832ZM768.457 174.328V173H767.401V181H768.457V176.552C768.457 174.568 769.705 173.896 770.985 173.896V172.872C769.961 172.872 769.017 173.208 768.457 174.328ZM772.961 171.304C773.393 171.304 773.729 170.952 773.729 170.536C773.729 170.12 773.393 169.768 772.961 169.768C772.529 169.768 772.193 170.12 772.193 170.536C772.193 170.952 772.529 171.304 772.961 171.304ZM772.433 181H773.489V173H772.433V181ZM779.425 172.808C776.945 172.808 775.249 174.648 775.249 177C775.249 179.416 776.977 181.192 779.505 181.192C781.121 181.192 782.353 180.44 783.025 179.352L782.097 178.808C781.665 179.576 780.785 180.168 779.521 180.168C777.825 180.168 776.561 179.16 776.337 177.528H783.361C783.377 177.368 783.393 177.192 783.393 177.032C783.393 174.84 781.873 172.808 779.425 172.808ZM779.425 173.832C780.801 173.832 782.081 174.744 782.305 176.504H776.337C776.545 174.936 777.745 173.832 779.425 173.832ZM788.817 172.808C787.681 172.808 786.753 173.24 786.129 174.248V173H785.073V181H786.129V176.808C786.129 174.664 787.313 173.832 788.721 173.832C790.113 173.832 790.897 174.664 790.897 176.088V181H791.953V176.088C791.953 174.088 790.769 172.808 788.817 172.808ZM797.723 181.192C799.291 181.192 800.651 180.376 801.307 179.112L800.427 178.6C799.915 179.528 798.939 180.168 797.723 180.168C795.947 180.168 794.571 178.776 794.571 177C794.571 175.224 795.947 173.832 797.723 173.832C798.923 173.832 799.931 174.456 800.363 175.4L801.227 174.904C800.651 173.64 799.307 172.808 797.723 172.808C795.307 172.808 793.515 174.632 793.515 177C793.515 179.368 795.307 181.192 797.723 181.192ZM806.441 172.808C803.961 172.808 802.265 174.648 802.265 177C802.265 179.416 803.993 181.192 806.521 181.192C808.137 181.192 809.369 180.44 810.041 179.352L809.113 178.808C808.681 179.576 807.801 180.168 806.537 180.168C804.841 180.168 803.577 179.16 803.353 177.528H810.377C810.393 177.368 810.409 177.192 810.409 177.032C810.409 174.84 808.889 172.808 806.441 172.808ZM806.441 173.832C807.817 173.832 809.097 174.744 809.321 176.504H803.353C803.561 174.936 804.761 173.832 806.441 173.832ZM812.608 175.096C812.608 174.232 813.456 173.832 814.288 173.832C815.056 173.832 815.872 174.136 816.208 174.952L817.088 174.44C816.624 173.448 815.6 172.808 814.288 172.808C812.688 172.808 811.552 173.816 811.552 175.096C811.552 178.04 816.224 176.904 816.224 178.888C816.224 179.832 815.328 180.168 814.384 180.168C813.312 180.168 812.48 179.64 812.192 178.824L811.296 179.352C811.696 180.376 812.784 181.192 814.384 181.192C816.096 181.192 817.28 180.248 817.28 178.888C817.28 175.944 812.608 177.08 812.608 175.096ZM827.282 174.024V173H824.978V170.76L823.922 171.08V173H822.242V174.024H823.922V178.872C823.922 180.792 825.122 181.32 827.282 181V180.072C825.73 180.136 824.978 180.248 824.978 178.872V174.024H827.282ZM832.786 172.808C831.65 172.808 830.722 173.24 830.098 174.248V169.8H829.042V181H830.098V176.808C830.098 174.664 831.282 173.832 832.69 173.832C834.082 173.832 834.866 174.664 834.866 176.088V181H835.922V176.088C835.922 174.088 834.738 172.808 832.786 172.808ZM844.844 173V174.568C844.172 173.496 843.036 172.808 841.612 172.808C839.356 172.808 837.484 174.632 837.484 177C837.484 179.368 839.356 181.192 841.612 181.192C843.036 181.192 844.172 180.504 844.844 179.432V181H845.9V173H844.844ZM841.692 180.168C839.916 180.168 838.54 178.776 838.54 177C838.54 175.224 839.916 173.832 841.692 173.832C843.468 173.832 844.844 175.224 844.844 177C844.844 178.776 843.468 180.168 841.692 180.168ZM852.376 174.024V173H850.072V170.76L849.016 171.08V173H847.336V174.024H849.016V178.872C849.016 180.792 850.216 181.32 852.376 181V180.072C850.824 180.136 850.072 180.248 850.072 178.872V174.024H852.376ZM676.359 191.8V196.568C675.687 195.496 674.551 194.808 673.127 194.808C670.871 194.808 668.999 196.632 668.999 199C668.999 201.368 670.871 203.192 673.127 203.192C674.551 203.192 675.687 202.504 676.359 201.432V203H677.415V191.8H676.359ZM673.207 202.168C671.431 202.168 670.055 200.776 670.055 199C670.055 197.224 671.431 195.832 673.207 195.832C674.983 195.832 676.359 197.224 676.359 199C676.359 200.776 674.983 202.168 673.207 202.168ZM683.347 194.808C680.867 194.808 679.171 196.648 679.171 199C679.171 201.416 680.899 203.192 683.427 203.192C685.043 203.192 686.275 202.44 686.947 201.352L686.019 200.808C685.587 201.576 684.707 202.168 683.443 202.168C681.747 202.168 680.483 201.16 680.259 199.528H687.283C687.299 199.368 687.315 199.192 687.315 199.032C687.315 196.84 685.795 194.808 683.347 194.808ZM683.347 195.832C684.723 195.832 686.003 196.744 686.227 198.504H680.259C680.467 196.936 681.667 195.832 683.347 195.832ZM688.995 203H690.051V191.32H688.995V203ZM692.82 193.304C693.252 193.304 693.588 192.952 693.588 192.536C693.588 192.12 693.252 191.768 692.82 191.768C692.388 191.768 692.052 192.12 692.052 192.536C692.052 192.952 692.388 193.304 692.82 193.304ZM692.292 203H693.348V195H692.292V203ZM702.469 195V196.568C701.797 195.496 700.661 194.808 699.237 194.808C696.981 194.808 695.109 196.632 695.109 199C695.109 201.368 696.981 203.192 699.237 203.192C700.661 203.192 701.797 202.504 702.469 201.432V202.68C702.469 204.312 701.365 205.368 699.509 205.368C697.781 205.368 697.045 204.728 696.645 203.912L695.717 204.44C696.341 205.688 697.669 206.392 699.509 206.392C701.573 206.392 703.525 205.112 703.525 202.68V195H702.469ZM699.317 202.168C697.541 202.168 696.165 200.776 696.165 199C696.165 197.224 697.541 195.832 699.317 195.832C701.093 195.832 702.469 197.224 702.469 199C702.469 200.776 701.093 202.168 699.317 202.168ZM709.505 194.808C708.369 194.808 707.441 195.24 706.817 196.248V191.8H705.761V203H706.817V198.808C706.817 196.664 708.001 195.832 709.409 195.832C710.801 195.832 711.585 196.664 711.585 198.088V203H712.641V198.088C712.641 196.088 711.457 194.808 709.505 194.808ZM718.923 196.024V195H716.619V192.76L715.562 193.08V195H713.883V196.024H715.562V200.872C715.562 202.792 716.763 203.32 718.923 203V202.072C717.371 202.136 716.619 202.248 716.619 200.872V196.024H718.923ZM731.562 195V196.568C730.891 195.496 729.755 194.808 728.331 194.808C726.075 194.808 724.203 196.632 724.203 199C724.203 201.368 726.075 203.192 728.331 203.192C729.755 203.192 730.891 202.504 731.562 201.432V203H732.619V195H731.562ZM728.411 202.168C726.635 202.168 725.259 200.776 725.259 199C725.259 197.224 726.635 195.832 728.411 195.832C730.187 195.832 731.562 197.224 731.562 199C731.562 200.776 730.187 202.168 728.411 202.168ZM738.598 194.808C737.462 194.808 736.534 195.24 735.91 196.248V195H734.854V203H735.91V198.808C735.91 196.664 737.094 195.832 738.502 195.832C739.894 195.832 740.678 196.664 740.678 198.088V203H741.734V198.088C741.734 196.088 740.55 194.808 738.598 194.808ZM750.656 191.8V196.568C749.984 195.496 748.848 194.808 747.424 194.808C745.168 194.808 743.296 196.632 743.296 199C743.296 201.368 745.168 203.192 747.424 203.192C748.848 203.192 749.984 202.504 750.656 201.432V203H751.712V191.8H750.656ZM747.504 202.168C745.728 202.168 744.352 200.776 744.352 199C744.352 197.224 745.728 195.832 747.504 195.832C749.28 195.832 750.656 197.224 750.656 199C750.656 200.776 749.28 202.168 747.504 202.168ZM758.476 193.304C758.908 193.304 759.244 192.952 759.244 192.536C759.244 192.12 758.908 191.768 758.476 191.768C758.044 191.768 757.708 192.12 757.708 192.536C757.708 192.952 758.044 193.304 758.476 193.304ZM757.948 203H759.004V195H757.948V203ZM764.989 194.808C763.853 194.808 762.925 195.24 762.301 196.248V195H761.245V203H762.301V198.808C762.301 196.664 763.485 195.832 764.893 195.832C766.285 195.832 767.069 196.664 767.069 198.088V203H768.125V198.088C768.125 196.088 766.941 194.808 764.989 194.808ZM770.999 197.096C770.999 196.232 771.847 195.832 772.679 195.832C773.447 195.832 774.263 196.136 774.599 196.952L775.479 196.44C775.015 195.448 773.991 194.808 772.679 194.808C771.079 194.808 769.943 195.816 769.943 197.096C769.943 200.04 774.615 198.904 774.615 200.888C774.615 201.832 773.719 202.168 772.775 202.168C771.703 202.168 770.871 201.64 770.583 200.824L769.687 201.352C770.087 202.376 771.175 203.192 772.775 203.192C774.487 203.192 775.671 202.248 775.671 200.888C775.671 197.944 770.999 199.08 770.999 197.096ZM781.721 194.808C780.297 194.808 779.161 195.496 778.489 196.568V195H777.433V206.2H778.489V201.432C779.161 202.504 780.297 203.192 781.721 203.192C783.977 203.192 785.849 201.368 785.849 199C785.849 196.632 783.977 194.808 781.721 194.808ZM781.641 202.168C779.865 202.168 778.489 200.776 778.489 199C778.489 197.224 779.865 195.832 781.641 195.832C783.417 195.832 784.793 197.224 784.793 199C784.793 200.776 783.417 202.168 781.641 202.168ZM788.132 193.304C788.564 193.304 788.9 192.952 788.9 192.536C788.9 192.12 788.564 191.768 788.132 191.768C787.7 191.768 787.364 192.12 787.364 192.536C787.364 192.952 787.7 193.304 788.132 193.304ZM787.604 203H788.66V195H787.604V203ZM791.957 196.328V195H790.901V203H791.957V198.552C791.957 196.568 793.205 195.896 794.485 195.896V194.872C793.461 194.872 792.517 195.208 791.957 196.328ZM799.144 194.808C796.664 194.808 794.968 196.648 794.968 199C794.968 201.416 796.696 203.192 799.224 203.192C800.84 203.192 802.072 202.44 802.744 201.352L801.816 200.808C801.384 201.576 800.504 202.168 799.24 202.168C797.544 202.168 796.28 201.16 796.056 199.528H803.08C803.096 199.368 803.112 199.192 803.112 199.032C803.112 196.84 801.592 194.808 799.144 194.808ZM799.144 195.832C800.52 195.832 801.8 196.744 802.024 198.504H796.056C796.264 196.936 797.464 195.832 799.144 195.832ZM815.672 195V196.568C815 195.496 813.864 194.808 812.44 194.808C810.184 194.808 808.312 196.632 808.312 199C808.312 201.368 810.184 203.192 812.44 203.192C813.864 203.192 815 202.504 815.672 201.432V202.68C815.672 204.312 814.568 205.368 812.712 205.368C810.984 205.368 810.248 204.728 809.848 203.912L808.92 204.44C809.544 205.688 810.872 206.392 812.712 206.392C814.776 206.392 816.728 205.112 816.728 202.68V195H815.672ZM812.52 202.168C810.744 202.168 809.368 200.776 809.368 199C809.368 197.224 810.744 195.832 812.52 195.832C814.296 195.832 815.672 197.224 815.672 199C815.672 200.776 814.296 202.168 812.52 202.168ZM820.02 196.328V195H818.964V203H820.02V198.552C820.02 196.568 821.268 195.896 822.548 195.896V194.872C821.524 194.872 820.58 195.208 820.02 196.328ZM827.239 203.192C829.575 203.192 831.447 201.368 831.447 199C831.447 196.632 829.575 194.808 827.239 194.808C824.903 194.808 823.031 196.632 823.031 199C823.031 201.368 824.903 203.192 827.239 203.192ZM827.239 202.168C825.463 202.168 824.087 200.776 824.087 199C824.087 197.224 825.463 195.832 827.239 195.832C829.015 195.832 830.391 197.224 830.391 199C830.391 200.776 829.015 202.168 827.239 202.168ZM842.533 195L840.565 201.64L838.469 195H837.413L835.317 201.64L833.349 195H832.261L834.725 203H835.877L837.941 196.552L840.005 203H841.157L843.621 195H842.533ZM849.454 196.024V195H847.15V192.76L846.094 193.08V195H844.414V196.024H846.094V200.872C846.094 202.792 847.294 203.32 849.454 203V202.072C847.902 202.136 847.15 202.248 847.15 200.872V196.024H849.454ZM854.958 194.808C853.822 194.808 852.894 195.24 852.27 196.248V191.8H851.214V203H852.27V198.808C852.27 196.664 853.454 195.832 854.862 195.832C856.254 195.832 857.038 196.664 857.038 198.088V203H858.094V198.088C858.094 196.088 856.91 194.808 854.958 194.808Z" fill="#516689"/>
<g opacity="0.3">
<path d="M618 134.982H594" stroke="#7D8CA6" stroke-width="3"/>
<path d="M608.348 147L618.999 134.827L608.651 123" stroke="#7D8CA6" stroke-width="3"/>
</g>
<g opacity="0.3">
<path d="M303 134.982H279" stroke="#7D8CA6" stroke-width="3"/>
<path d="M293.348 147L303.999 134.827L293.651 123" stroke="#7D8CA6" stroke-width="3"/>
</g>
<g opacity="0.3">
<path d="M933 134.982H909" stroke="#7D8CA6" stroke-width="3"/>
<path d="M923.348 147L933.999 134.827L923.651 123" stroke="#7D8CA6" stroke-width="3"/>
</g>
<rect x="945" width="269.004" height="270" rx="6" fill="white"/>
<path d="M1086.9 65.7071H1084.4V60.0105H1080.77V65.7071H1073.91L1081.46 51.09H1077.54L1070 65.7071V69.0562H1080.77V73H1084.4V69.0562H1086.9V65.7071Z" fill="#72D798"/>
<path d="M993.876 132.8V129.02H999.476V126.84H993.876V123.2H999.976V121H991.576V135H1000.08V132.8H993.876ZM1010.98 135L1007.24 129.88L1010.8 125H1008.28L1005.98 128.16L1003.68 125H1001.18L1004.74 129.86L1000.98 135H1003.5L1006 131.58L1008.48 135H1010.98ZM1018.09 124.74C1016.53 124.74 1015.35 125.38 1014.59 126.44V125H1012.43V139H1014.59V133.58C1015.35 134.62 1016.53 135.26 1018.09 135.26C1020.81 135.26 1023.07 132.98 1023.07 130C1023.07 127.04 1020.81 124.74 1018.09 124.74ZM1017.75 133.2C1015.95 133.2 1014.59 131.86 1014.59 130C1014.59 128.14 1015.95 126.8 1017.75 126.8C1019.55 126.8 1020.91 128.14 1020.91 130C1020.91 131.86 1019.55 133.2 1017.75 133.2ZM1026.73 130.92H1034.69C1034.73 130.64 1034.77 130.32 1034.77 130.02C1034.77 127.14 1032.73 124.74 1029.75 124.74C1026.61 124.74 1024.47 127.04 1024.47 130C1024.47 133 1026.61 135.26 1029.91 135.26C1031.87 135.26 1033.37 134.44 1034.29 133.08L1032.51 132.04C1032.03 132.74 1031.13 133.28 1029.93 133.28C1028.33 133.28 1027.07 132.48 1026.73 130.92ZM1026.71 129.16C1027.01 127.66 1028.11 126.7 1029.73 126.7C1031.03 126.7 1032.29 127.44 1032.59 129.16H1026.71ZM1038.83 126.68V125H1036.67V135H1038.83V129.96C1038.83 127.72 1040.49 127.06 1041.91 127.16V124.82C1040.65 124.82 1039.43 125.32 1038.83 126.68ZM1044.59 123.5C1045.35 123.5 1045.97 122.86 1045.97 122.12C1045.97 121.36 1045.35 120.74 1044.59 120.74C1043.83 120.74 1043.21 121.36 1043.21 122.12C1043.21 122.86 1043.83 123.5 1044.59 123.5ZM1043.51 135H1045.67V125H1043.51V135ZM1059.09 124.74C1057.75 124.74 1056.69 125.28 1056.03 126.32C1055.45 125.32 1054.49 124.74 1053.19 124.74C1051.95 124.74 1050.97 125.22 1050.33 126.2V125H1048.17V135H1050.33V129.4C1050.33 127.58 1051.33 126.76 1052.55 126.76C1053.73 126.76 1054.43 127.54 1054.43 128.94V135H1056.59V129.4C1056.59 127.58 1057.49 126.76 1058.77 126.76C1059.95 126.76 1060.71 127.54 1060.71 128.94V135H1062.87V128.8C1062.87 126.3 1061.35 124.74 1059.09 124.74ZM1066.89 130.92H1074.85C1074.89 130.64 1074.93 130.32 1074.93 130.02C1074.93 127.14 1072.89 124.74 1069.91 124.74C1066.77 124.74 1064.63 127.04 1064.63 130C1064.63 133 1066.77 135.26 1070.07 135.26C1072.03 135.26 1073.53 134.44 1074.45 133.08L1072.67 132.04C1072.19 132.74 1071.29 133.28 1070.09 133.28C1068.49 133.28 1067.23 132.48 1066.89 130.92ZM1066.87 129.16C1067.17 127.66 1068.27 126.7 1069.89 126.7C1071.19 126.7 1072.45 127.44 1072.75 129.16H1066.87ZM1082.09 124.74C1080.73 124.74 1079.65 125.24 1078.99 126.28V125H1076.83V135H1078.99V129.64C1078.99 127.6 1080.11 126.76 1081.53 126.76C1082.89 126.76 1083.77 127.56 1083.77 129.08V135H1085.93V128.86C1085.93 126.26 1084.33 124.74 1082.09 124.74ZM1093.83 127.08V125H1091.35V122.2L1089.19 122.84V125H1087.35V127.08H1089.19V131.88C1089.19 134.48 1090.51 135.4 1093.83 135V133.06C1092.19 133.14 1091.35 133.16 1091.35 131.88V127.08H1093.83ZM1112.53 134.3L1110.71 132.32C1111.27 131.42 1111.65 130.38 1111.87 129.36L1109.91 128.24C1109.77 129.18 1109.53 130 1109.19 130.68L1105.79 127C1105.13 126.28 1104.59 125.66 1104.59 124.76C1104.59 123.68 1105.47 122.98 1106.57 122.98C1107.67 122.98 1108.53 123.66 1108.91 124.78L1110.87 123.66C1110.11 121.76 1108.43 120.74 1106.55 120.74C1104.19 120.74 1102.29 122.3 1102.29 124.7C1102.29 125.72 1102.61 126.48 1103.09 127.14C1101.47 128.02 1100.63 129.52 1100.63 131.16C1100.63 133.72 1102.63 135.26 1105.43 135.26C1107.05 135.26 1108.33 134.74 1109.33 133.94L1110.67 135.38L1112.53 134.3ZM1105.55 133.12C1103.87 133.12 1102.95 132.26 1102.95 130.98C1102.95 130.14 1103.35 129.22 1104.43 128.68L1107.87 132.38C1107.23 132.86 1106.47 133.12 1105.55 133.12ZM1121.69 132.8V121H1119.39V135H1127.39V132.8H1121.69ZM1130.34 130.92H1138.3C1138.34 130.64 1138.38 130.32 1138.38 130.02C1138.38 127.14 1136.34 124.74 1133.36 124.74C1130.22 124.74 1128.08 127.04 1128.08 130C1128.08 133 1130.22 135.26 1133.52 135.26C1135.48 135.26 1136.98 134.44 1137.9 133.08L1136.12 132.04C1135.64 132.74 1134.74 133.28 1133.54 133.28C1131.94 133.28 1130.68 132.48 1130.34 130.92ZM1130.32 129.16C1130.62 127.66 1131.72 126.7 1133.34 126.7C1134.64 126.7 1135.9 127.44 1136.2 129.16H1130.32ZM1148.14 125V126.42C1147.38 125.38 1146.2 124.74 1144.64 124.74C1141.92 124.74 1139.66 127.02 1139.66 130C1139.66 132.96 1141.92 135.26 1144.64 135.26C1146.2 135.26 1147.38 134.62 1148.14 133.56V135H1150.3V125H1148.14ZM1144.98 133.2C1143.18 133.2 1141.82 131.86 1141.82 130C1141.82 128.14 1143.18 126.8 1144.98 126.8C1146.78 126.8 1148.14 128.14 1148.14 130C1148.14 131.86 1146.78 133.2 1144.98 133.2ZM1154.98 126.68V125H1152.82V135H1154.98V129.96C1154.98 127.72 1156.64 127.06 1158.06 127.16V124.82C1156.8 124.82 1155.58 125.32 1154.98 126.68ZM1164.92 124.74C1163.56 124.74 1162.48 125.24 1161.82 126.28V125H1159.66V135H1161.82V129.64C1161.82 127.6 1162.94 126.76 1164.36 126.76C1165.72 126.76 1166.6 127.56 1166.6 129.08V135H1168.76V128.86C1168.76 126.26 1167.16 124.74 1164.92 124.74Z" fill="#1E3356"/>
<path d="M982.265 182H983.417L987.545 170.8H986.329L982.841 180.512L979.353 170.8H978.137L982.265 182ZM994.758 174V175.568C994.086 174.496 992.95 173.808 991.526 173.808C989.27 173.808 987.398 175.632 987.398 178C987.398 180.368 989.27 182.192 991.526 182.192C992.95 182.192 994.086 181.504 994.758 180.432V182H995.814V174H994.758ZM991.606 181.168C989.83 181.168 988.454 179.776 988.454 178C988.454 176.224 989.83 174.832 991.606 174.832C993.382 174.832 994.758 176.224 994.758 178C994.758 179.776 993.382 181.168 991.606 181.168ZM998.05 182H999.106V170.32H998.05V182ZM1001.87 172.304C1002.31 172.304 1002.64 171.952 1002.64 171.536C1002.64 171.12 1002.31 170.768 1001.87 170.768C1001.44 170.768 1001.11 171.12 1001.11 171.536C1001.11 171.952 1001.44 172.304 1001.87 172.304ZM1001.35 182H1002.4V174H1001.35V182ZM1011.52 170.8V175.568C1010.85 174.496 1009.72 173.808 1008.29 173.808C1006.04 173.808 1004.16 175.632 1004.16 178C1004.16 180.368 1006.04 182.192 1008.29 182.192C1009.72 182.192 1010.85 181.504 1011.52 180.432V182H1012.58V170.8H1011.52ZM1008.37 181.168C1006.6 181.168 1005.22 179.776 1005.22 178C1005.22 176.224 1006.6 174.832 1008.37 174.832C1010.15 174.832 1011.52 176.224 1011.52 178C1011.52 179.776 1010.15 181.168 1008.37 181.168ZM1021.7 174V175.568C1021.02 174.496 1019.89 173.808 1018.46 173.808C1016.21 173.808 1014.34 175.632 1014.34 178C1014.34 180.368 1016.21 182.192 1018.46 182.192C1019.89 182.192 1021.02 181.504 1021.7 180.432V182H1022.75V174H1021.7ZM1018.54 181.168C1016.77 181.168 1015.39 179.776 1015.39 178C1015.39 176.224 1016.77 174.832 1018.54 174.832C1020.32 174.832 1021.7 176.224 1021.7 178C1021.7 179.776 1020.32 181.168 1018.54 181.168ZM1029.23 175.024V174H1026.92V171.76L1025.87 172.08V174H1024.19V175.024H1025.87V179.872C1025.87 181.792 1027.07 182.32 1029.23 182V181.072C1027.68 181.136 1026.92 181.248 1026.92 179.872V175.024H1029.23ZM1031.52 172.304C1031.95 172.304 1032.28 171.952 1032.28 171.536C1032.28 171.12 1031.95 170.768 1031.52 170.768C1031.08 170.768 1030.75 171.12 1030.75 171.536C1030.75 171.952 1031.08 172.304 1031.52 172.304ZM1030.99 182H1032.04V174H1030.99V182ZM1038.01 182.192C1040.35 182.192 1042.22 180.368 1042.22 178C1042.22 175.632 1040.35 173.808 1038.01 173.808C1035.68 173.808 1033.8 175.632 1033.8 178C1033.8 180.368 1035.68 182.192 1038.01 182.192ZM1038.01 181.168C1036.24 181.168 1034.86 179.776 1034.86 178C1034.86 176.224 1036.24 174.832 1038.01 174.832C1039.79 174.832 1041.16 176.224 1041.16 178C1041.16 179.776 1039.79 181.168 1038.01 181.168ZM1047.73 173.808C1046.6 173.808 1045.67 174.24 1045.04 175.248V174H1043.99V182H1045.04V177.808C1045.04 175.664 1046.23 174.832 1047.64 174.832C1049.03 174.832 1049.81 175.664 1049.81 177.088V182H1050.87V177.088C1050.87 175.088 1049.68 173.808 1047.73 173.808ZM1060.64 182.192C1062.97 182.192 1064.85 180.368 1064.85 178C1064.85 175.632 1062.97 173.808 1060.64 173.808C1058.3 173.808 1056.43 175.632 1056.43 178C1056.43 180.368 1058.3 182.192 1060.64 182.192ZM1060.64 181.168C1058.86 181.168 1057.49 179.776 1057.49 178C1057.49 176.224 1058.86 174.832 1060.64 174.832C1062.41 174.832 1063.79 176.224 1063.79 178C1063.79 179.776 1062.41 181.168 1060.64 181.168ZM1070.3 171.632V170.608C1068.14 170.448 1066.94 171.6 1066.94 173.68V174H1065.58V175.024H1066.94V182H1068V175.024H1070.3V174H1068V173.68C1068 172.144 1068.75 171.504 1070.3 171.632ZM1079.15 182.192C1081.49 182.192 1083.36 180.368 1083.36 178C1083.36 175.632 1081.49 173.808 1079.15 173.808C1076.82 173.808 1074.94 175.632 1074.94 178C1074.94 180.368 1076.82 182.192 1079.15 182.192ZM1079.15 181.168C1077.38 181.168 1076 179.776 1076 178C1076 176.224 1077.38 174.832 1079.15 174.832C1080.93 174.832 1082.3 176.224 1082.3 178C1082.3 179.776 1080.93 181.168 1079.15 181.168ZM1090.76 174V178.192C1090.76 180.336 1089.58 181.168 1088.17 181.168C1086.78 181.168 1085.99 180.336 1085.99 178.912V174H1084.94V178.912C1084.94 180.912 1086.12 182.192 1088.07 182.192C1089.21 182.192 1090.14 181.76 1090.76 180.752V182H1091.82V174H1090.76ZM1098.29 175.024V174H1095.99V171.76L1094.93 172.08V174H1093.25V175.024H1094.93V179.872C1094.93 181.792 1096.13 182.32 1098.29 182V181.072C1096.74 181.136 1095.99 181.248 1095.99 179.872V175.024H1098.29ZM1103.29 182.192C1104.86 182.192 1106.22 181.376 1106.88 180.112L1106 179.6C1105.49 180.528 1104.51 181.168 1103.29 181.168C1101.52 181.168 1100.14 179.776 1100.14 178C1100.14 176.224 1101.52 174.832 1103.29 174.832C1104.49 174.832 1105.5 175.456 1105.93 176.4L1106.8 175.904C1106.22 174.64 1104.88 173.808 1103.29 173.808C1100.88 173.808 1099.09 175.632 1099.09 178C1099.09 180.368 1100.88 182.192 1103.29 182.192ZM1112.04 182.192C1114.38 182.192 1116.25 180.368 1116.25 178C1116.25 175.632 1114.38 173.808 1112.04 173.808C1109.71 173.808 1107.84 175.632 1107.84 178C1107.84 180.368 1109.71 182.192 1112.04 182.192ZM1112.04 181.168C1110.27 181.168 1108.89 179.776 1108.89 178C1108.89 176.224 1110.27 174.832 1112.04 174.832C1113.82 174.832 1115.2 176.224 1115.2 178C1115.2 179.776 1113.82 181.168 1112.04 181.168ZM1126.55 173.808C1125.52 173.808 1124.55 174.272 1123.95 175.264C1123.51 174.336 1122.64 173.808 1121.52 173.808C1120.56 173.808 1119.7 174.192 1119.07 175.168V174H1118.02V182H1119.07V177.568C1119.07 175.584 1120.23 174.832 1121.38 174.832C1122.51 174.832 1123.25 175.584 1123.25 177.008V182H1124.31V177.568C1124.31 175.584 1125.3 174.832 1126.53 174.832C1127.67 174.832 1128.48 175.584 1128.48 177.008V182H1129.54V177.008C1129.54 175.008 1128.31 173.808 1126.55 173.808ZM1135.28 173.808C1132.8 173.808 1131.1 175.648 1131.1 178C1131.1 180.416 1132.83 182.192 1135.36 182.192C1136.97 182.192 1138.2 181.44 1138.88 180.352L1137.95 179.808C1137.52 180.576 1136.64 181.168 1135.37 181.168C1133.68 181.168 1132.41 180.16 1132.19 178.528H1139.21C1139.23 178.368 1139.24 178.192 1139.24 178.032C1139.24 175.84 1137.72 173.808 1135.28 173.808ZM1135.28 174.832C1136.65 174.832 1137.93 175.744 1138.16 177.504H1132.19C1132.4 175.936 1133.6 174.832 1135.28 174.832ZM1141.44 176.096C1141.44 175.232 1142.29 174.832 1143.12 174.832C1143.89 174.832 1144.71 175.136 1145.04 175.952L1145.92 175.44C1145.46 174.448 1144.44 173.808 1143.12 173.808C1141.52 173.808 1140.39 174.816 1140.39 176.096C1140.39 179.04 1145.06 177.904 1145.06 179.888C1145.06 180.832 1144.16 181.168 1143.22 181.168C1142.15 181.168 1141.32 180.64 1141.03 179.824L1140.13 180.352C1140.53 181.376 1141.62 182.192 1143.22 182.192C1144.93 182.192 1146.12 181.248 1146.12 179.888C1146.12 176.944 1141.44 178.08 1141.44 176.096ZM1158.76 174V175.568C1158.09 174.496 1156.95 173.808 1155.53 173.808C1153.27 173.808 1151.4 175.632 1151.4 178C1151.4 180.368 1153.27 182.192 1155.53 182.192C1156.95 182.192 1158.09 181.504 1158.76 180.432V182H1159.81V174H1158.76ZM1155.61 181.168C1153.83 181.168 1152.45 179.776 1152.45 178C1152.45 176.224 1153.83 174.832 1155.61 174.832C1157.38 174.832 1158.76 176.224 1158.76 178C1158.76 179.776 1157.38 181.168 1155.61 181.168ZM1165.79 173.808C1164.66 173.808 1163.73 174.24 1163.11 175.248V174H1162.05V182H1163.11V177.808C1163.11 175.664 1164.29 174.832 1165.7 174.832C1167.09 174.832 1167.87 175.664 1167.87 177.088V182H1168.93V177.088C1168.93 175.088 1167.75 173.808 1165.79 173.808ZM1177.85 170.8V175.568C1177.18 174.496 1176.04 173.808 1174.62 173.808C1172.36 173.808 1170.49 175.632 1170.49 178C1170.49 180.368 1172.36 182.192 1174.62 182.192C1176.04 182.192 1177.18 181.504 1177.85 180.432V182H1178.91V170.8H1177.85ZM1174.7 181.168C1172.92 181.168 1171.55 179.776 1171.55 178C1171.55 176.224 1172.92 174.832 1174.7 174.832C1176.48 174.832 1177.85 176.224 1177.85 178C1177.85 179.776 1176.48 181.168 1174.7 181.168ZM998.593 195.808C997.569 195.808 996.593 196.272 996.001 197.264C995.553 196.336 994.689 195.808 993.569 195.808C992.609 195.808 991.745 196.192 991.121 197.168V196H990.065V204H991.121V199.568C991.121 197.584 992.273 196.832 993.425 196.832C994.561 196.832 995.297 197.584 995.297 199.008V204H996.353V199.568C996.353 197.584 997.345 196.832 998.577 196.832C999.713 196.832 1000.53 197.584 1000.53 199.008V204H1001.59V199.008C1001.59 197.008 1000.35 195.808 998.593 195.808ZM1007.32 195.808C1004.84 195.808 1003.15 197.648 1003.15 200C1003.15 202.416 1004.88 204.192 1007.4 204.192C1009.02 204.192 1010.25 203.44 1010.92 202.352L1010 201.808C1009.56 202.576 1008.68 203.168 1007.42 203.168C1005.72 203.168 1004.46 202.16 1004.24 200.528H1011.26C1011.28 200.368 1011.29 200.192 1011.29 200.032C1011.29 197.84 1009.77 195.808 1007.32 195.808ZM1007.32 196.832C1008.7 196.832 1009.98 197.744 1010.2 199.504H1004.24C1004.44 197.936 1005.64 196.832 1007.32 196.832ZM1019.85 196V197.568C1019.18 196.496 1018.04 195.808 1016.62 195.808C1014.36 195.808 1012.49 197.632 1012.49 200C1012.49 202.368 1014.36 204.192 1016.62 204.192C1018.04 204.192 1019.18 203.504 1019.85 202.432V204H1020.91V196H1019.85ZM1016.7 203.168C1014.92 203.168 1013.55 201.776 1013.55 200C1013.55 198.224 1014.92 196.832 1016.7 196.832C1018.48 196.832 1019.85 198.224 1019.85 200C1019.85 201.776 1018.48 203.168 1016.7 203.168ZM1023.98 198.096C1023.98 197.232 1024.82 196.832 1025.66 196.832C1026.42 196.832 1027.24 197.136 1027.58 197.952L1028.46 197.44C1027.99 196.448 1026.97 195.808 1025.66 195.808C1024.06 195.808 1022.92 196.816 1022.92 198.096C1022.92 201.04 1027.59 199.904 1027.59 201.888C1027.59 202.832 1026.7 203.168 1025.75 203.168C1024.68 203.168 1023.85 202.64 1023.56 201.824L1022.66 202.352C1023.06 203.376 1024.15 204.192 1025.75 204.192C1027.46 204.192 1028.65 203.248 1028.65 201.888C1028.65 198.944 1023.98 200.08 1023.98 198.096ZM1035.96 196V200.192C1035.96 202.336 1034.78 203.168 1033.37 203.168C1031.98 203.168 1031.19 202.336 1031.19 200.912V196H1030.14V200.912C1030.14 202.912 1031.32 204.192 1033.27 204.192C1034.41 204.192 1035.34 203.76 1035.96 202.752V204H1037.02V196H1035.96ZM1040.31 197.328V196H1039.25V204H1040.31V199.552C1040.31 197.568 1041.56 196.896 1042.84 196.896V195.872C1041.81 195.872 1040.87 196.208 1040.31 197.328ZM1047.5 195.808C1045.02 195.808 1043.32 197.648 1043.32 200C1043.32 202.416 1045.05 204.192 1047.58 204.192C1049.19 204.192 1050.42 203.44 1051.1 202.352L1050.17 201.808C1049.74 202.576 1048.86 203.168 1047.59 203.168C1045.9 203.168 1044.63 202.16 1044.41 200.528H1051.43C1051.45 200.368 1051.46 200.192 1051.46 200.032C1051.46 197.84 1049.94 195.808 1047.5 195.808ZM1047.5 196.832C1048.87 196.832 1050.15 197.744 1050.38 199.504H1044.41C1044.62 197.936 1045.82 196.832 1047.5 196.832ZM1061.67 195.808C1060.65 195.808 1059.67 196.272 1059.08 197.264C1058.63 196.336 1057.77 195.808 1056.65 195.808C1055.69 195.808 1054.82 196.192 1054.2 197.168V196H1053.14V204H1054.2V199.568C1054.2 197.584 1055.35 196.832 1056.5 196.832C1057.64 196.832 1058.38 197.584 1058.38 199.008V204H1059.43V199.568C1059.43 197.584 1060.42 196.832 1061.66 196.832C1062.79 196.832 1063.61 197.584 1063.61 199.008V204H1064.66V199.008C1064.66 197.008 1063.43 195.808 1061.67 195.808ZM1070.4 195.808C1067.92 195.808 1066.23 197.648 1066.23 200C1066.23 202.416 1067.95 204.192 1070.48 204.192C1072.1 204.192 1073.33 203.44 1074 202.352L1073.07 201.808C1072.64 202.576 1071.76 203.168 1070.5 203.168C1068.8 203.168 1067.54 202.16 1067.31 200.528H1074.34C1074.35 200.368 1074.37 200.192 1074.37 200.032C1074.37 197.84 1072.85 195.808 1070.4 195.808ZM1070.4 196.832C1071.78 196.832 1073.06 197.744 1073.28 199.504H1067.31C1067.52 197.936 1068.72 196.832 1070.4 196.832ZM1079.79 195.808C1078.66 195.808 1077.73 196.24 1077.11 197.248V196H1076.05V204H1077.11V199.808C1077.11 197.664 1078.29 196.832 1079.7 196.832C1081.09 196.832 1081.87 197.664 1081.87 199.088V204H1082.93V199.088C1082.93 197.088 1081.75 195.808 1079.79 195.808ZM1089.21 197.024V196H1086.91V193.76L1085.85 194.08V196H1084.17V197.024H1085.85V201.872C1085.85 203.792 1087.05 204.32 1089.21 204V203.072C1087.66 203.136 1086.91 203.248 1086.91 201.872V197.024H1089.21ZM1098.7 204.192C1101.04 204.192 1102.91 202.368 1102.91 200C1102.91 197.632 1101.04 195.808 1098.7 195.808C1096.36 195.808 1094.49 197.632 1094.49 200C1094.49 202.368 1096.36 204.192 1098.7 204.192ZM1098.7 203.168C1096.92 203.168 1095.55 201.776 1095.55 200C1095.55 198.224 1096.92 196.832 1098.7 196.832C1100.48 196.832 1101.85 198.224 1101.85 200C1101.85 201.776 1100.48 203.168 1098.7 203.168ZM1108.36 193.632V192.608C1106.2 192.448 1105 193.6 1105 195.68V196H1103.64V197.024H1105V204H1106.06V197.024H1108.36V196H1106.06V195.68C1106.06 194.144 1106.81 193.504 1108.36 193.632ZM1114.32 198.096C1114.32 197.232 1115.17 196.832 1116 196.832C1116.77 196.832 1117.58 197.136 1117.92 197.952L1118.8 197.44C1118.34 196.448 1117.31 195.808 1116 195.808C1114.4 195.808 1113.26 196.816 1113.26 198.096C1113.26 201.04 1117.94 199.904 1117.94 201.888C1117.94 202.832 1117.04 203.168 1116.1 203.168C1115.02 203.168 1114.19 202.64 1113.9 201.824L1113.01 202.352C1113.41 203.376 1114.5 204.192 1116.1 204.192C1117.81 204.192 1118.99 203.248 1118.99 201.888C1118.99 198.944 1114.32 200.08 1114.32 198.096ZM1126.31 196V200.192C1126.31 202.336 1125.12 203.168 1123.71 203.168C1122.32 203.168 1121.54 202.336 1121.54 200.912V196H1120.48V200.912C1120.48 202.912 1121.67 204.192 1123.62 204.192C1124.75 204.192 1125.68 203.76 1126.31 202.752V204H1127.36V196H1126.31ZM1133.32 204.192C1134.89 204.192 1136.25 203.376 1136.91 202.112L1136.03 201.6C1135.52 202.528 1134.54 203.168 1133.32 203.168C1131.55 203.168 1130.17 201.776 1130.17 200C1130.17 198.224 1131.55 196.832 1133.32 196.832C1134.52 196.832 1135.53 197.456 1135.96 198.4L1136.83 197.904C1136.25 196.64 1134.91 195.808 1133.32 195.808C1130.91 195.808 1129.12 197.632 1129.12 200C1129.12 202.368 1130.91 204.192 1133.32 204.192ZM1142.07 204.192C1143.64 204.192 1145 203.376 1145.66 202.112L1144.78 201.6C1144.27 202.528 1143.29 203.168 1142.07 203.168C1140.3 203.168 1138.92 201.776 1138.92 200C1138.92 198.224 1140.3 196.832 1142.07 196.832C1143.27 196.832 1144.28 197.456 1144.71 198.4L1145.58 197.904C1145 196.64 1143.66 195.808 1142.07 195.808C1139.66 195.808 1137.87 197.632 1137.87 200C1137.87 202.368 1139.66 204.192 1142.07 204.192ZM1150.79 195.808C1148.31 195.808 1146.62 197.648 1146.62 200C1146.62 202.416 1148.34 204.192 1150.87 204.192C1152.49 204.192 1153.72 203.44 1154.39 202.352L1153.46 201.808C1153.03 202.576 1152.15 203.168 1150.89 203.168C1149.19 203.168 1147.93 202.16 1147.7 200.528H1154.73C1154.74 200.368 1154.76 200.192 1154.76 200.032C1154.76 197.84 1153.24 195.808 1150.79 195.808ZM1150.79 196.832C1152.17 196.832 1153.45 197.744 1153.67 199.504H1147.7C1147.91 197.936 1149.11 196.832 1150.79 196.832ZM1156.96 198.096C1156.96 197.232 1157.81 196.832 1158.64 196.832C1159.41 196.832 1160.22 197.136 1160.56 197.952L1161.44 197.44C1160.98 196.448 1159.95 195.808 1158.64 195.808C1157.04 195.808 1155.9 196.816 1155.9 198.096C1155.9 201.04 1160.58 199.904 1160.58 201.888C1160.58 202.832 1159.68 203.168 1158.74 203.168C1157.66 203.168 1156.83 202.64 1156.54 201.824L1155.65 202.352C1156.05 203.376 1157.14 204.192 1158.74 204.192C1160.45 204.192 1161.63 203.248 1161.63 201.888C1161.63 198.944 1156.96 200.08 1156.96 198.096ZM1163.74 198.096C1163.74 197.232 1164.59 196.832 1165.42 196.832C1166.19 196.832 1167.01 197.136 1167.34 197.952L1168.22 197.44C1167.76 196.448 1166.73 195.808 1165.42 195.808C1163.82 195.808 1162.69 196.816 1162.69 198.096C1162.69 201.04 1167.36 199.904 1167.36 201.888C1167.36 202.832 1166.46 203.168 1165.52 203.168C1164.45 203.168 1163.61 202.64 1163.33 201.824L1162.43 202.352C1162.83 203.376 1163.92 204.192 1165.52 204.192C1167.23 204.192 1168.41 203.248 1168.41 201.888C1168.41 198.944 1163.74 200.08 1163.74 198.096Z" fill="#516689"/>
<path d="M461.998 331.26C465.058 331.26 467.298 329.38 467.298 326.36V317H464.998V326.22C464.998 327.86 464.058 329.02 461.998 329.02C459.938 329.02 458.998 327.86 458.998 326.22V317H456.698V326.36C456.698 329.38 458.918 331.26 461.998 331.26ZM475.063 320.74C473.703 320.74 472.623 321.24 471.963 322.28V321H469.803V331H471.963V325.64C471.963 323.6 473.083 322.76 474.503 322.76C475.863 322.76 476.743 323.56 476.743 325.08V331H478.903V324.86C478.903 322.26 477.303 320.74 475.063 320.74ZM481.229 331H483.389V316.4H481.229V331ZM487.597 326.92H495.557C495.597 326.64 495.637 326.32 495.637 326.02C495.637 323.14 493.597 320.74 490.617 320.74C487.477 320.74 485.337 323.04 485.337 326C485.337 329 487.477 331.26 490.777 331.26C492.737 331.26 494.237 330.44 495.157 329.08L493.377 328.04C492.897 328.74 491.997 329.28 490.797 329.28C489.197 329.28 487.937 328.48 487.597 326.92ZM487.577 325.16C487.877 323.66 488.977 322.7 490.597 322.7C491.897 322.7 493.157 323.44 493.457 325.16H487.577ZM505.399 321V322.42C504.639 321.38 503.459 320.74 501.899 320.74C499.179 320.74 496.919 323.02 496.919 326C496.919 328.96 499.179 331.26 501.899 331.26C503.459 331.26 504.639 330.62 505.399 329.56V331H507.559V321H505.399ZM502.239 329.2C500.439 329.2 499.079 327.86 499.079 326C499.079 324.14 500.439 322.8 502.239 322.8C504.039 322.8 505.399 324.14 505.399 326C505.399 327.86 504.039 329.2 502.239 329.2ZM511.958 323.76C511.958 323.04 512.638 322.7 513.418 322.7C514.238 322.7 514.938 323.06 515.298 323.84L517.118 322.82C516.418 321.5 515.058 320.74 513.418 320.74C511.378 320.74 509.758 321.92 509.758 323.8C509.758 327.38 515.138 326.38 515.138 328.16C515.138 328.96 514.398 329.28 513.438 329.28C512.338 329.28 511.538 328.74 511.218 327.84L509.358 328.92C509.998 330.36 511.438 331.26 513.438 331.26C515.598 331.26 517.338 330.18 517.338 328.18C517.338 324.48 511.958 325.58 511.958 323.76ZM524.379 320.74C523.019 320.74 521.939 321.24 521.279 322.28V317H519.119V331H521.279V325.64C521.279 323.6 522.399 322.76 523.819 322.76C525.179 322.76 526.059 323.56 526.059 325.08V331H528.219V324.86C528.219 322.26 526.619 320.74 524.379 320.74ZM543.505 321V322.48C542.745 321.4 541.565 320.74 540.025 320.74C537.205 320.74 534.985 323.04 534.985 325.9C534.985 328.76 537.205 331.06 540.025 331.06C541.565 331.06 542.745 330.4 543.505 329.32V330.54C543.505 332.28 542.385 333.3 540.525 333.3C538.785 333.3 538.045 332.62 537.605 331.76L535.745 332.84C536.585 334.44 538.285 335.26 540.485 335.26C543.105 335.26 545.625 333.76 545.625 330.54V321H543.505ZM540.325 329.04C538.505 329.04 537.145 327.7 537.145 325.9C537.145 324.1 538.505 322.76 540.325 322.76C542.145 322.76 543.505 324.1 543.505 325.9C543.505 327.7 542.145 329.04 540.325 329.04ZM550.303 322.68V321H548.143V331H550.303V325.96C550.303 323.72 551.963 323.06 553.383 323.16V320.82C552.123 320.82 550.903 321.32 550.303 322.68ZM559.23 331.26C562.17 331.26 564.51 328.96 564.51 326C564.51 323.02 562.17 320.74 559.23 320.74C556.31 320.74 553.95 323.02 553.95 326C553.95 328.96 556.31 331.26 559.23 331.26ZM559.23 329.16C557.47 329.16 556.11 327.82 556.11 326C556.11 324.18 557.47 322.84 559.23 322.84C560.99 322.84 562.35 324.18 562.35 326C562.35 327.82 560.99 329.16 559.23 329.16ZM577.593 321L575.633 327.9L573.553 321H571.493L569.393 327.9L567.452 321H565.173L568.313 331H570.433L572.533 324.26L574.613 331H576.733L579.873 321H577.593ZM587.043 323.08V321H584.563V318.2L582.403 318.84V321H580.563V323.08H582.403V327.88C582.403 330.48 583.723 331.4 587.043 331V329.06C585.403 329.14 584.563 329.16 584.563 327.88V323.08H587.043ZM594.262 320.74C592.902 320.74 591.822 321.24 591.162 322.28V317H589.002V331H591.162V325.64C591.162 323.6 592.282 322.76 593.702 322.76C595.062 322.76 595.942 323.56 595.942 325.08V331H598.102V324.86C598.102 322.26 596.502 320.74 594.262 320.74ZM613.348 321V322.42C612.588 321.38 611.408 320.74 609.848 320.74C607.128 320.74 604.868 323.02 604.868 326C604.868 328.96 607.128 331.26 609.848 331.26C611.408 331.26 612.588 330.62 613.348 329.56V331H615.508V321H613.348ZM610.188 329.2C608.388 329.2 607.028 327.86 607.028 326C607.028 324.14 608.388 322.8 610.188 322.8C611.988 322.8 613.348 324.14 613.348 326C613.348 327.86 611.988 329.2 610.188 329.2ZM625.986 321V322.48C625.226 321.4 624.046 320.74 622.506 320.74C619.686 320.74 617.466 323.04 617.466 325.9C617.466 328.76 619.686 331.06 622.506 331.06C624.046 331.06 625.226 330.4 625.986 329.32V330.54C625.986 332.28 624.866 333.3 623.006 333.3C621.266 333.3 620.526 332.62 620.086 331.76L618.226 332.84C619.066 334.44 620.766 335.26 622.966 335.26C625.586 335.26 628.106 333.76 628.106 330.54V321H625.986ZM622.806 329.04C620.986 329.04 619.626 327.7 619.626 325.9C619.626 324.1 620.986 322.76 622.806 322.76C624.626 322.76 625.986 324.1 625.986 325.9C625.986 327.7 624.626 329.04 622.806 329.04ZM638.543 321V322.42C637.783 321.38 636.603 320.74 635.043 320.74C632.323 320.74 630.063 323.02 630.063 326C630.063 328.96 632.323 331.26 635.043 331.26C636.603 331.26 637.783 330.62 638.543 329.56V331H640.703V321H638.543ZM635.383 329.2C633.583 329.2 632.223 327.86 632.223 326C632.223 324.14 633.583 322.8 635.383 322.8C637.183 322.8 638.543 324.14 638.543 326C638.543 327.86 637.183 329.2 635.383 329.2ZM644.301 319.5C645.061 319.5 645.681 318.86 645.681 318.12C645.681 317.36 645.061 316.74 644.301 316.74C643.541 316.74 642.921 317.36 642.921 318.12C642.921 318.86 643.541 319.5 644.301 319.5ZM643.221 331H645.381V321H643.221V331ZM653.149 320.74C651.789 320.74 650.709 321.24 650.049 322.28V321H647.889V331H650.049V325.64C650.049 323.6 651.169 322.76 652.589 322.76C653.949 322.76 654.829 323.56 654.829 325.08V331H656.989V324.86C656.989 322.26 655.389 320.74 653.149 320.74ZM672.235 321V322.42C671.475 321.38 670.295 320.74 668.735 320.74C666.015 320.74 663.755 323.02 663.755 326C663.755 328.96 666.015 331.26 668.735 331.26C670.295 331.26 671.475 330.62 672.235 329.56V331H674.395V321H672.235ZM669.075 329.2C667.275 329.2 665.915 327.86 665.915 326C665.915 324.14 667.275 322.8 669.075 322.8C670.875 322.8 672.235 324.14 672.235 326C672.235 327.86 670.875 329.2 669.075 329.2ZM682.172 320.74C680.812 320.74 679.732 321.24 679.072 322.28V321H676.912V331H679.072V325.64C679.072 323.6 680.192 322.76 681.612 322.76C682.972 322.76 683.852 323.56 683.852 325.08V331H686.012V324.86C686.012 322.26 684.412 320.74 682.172 320.74ZM696.258 317V322.42C695.498 321.38 694.318 320.74 692.758 320.74C690.038 320.74 687.778 323.02 687.778 326C687.778 328.96 690.038 331.26 692.758 331.26C694.318 331.26 695.498 330.62 696.258 329.56V331H698.418V317H696.258ZM693.098 329.2C691.298 329.2 689.938 327.86 689.938 326C689.938 324.14 691.298 322.8 693.098 322.8C694.898 322.8 696.258 324.14 696.258 326C696.258 327.86 694.898 329.2 693.098 329.2ZM713.856 321V322.42C713.096 321.38 711.916 320.74 710.356 320.74C707.636 320.74 705.376 323.02 705.376 326C705.376 328.96 707.636 331.26 710.356 331.26C711.916 331.26 713.096 330.62 713.856 329.56V331H716.016V321H713.856ZM710.696 329.2C708.896 329.2 707.536 327.86 707.536 326C707.536 324.14 708.896 322.8 710.696 322.8C712.496 322.8 713.856 324.14 713.856 326C713.856 327.86 712.496 329.2 710.696 329.2ZM726.493 321V322.48C725.733 321.4 724.553 320.74 723.013 320.74C720.193 320.74 717.973 323.04 717.973 325.9C717.973 328.76 720.193 331.06 723.013 331.06C724.553 331.06 725.733 330.4 726.493 329.32V330.54C726.493 332.28 725.373 333.3 723.513 333.3C721.773 333.3 721.033 332.62 720.593 331.76L718.733 332.84C719.573 334.44 721.273 335.26 723.473 335.26C726.093 335.26 728.613 333.76 728.613 330.54V321H726.493ZM723.313 329.04C721.493 329.04 720.133 327.7 720.133 325.9C720.133 324.1 721.493 322.76 723.313 322.76C725.133 322.76 726.493 324.1 726.493 325.9C726.493 327.7 725.133 329.04 723.313 329.04ZM739.051 321V322.42C738.291 321.38 737.111 320.74 735.551 320.74C732.831 320.74 730.571 323.02 730.571 326C730.571 328.96 732.831 331.26 735.551 331.26C737.111 331.26 738.291 330.62 739.051 329.56V331H741.211V321H739.051ZM735.891 329.2C734.091 329.2 732.731 327.86 732.731 326C732.731 324.14 734.091 322.8 735.891 322.8C737.691 322.8 739.051 324.14 739.051 326C739.051 327.86 737.691 329.2 735.891 329.2ZM744.809 319.5C745.569 319.5 746.189 318.86 746.189 318.12C746.189 317.36 745.569 316.74 744.809 316.74C744.049 316.74 743.429 317.36 743.429 318.12C743.429 318.86 744.049 319.5 744.809 319.5ZM743.729 331H745.889V321H743.729V331ZM753.657 320.74C752.297 320.74 751.217 321.24 750.557 322.28V321H748.397V331H750.557V325.64C750.557 323.6 751.677 322.76 753.097 322.76C754.457 322.76 755.337 323.56 755.337 325.08V331H757.497V324.86C757.497 322.26 755.897 320.74 753.657 320.74Z" fill="#1E3356"/>
<g opacity="0.3">
<path d="M790.652 339.523L780.001 327.35L790.349 315.523" stroke="#7D8CA6" stroke-width="3"/>
<path d="M780 327H1060C1071.05 327 1080 318.046 1080 307V285" stroke="#7D8CA6" stroke-width="3"/>
</g>
<g clip-path="url(#clip0)">
<g opacity="0.3">
<path d="M113 295.652L125.173 285.001L137 295.349" stroke="#7D8CA6" stroke-width="3"/>
<path d="M425 327H145C133.954 327 125 318.046 125 307V285" stroke="#7D8CA6" stroke-width="3"/>
</g>
</g>
<defs>
<clipPath id="clip0">
<rect x="113" y="285" width="312" height="68" fill="white"/>
</clipPath>
</defs>
</svg>
