<svg width="24" height="24" viewBox="0 0 24 24" fill="none" xmlns="http://www.w3.org/2000/svg">
<rect width="24" height="24" fill="white"/>
<path d="M18.7286 11.1406C18.7857 11.4549 18.8214 11.6835 18.8357 11.8263C18.85 11.9549 18.8571 12.1549 18.8571 12.4263C18.8571 12.6978 18.85 12.8906 18.8357 13.0049C18.8214 13.1192 18.7929 13.2978 18.75 13.5406L18.7286 13.6692H6.12857C6.07143 13.3549 6.03571 13.1335 6.02143 13.0049C6.00714 12.8621 6 12.6549 6 12.3835C6 12.1121 6.00714 11.9192 6.02143 11.8049C6.03571 11.6906 6.06429 11.5121 6.10714 11.2692L6.12857 11.1406H18.7286Z" fill="#1E3356"/>
</svg>
