<svg width="24" height="24" viewBox="0 0 24 24" fill="none" xmlns="http://www.w3.org/2000/svg">
<rect width="24" height="24" fill="white"/>
<path d="M19.247 11.1119C19.2355 10.8605 19.2012 10.5976 19.1441 10.3233H13.2641V4.44335L12.5098 4.32335C12.2127 4.30049 11.9841 4.28906 11.8241 4.28906C11.6641 4.28906 11.4241 4.30049 11.1041 4.32335C10.9441 4.33478 10.6812 4.37478 10.3155 4.44335V10.3233H4.43554L4.41839 10.4091C4.36125 10.7176 4.32696 10.9405 4.31554 11.0776V11.1291C4.29268 11.3919 4.28125 11.5919 4.28125 11.7291C4.28125 11.9119 4.29268 12.1633 4.31554 12.4833C4.32696 12.6319 4.36125 12.8605 4.41839 13.1691L4.43554 13.2548H10.3155V19.1519L10.4013 19.1691C10.7098 19.2262 10.9327 19.2605 11.0698 19.2719C11.2184 19.2833 11.4413 19.2891 11.7384 19.2891C12.0698 19.2891 12.3155 19.2833 12.4755 19.2719C12.6127 19.2605 12.8298 19.2262 13.127 19.1691L13.2641 19.1519V13.2548H19.1441C19.2012 12.9805 19.2355 12.7348 19.247 12.5176C19.2698 12.3691 19.2813 12.1462 19.2813 11.8491C19.2927 11.6205 19.2812 11.3748 19.247 11.1119Z" fill="#1E3356"/>
</svg>
