<svg width="38" height="39" viewBox="0 0 38 39" fill="none" xmlns="http://www.w3.org/2000/svg">
<g clip-path="url(#clip0)">
<path d="M31 12.1957C30.117 12.5877 29.168 12.8517 28.172 12.9707C29.189 12.3617 29.97 11.3967 30.337 10.2467C29.386 10.8107 28.332 11.2207 27.21 11.4417C26.313 10.4847 25.032 9.88672 23.616 9.88672C20.437 9.88672 18.101 12.8527 18.819 15.9317C14.728 15.7267 11.1 13.7667 8.671 10.7877C7.381 13.0007 8.002 15.8957 10.194 17.3617C9.388 17.3357 8.628 17.1147 7.965 16.7457C7.911 19.0267 9.546 21.1607 11.914 21.6357C11.221 21.8237 10.462 21.8677 9.69 21.7197C10.316 23.6757 12.134 25.0987 14.29 25.1387C12.22 26.7617 9.612 27.4867 7 27.1787C9.179 28.5757 11.768 29.3907 14.548 29.3907C23.69 29.3907 28.855 21.6697 28.543 14.7447C29.505 14.0497 30.34 13.1827 31 12.1957Z" fill="white"/>
</g>
<defs>
<clipPath id="clip0">
<rect width="24" height="24" fill="white" transform="translate(7 7.64062)"/>
</clipPath>
</defs>
</svg>
