<svg width="969" height="68" viewBox="0 0 969 68" fill="none" xmlns="http://www.w3.org/2000/svg">
<path d="M348.998 46.26C352.058 46.26 354.298 44.38 354.298 41.36V32H351.998V41.22C351.998 42.86 351.058 44.02 348.998 44.02C346.938 44.02 345.998 42.86 345.998 41.22V32H343.698V41.36C343.698 44.38 345.918 46.26 348.998 46.26ZM362.063 35.74C360.703 35.74 359.623 36.24 358.963 37.28V36H356.803V46H358.963V40.64C358.963 38.6 360.083 37.76 361.503 37.76C362.863 37.76 363.743 38.56 363.743 40.08V46H365.903V39.86C365.903 37.26 364.303 35.74 362.063 35.74ZM368.229 46H370.389V31.4H368.229V46ZM374.597 41.92H382.557C382.597 41.64 382.637 41.32 382.637 41.02C382.637 38.14 380.597 35.74 377.617 35.74C374.477 35.74 372.337 38.04 372.337 41C372.337 44 374.477 46.26 377.777 46.26C379.737 46.26 381.237 45.44 382.157 44.08L380.377 43.04C379.897 43.74 378.997 44.28 377.797 44.28C376.197 44.28 374.937 43.48 374.597 41.92ZM374.577 40.16C374.877 38.66 375.977 37.7 377.597 37.7C378.897 37.7 380.157 38.44 380.457 40.16H374.577ZM392.399 36V37.42C391.639 36.38 390.459 35.74 388.899 35.74C386.179 35.74 383.919 38.02 383.919 41C383.919 43.96 386.179 46.26 388.899 46.26C390.459 46.26 391.639 45.62 392.399 44.56V46H394.559V36H392.399ZM389.239 44.2C387.439 44.2 386.079 42.86 386.079 41C386.079 39.14 387.439 37.8 389.239 37.8C391.039 37.8 392.399 39.14 392.399 41C392.399 42.86 391.039 44.2 389.239 44.2ZM398.958 38.76C398.958 38.04 399.638 37.7 400.418 37.7C401.238 37.7 401.938 38.06 402.298 38.84L404.118 37.82C403.418 36.5 402.058 35.74 400.418 35.74C398.378 35.74 396.758 36.92 396.758 38.8C396.758 42.38 402.138 41.38 402.138 43.16C402.138 43.96 401.398 44.28 400.438 44.28C399.338 44.28 398.538 43.74 398.218 42.84L396.358 43.92C396.998 45.36 398.438 46.26 400.438 46.26C402.598 46.26 404.338 45.18 404.338 43.18C404.338 39.48 398.958 40.58 398.958 38.76ZM411.379 35.74C410.019 35.74 408.939 36.24 408.279 37.28V32H406.119V46H408.279V40.64C408.279 38.6 409.399 37.76 410.819 37.76C412.179 37.76 413.059 38.56 413.059 40.08V46H415.219V39.86C415.219 37.26 413.619 35.74 411.379 35.74ZM430.505 36V37.48C429.745 36.4 428.565 35.74 427.025 35.74C424.205 35.74 421.985 38.04 421.985 40.9C421.985 43.76 424.205 46.06 427.025 46.06C428.565 46.06 429.745 45.4 430.505 44.32V45.54C430.505 47.28 429.385 48.3 427.525 48.3C425.785 48.3 425.045 47.62 424.605 46.76L422.745 47.84C423.585 49.44 425.285 50.26 427.485 50.26C430.105 50.26 432.625 48.76 432.625 45.54V36H430.505ZM427.325 44.04C425.505 44.04 424.145 42.7 424.145 40.9C424.145 39.1 425.505 37.76 427.325 37.76C429.145 37.76 430.505 39.1 430.505 40.9C430.505 42.7 429.145 44.04 427.325 44.04ZM437.303 37.68V36H435.143V46H437.303V40.96C437.303 38.72 438.963 38.06 440.383 38.16V35.82C439.123 35.82 437.903 36.32 437.303 37.68ZM446.23 46.26C449.17 46.26 451.51 43.96 451.51 41C451.51 38.02 449.17 35.74 446.23 35.74C443.31 35.74 440.95 38.02 440.95 41C440.95 43.96 443.31 46.26 446.23 46.26ZM446.23 44.16C444.47 44.16 443.11 42.82 443.11 41C443.11 39.18 444.47 37.84 446.23 37.84C447.99 37.84 449.35 39.18 449.35 41C449.35 42.82 447.99 44.16 446.23 44.16ZM464.593 36L462.633 42.9L460.553 36H458.493L456.393 42.9L454.452 36H452.173L455.313 46H457.433L459.533 39.26L461.613 46H463.733L466.873 36H464.593ZM474.043 38.08V36H471.563V33.2L469.403 33.84V36H467.563V38.08H469.403V42.88C469.403 45.48 470.723 46.4 474.043 46V44.06C472.403 44.14 471.563 44.16 471.563 42.88V38.08H474.043ZM481.262 35.74C479.902 35.74 478.822 36.24 478.162 37.28V32H476.002V46H478.162V40.64C478.162 38.6 479.282 37.76 480.702 37.76C482.062 37.76 482.942 38.56 482.942 40.08V46H485.102V39.86C485.102 37.26 483.502 35.74 481.262 35.74ZM500.348 36V37.42C499.588 36.38 498.408 35.74 496.848 35.74C494.128 35.74 491.868 38.02 491.868 41C491.868 43.96 494.128 46.26 496.848 46.26C498.408 46.26 499.588 45.62 500.348 44.56V46H502.508V36H500.348ZM497.188 44.2C495.388 44.2 494.028 42.86 494.028 41C494.028 39.14 495.388 37.8 497.188 37.8C498.988 37.8 500.348 39.14 500.348 41C500.348 42.86 498.988 44.2 497.188 44.2ZM512.986 36V37.48C512.226 36.4 511.046 35.74 509.506 35.74C506.686 35.74 504.466 38.04 504.466 40.9C504.466 43.76 506.686 46.06 509.506 46.06C511.046 46.06 512.226 45.4 512.986 44.32V45.54C512.986 47.28 511.866 48.3 510.006 48.3C508.266 48.3 507.526 47.62 507.086 46.76L505.226 47.84C506.066 49.44 507.766 50.26 509.966 50.26C512.586 50.26 515.106 48.76 515.106 45.54V36H512.986ZM509.806 44.04C507.986 44.04 506.626 42.7 506.626 40.9C506.626 39.1 507.986 37.76 509.806 37.76C511.626 37.76 512.986 39.1 512.986 40.9C512.986 42.7 511.626 44.04 509.806 44.04ZM525.543 36V37.42C524.783 36.38 523.603 35.74 522.043 35.74C519.323 35.74 517.063 38.02 517.063 41C517.063 43.96 519.323 46.26 522.043 46.26C523.603 46.26 524.783 45.62 525.543 44.56V46H527.703V36H525.543ZM522.383 44.2C520.583 44.2 519.223 42.86 519.223 41C519.223 39.14 520.583 37.8 522.383 37.8C524.183 37.8 525.543 39.14 525.543 41C525.543 42.86 524.183 44.2 522.383 44.2ZM531.301 34.5C532.061 34.5 532.681 33.86 532.681 33.12C532.681 32.36 532.061 31.74 531.301 31.74C530.541 31.74 529.921 32.36 529.921 33.12C529.921 33.86 530.541 34.5 531.301 34.5ZM530.221 46H532.381V36H530.221V46ZM540.149 35.74C538.789 35.74 537.709 36.24 537.049 37.28V36H534.889V46H537.049V40.64C537.049 38.6 538.169 37.76 539.589 37.76C540.949 37.76 541.829 38.56 541.829 40.08V46H543.989V39.86C543.989 37.26 542.389 35.74 540.149 35.74ZM559.235 36V37.42C558.475 36.38 557.295 35.74 555.735 35.74C553.015 35.74 550.755 38.02 550.755 41C550.755 43.96 553.015 46.26 555.735 46.26C557.295 46.26 558.475 45.62 559.235 44.56V46H561.395V36H559.235ZM556.075 44.2C554.275 44.2 552.915 42.86 552.915 41C552.915 39.14 554.275 37.8 556.075 37.8C557.875 37.8 559.235 39.14 559.235 41C559.235 42.86 557.875 44.2 556.075 44.2ZM569.172 35.74C567.812 35.74 566.732 36.24 566.072 37.28V36H563.912V46H566.072V40.64C566.072 38.6 567.192 37.76 568.612 37.76C569.972 37.76 570.852 38.56 570.852 40.08V46H573.012V39.86C573.012 37.26 571.412 35.74 569.172 35.74ZM583.258 32V37.42C582.498 36.38 581.318 35.74 579.758 35.74C577.038 35.74 574.778 38.02 574.778 41C574.778 43.96 577.038 46.26 579.758 46.26C581.318 46.26 582.498 45.62 583.258 44.56V46H585.418V32H583.258ZM580.098 44.2C578.298 44.2 576.938 42.86 576.938 41C576.938 39.14 578.298 37.8 580.098 37.8C581.898 37.8 583.258 39.14 583.258 41C583.258 42.86 581.898 44.2 580.098 44.2ZM600.856 36V37.42C600.096 36.38 598.916 35.74 597.356 35.74C594.636 35.74 592.376 38.02 592.376 41C592.376 43.96 594.636 46.26 597.356 46.26C598.916 46.26 600.096 45.62 600.856 44.56V46H603.016V36H600.856ZM597.696 44.2C595.896 44.2 594.536 42.86 594.536 41C594.536 39.14 595.896 37.8 597.696 37.8C599.496 37.8 600.856 39.14 600.856 41C600.856 42.86 599.496 44.2 597.696 44.2ZM613.493 36V37.48C612.733 36.4 611.553 35.74 610.013 35.74C607.193 35.74 604.973 38.04 604.973 40.9C604.973 43.76 607.193 46.06 610.013 46.06C611.553 46.06 612.733 45.4 613.493 44.32V45.54C613.493 47.28 612.373 48.3 610.513 48.3C608.773 48.3 608.033 47.62 607.593 46.76L605.733 47.84C606.573 49.44 608.273 50.26 610.473 50.26C613.093 50.26 615.613 48.76 615.613 45.54V36H613.493ZM610.313 44.04C608.493 44.04 607.133 42.7 607.133 40.9C607.133 39.1 608.493 37.76 610.313 37.76C612.133 37.76 613.493 39.1 613.493 40.9C613.493 42.7 612.133 44.04 610.313 44.04ZM626.051 36V37.42C625.291 36.38 624.111 35.74 622.551 35.74C619.831 35.74 617.571 38.02 617.571 41C617.571 43.96 619.831 46.26 622.551 46.26C624.111 46.26 625.291 45.62 626.051 44.56V46H628.211V36H626.051ZM622.891 44.2C621.091 44.2 619.731 42.86 619.731 41C619.731 39.14 621.091 37.8 622.891 37.8C624.691 37.8 626.051 39.14 626.051 41C626.051 42.86 624.691 44.2 622.891 44.2ZM631.809 34.5C632.569 34.5 633.189 33.86 633.189 33.12C633.189 32.36 632.569 31.74 631.809 31.74C631.049 31.74 630.429 32.36 630.429 33.12C630.429 33.86 631.049 34.5 631.809 34.5ZM630.729 46H632.889V36H630.729V46ZM640.657 35.74C639.297 35.74 638.217 36.24 637.557 37.28V36H635.397V46H637.557V40.64C637.557 38.6 638.677 37.76 640.097 37.76C641.457 37.76 642.337 38.56 642.337 40.08V46H644.497V39.86C644.497 37.26 642.897 35.74 640.657 35.74Z" fill="#1E3356"/>
<g opacity="0.3">
<path d="M677.652 54.5234L667.001 42.3503L677.349 30.5234" stroke="#7D8CA6" stroke-width="3"/>
<path d="M667 42H947C958.046 42 967 33.0457 967 22V0" stroke="#7D8CA6" stroke-width="3"/>
</g>
<g clip-path="url(#clip0)">
<g opacity="0.3">
<path d="M0 10.6523L12.1732 0.000825336L24 10.3493" stroke="#7D8CA6" stroke-width="3"/>
<path d="M312 42H32C20.9543 42 12 33.0457 12 22V0" stroke="#7D8CA6" stroke-width="3"/>
</g>
</g>
<defs>
<clipPath id="clip0">
<rect width="312" height="68" fill="white"/>
</clipPath>
</defs>
</svg>
