<svg width="49" height="558" viewBox="0 0 49 558" fill="none" xmlns="http://www.w3.org/2000/svg">
<path d="M42.214 406.412C42.214 403.894 40.6667 402.051 38.1812 402.051L30.4779 402.051L30.4779 403.943L38.066 403.943C39.4158 403.943 40.3704 404.717 40.3704 406.412C40.3704 408.108 39.4158 408.882 38.066 408.882L30.4779 408.882L30.4779 410.774L38.1812 410.774C40.6667 410.774 42.214 408.947 42.214 406.412ZM33.5559 395.659C33.5559 396.779 33.9674 397.668 34.8234 398.211L33.7699 398.211L33.7699 399.989L42 399.989L42 398.211L37.5887 398.211C35.9097 398.211 35.2184 397.289 35.2184 396.12C35.2184 395.001 35.8768 394.277 37.1278 394.277L42 394.277L42 392.499L36.9467 392.499C34.8069 392.499 33.5559 393.816 33.5559 395.659ZM42 390.585L42 388.807L29.9841 388.807L29.9841 390.585L42 390.585ZM38.6421 385.344L38.6421 378.793C38.4117 378.76 38.1483 378.727 37.9014 378.727C35.5311 378.727 33.5559 380.406 33.5559 382.859C33.5559 385.443 35.4488 387.204 37.885 387.204C40.354 387.204 42.214 385.443 42.214 382.727C42.214 381.114 41.5391 379.879 40.4198 379.122L39.5639 380.587C40.14 380.982 40.5844 381.723 40.5844 382.71C40.5844 384.027 39.926 385.064 38.6421 385.344ZM37.1936 385.361C35.9591 385.114 35.169 384.208 35.169 382.875C35.169 381.805 35.7781 380.768 37.1936 380.521L37.1936 385.361ZM33.7699 370.693L34.9386 370.693C34.0827 371.318 33.5559 372.29 33.5559 373.573C33.5559 375.812 35.4324 377.672 37.885 377.672C40.3211 377.672 42.214 375.812 42.214 373.573C42.214 372.29 41.6873 371.318 40.8149 370.693L42 370.693L42 368.915L33.7699 368.915L33.7699 370.693ZM40.5186 373.294C40.5186 374.775 39.4158 375.894 37.885 375.894C36.3542 375.894 35.2513 374.775 35.2513 373.294C35.2513 371.812 36.3542 370.693 37.885 370.693C39.4158 370.693 40.5186 371.812 40.5186 373.294ZM36.0414 365.295C35.4488 365.295 35.169 364.735 35.169 364.093C35.169 363.418 35.4653 362.842 36.1073 362.546L35.2678 361.048C34.1814 361.624 33.5559 362.743 33.5559 364.093C33.5559 365.772 34.5271 367.105 36.0743 367.105C39.0207 367.105 38.1977 362.678 39.6627 362.678C40.3211 362.678 40.5844 363.287 40.5844 364.077C40.5844 364.982 40.14 365.64 39.3993 365.904L40.2881 367.435C41.4733 366.908 42.214 365.723 42.214 364.077C42.214 362.299 41.3251 360.867 39.6791 360.867C36.634 360.867 37.5393 365.295 36.0414 365.295ZM33.5559 355.072C33.5559 356.191 33.9674 357.08 34.8234 357.623L30.4779 357.623L30.4779 359.401L42 359.401L42 357.623L37.5887 357.623C35.9097 357.623 35.2184 356.701 35.2184 355.533C35.2184 354.413 35.8768 353.689 37.1278 353.689L42 353.689L42 351.911L36.9467 351.911C34.8069 351.911 33.5559 353.228 33.5559 355.072ZM33.7699 339.331L34.988 339.331C34.0991 339.956 33.5559 340.928 33.5559 342.195C33.5559 344.516 35.4488 346.343 37.8027 346.343C40.1565 346.343 42.0494 344.516 42.0494 342.195C42.0494 340.928 41.5062 339.956 40.6173 339.331L41.6214 339.331C43.0534 339.331 43.8929 340.253 43.8929 341.784C43.8929 343.216 43.3333 343.825 42.6255 344.187L43.5143 345.718C44.8311 345.026 45.506 343.627 45.506 341.816C45.506 339.66 44.2715 337.586 41.6214 337.586L33.7699 337.586L33.7699 339.331ZM40.3869 341.948C40.3869 343.446 39.2841 344.565 37.8027 344.565C36.3212 344.565 35.2184 343.446 35.2184 341.948C35.2184 340.45 36.3212 339.331 37.8027 339.331C39.2841 339.331 40.3869 340.45 40.3869 341.948ZM35.1526 333.736L33.7699 333.736L33.7699 335.514L42 335.514L42 333.736L37.852 333.736C36.0085 333.736 35.4653 332.37 35.5476 331.202L33.6218 331.202C33.6218 332.239 34.0333 333.243 35.1526 333.736ZM42.214 326.389C42.214 323.97 40.3211 322.044 37.885 322.044C35.4324 322.044 33.5559 323.97 33.5559 326.389C33.5559 328.792 35.4324 330.735 37.885 330.735C40.3211 330.735 42.214 328.792 42.214 326.389ZM40.4857 326.389C40.4857 327.838 39.3828 328.957 37.885 328.957C36.3871 328.957 35.2842 327.838 35.2842 326.389C35.2842 324.941 36.3871 323.822 37.885 323.822C39.3828 323.822 40.4857 324.941 40.4857 326.389ZM33.7699 311.277L39.4487 312.89L33.7699 314.602L33.7699 316.297L39.4487 318.025L33.7699 319.622L33.7699 321.499L42 318.914L42 317.17L36.4529 315.441L42 313.729L42 311.985L33.7699 309.4L33.7699 311.277ZM35.4818 303.499L33.7699 303.499L33.7699 305.54L31.4655 305.54L31.9922 307.318L33.7699 307.318L33.7699 308.832L35.4818 308.832L35.4818 307.318L39.4322 307.318C41.572 307.318 42.3292 306.231 42 303.499L40.4034 303.499C40.4692 304.849 40.4857 305.54 39.4322 305.54L35.4818 305.54L35.4818 303.499ZM33.5559 297.557C33.5559 298.677 33.9674 299.566 34.8234 300.109L30.4779 300.109L30.4779 301.887L42 301.887L42 300.109L37.5887 300.109C35.9097 300.109 35.2184 299.187 35.2184 298.018C35.2184 296.899 35.8768 296.175 37.1278 296.175L42 296.175L42 294.397L36.9467 294.397C34.8069 294.397 33.5559 295.714 33.5559 297.557ZM33.7699 281.85L34.9386 281.85C34.0826 282.475 33.5559 283.446 33.5559 284.73C33.5559 286.969 35.4324 288.829 37.885 288.829C40.3211 288.829 42.214 286.969 42.214 284.73C42.214 283.446 41.6873 282.475 40.8149 281.85L42 281.85L42 280.072L33.7699 280.072L33.7699 281.85ZM40.5186 284.45C40.5186 285.932 39.4157 287.051 37.885 287.051C36.3542 287.051 35.2513 285.932 35.2513 284.45C35.2513 282.969 36.3542 281.85 37.885 281.85C39.4157 281.85 40.5186 282.969 40.5186 284.45ZM33.7699 271.449L34.988 271.449C34.0991 272.074 33.5559 273.045 33.5559 274.313C33.5559 276.634 35.4488 278.461 37.8026 278.461C40.1565 278.461 42.0494 276.634 42.0494 274.313C42.0494 273.045 41.5062 272.074 40.6173 271.449L41.6214 271.449C43.0534 271.449 43.8929 272.371 43.8929 273.901C43.8929 275.333 43.3333 275.942 42.6255 276.305L43.5143 277.835C44.8311 277.144 45.506 275.745 45.506 273.934C45.506 271.778 44.2715 269.704 41.6214 269.704L33.7699 269.704L33.7699 271.449ZM40.3869 274.066C40.3869 275.564 39.2841 276.683 37.8026 276.683C36.3212 276.683 35.2184 275.564 35.2184 274.066C35.2184 272.568 36.3212 271.449 37.8026 271.449C39.2841 271.449 40.3869 272.568 40.3869 274.066ZM33.7699 261.114L34.9386 261.114C34.0826 261.739 33.5559 262.71 33.5559 263.994C33.5559 266.233 35.4324 268.093 37.8849 268.093C40.3211 268.093 42.214 266.233 42.214 263.994C42.214 262.71 41.6873 261.739 40.8149 261.114L42 261.114L42 259.336L33.7699 259.336L33.7699 261.114ZM40.5186 263.714C40.5186 265.196 39.4157 266.315 37.8849 266.315C36.3542 266.315 35.2513 265.196 35.2513 263.714C35.2513 262.233 36.3542 261.114 37.8849 261.114C39.4157 261.114 40.5186 262.233 40.5186 263.714ZM32.5354 256.375C32.5354 255.75 32.0087 255.239 31.3996 255.239C30.7742 255.239 30.2639 255.75 30.2639 256.375C30.2639 257.001 30.7742 257.511 31.3996 257.511C32.0087 257.511 32.5354 257.001 32.5354 256.375ZM42 257.264L42 255.486L33.7699 255.486L33.7699 257.264L42 257.264ZM33.5559 249.093C33.5559 250.212 33.9674 251.101 34.8234 251.645L33.7699 251.645L33.7699 253.422L42 253.422L42 251.645L37.5887 251.645C35.9097 251.645 35.2184 250.723 35.2184 249.554C35.2184 248.435 35.8768 247.711 37.1278 247.711L42 247.711L42 245.933L36.9467 245.933C34.8069 245.933 33.5559 247.25 33.5559 249.093ZM33.7699 233.385L34.9386 233.385C34.0826 234.011 33.5559 234.982 33.5559 236.266C33.5559 238.505 35.4324 240.365 37.8849 240.365C40.3211 240.365 42.214 238.505 42.214 236.266C42.214 234.982 41.6872 234.011 40.8149 233.385L42 233.385L42 231.608L33.7699 231.608L33.7699 233.385ZM40.5186 235.986C40.5186 237.468 39.4157 238.587 37.8849 238.587C36.3542 238.587 35.2513 237.468 35.2513 235.986C35.2513 234.505 36.3542 233.385 37.8849 233.385C39.4157 233.385 40.5186 234.505 40.5186 235.986ZM33.5559 225.207C33.5559 226.326 33.9674 227.215 34.8234 227.758L33.7699 227.758L33.7699 229.536L42 229.536L42 227.758L37.5887 227.758C35.9097 227.758 35.2184 226.836 35.2184 225.668C35.2184 224.548 35.8768 223.824 37.1278 223.824L42 223.824L42 222.046L36.9467 222.046C34.8069 222.046 33.5559 223.363 33.5559 225.207ZM30.4779 213.614L34.9386 213.614C34.0826 214.239 33.5559 215.211 33.5559 216.494C33.5559 218.733 35.4324 220.593 37.8849 220.593C40.3211 220.593 42.214 218.733 42.214 216.494C42.214 215.211 41.6872 214.239 40.8149 213.614L42 213.614L42 211.836L30.4779 211.836L30.4779 213.614ZM40.5186 216.215C40.5186 217.696 39.4157 218.815 37.8849 218.815C36.3542 218.815 35.2513 217.696 35.2513 216.215C35.2513 214.733 36.3542 213.614 37.8849 213.614C39.4157 213.614 40.5186 214.733 40.5186 216.215ZM33.7699 199.131L34.9386 199.131C34.0826 199.756 33.5559 200.728 33.5559 202.011C33.5559 204.25 35.4324 206.11 37.8849 206.11C40.3211 206.11 42.214 204.25 42.214 202.011C42.214 200.728 41.6872 199.756 40.8149 199.131L42 199.131L42 197.353L33.7699 197.353L33.7699 199.131ZM40.5186 201.732C40.5186 203.213 39.4157 204.332 37.8849 204.332C36.3541 204.332 35.2513 203.213 35.2513 201.732C35.2513 200.25 36.3541 199.131 37.8849 199.131C39.4157 199.131 40.5186 200.25 40.5186 201.732ZM33.7699 188.73L34.988 188.73C34.0991 189.355 33.5559 190.327 33.5559 191.594C33.5559 193.915 35.4488 195.742 37.8026 195.742C40.1565 195.742 42.0494 193.915 42.0494 191.594C42.0494 190.327 41.5062 189.355 40.6173 188.73L41.6214 188.73C43.0534 188.73 43.8929 189.652 43.8929 191.183C43.8929 192.615 43.3333 193.224 42.6255 193.586L43.5143 195.117C44.8311 194.425 45.506 193.026 45.506 191.215C45.506 189.059 44.2715 186.985 41.6214 186.985L33.7699 186.985L33.7699 188.73ZM40.3869 191.347C40.3869 192.845 39.2841 193.964 37.8026 193.964C36.3212 193.964 35.2184 192.845 35.2184 191.347C35.2184 189.849 36.3212 188.73 37.8026 188.73C39.2841 188.73 40.3869 189.849 40.3869 191.347ZM33.7699 178.395L34.9386 178.395C34.0826 179.02 33.5559 179.992 33.5559 181.275C33.5559 183.514 35.4324 185.374 37.8849 185.374C40.3211 185.374 42.214 183.514 42.214 181.275C42.214 179.992 41.6872 179.02 40.8149 178.395L42 178.395L42 176.617L33.7699 176.617L33.7699 178.395ZM40.5186 180.996C40.5186 182.477 39.4157 183.596 37.8849 183.596C36.3541 183.596 35.2513 182.477 35.2513 180.996C35.2513 179.514 36.3541 178.395 37.8849 178.395C39.4157 178.395 40.5186 179.514 40.5186 180.996ZM32.5354 173.656C32.5354 173.031 32.0087 172.521 31.3996 172.521C30.7741 172.521 30.2639 173.031 30.2639 173.656C30.2639 174.282 30.7741 174.792 31.3996 174.792C32.0087 174.792 32.5354 174.282 32.5354 173.656ZM42 174.545L42 172.767L33.7699 172.767L33.7699 174.545L42 174.545ZM33.5559 166.374C33.5559 167.494 33.9674 168.383 34.8234 168.926L33.7699 168.926L33.7699 170.703L42 170.703L42 168.926L37.5887 168.926C35.9097 168.926 35.2184 168.004 35.2184 166.835C35.2184 165.716 35.8768 164.992 37.1278 164.992L42 164.992L42 163.214L36.9467 163.214C34.8069 163.214 33.5559 164.531 33.5559 166.374Z" fill="#1E3356"/>
<g opacity="0.3">
<path d="M27 451.764L37.0168 442.999L46.7486 451.514" stroke="#7D8CA6" stroke-width="2.46903"/>
<path d="M37 445L37 539.54C37 548.631 29.6305 556 20.5398 556L2 556" stroke="#7D8CA6" stroke-width="2.46903"/>
</g>
<g opacity="0.3">
<path d="M10.7656 1L2.00095 8.87446L10.5163 16.5249" stroke="#7D8CA6" stroke-width="2.46903"/>
<path d="M37 137L37 25.3214C37 16.2307 29.6305 8.86126 20.5398 8.86126L2.00001 8.86126" stroke="#7D8CA6" stroke-width="2.46903"/>
</g>
</svg>
